<?xml version="1.0" encoding="UTF-8" standalone="no"?>
<!-- Created with Inkscape (http://www.inkscape.org/) -->

<svg
   xmlns:dc="http://purl.org/dc/elements/1.1/"
   xmlns:cc="http://creativecommons.org/ns#"
   xmlns:rdf="http://www.w3.org/1999/02/22-rdf-syntax-ns#"
   xmlns:svg="http://www.w3.org/2000/svg"
   xmlns="http://www.w3.org/2000/svg"
   xmlns:sodipodi="http://sodipodi.sourceforge.net/DTD/sodipodi-0.dtd"
   xmlns:inkscape="http://www.inkscape.org/namespaces/inkscape"
   version="1.1"
   id="svg2543"
   width="860"
   height="900"
   viewBox="0 0 860 900"
   sodipodi:docname="AES.svg"
   inkscape:version="0.92.5 (2060ec1f9f, 2020-04-08)">
  <metadata
     id="metadata2549">
    <rdf:RDF>
      <cc:Work
         rdf:about="">
        <dc:format>image/svg+xml</dc:format>
        <dc:type
           rdf:resource="http://purl.org/dc/dcmitype/StillImage" />
        <dc:title></dc:title>
      </cc:Work>
    </rdf:RDF>
  </metadata>
  <defs
     id="defs2547" />
  <sodipodi:namedview
     pagecolor="#ffffff"
     bordercolor="#666666"
     borderopacity="1"
     objecttolerance="10"
     gridtolerance="10"
     guidetolerance="10"
     inkscape:pageopacity="0"
     inkscape:pageshadow="2"
     inkscape:window-width="3000"
     inkscape:window-height="1859"
     id="namedview2545"
     showgrid="false"
     inkscape:zoom="1.4833529"
     inkscape:cx="332.2454"
     inkscape:cy="483.15892"
     inkscape:window-x="-13"
     inkscape:window-y="-13"
     inkscape:window-maximized="1"
     inkscape:current-layer="svg2543" />
  <path
     style="fill:#ffffff;stroke-width:0.75860089"
     d="m 446.48098,750.44132 c -9.38508,-0.4321 -27.76111,-2.59855 -38.00387,-4.48047 -60.39623,-11.09672 -114.06846,-38.68786 -157.29744,-80.86147 -21.48191,-20.95745 -35.82094,-39.0649 -50.53035,-63.81011 -34.01655,-57.22508 -48.05906,-127.5179 -38.82213,-194.33265 7.67895,-55.54518 31.39345,-108.74127 67.95639,-152.43897 38.01403,-45.43194 91.19517,-80.02325 148.31923,-96.4732 30.47742,-8.77655 59.69781,-12.42724 92.70846,-11.58264 64.10384,1.64014 124.06736,22.50054 175.22477,60.95805 11.67125,8.77385 21.76964,17.75466 34.26609,30.47392 37.41232,38.07939 63.7987,84.79815 76.67611,135.75993 21.43647,84.83387 5.99386,172.59251 -43.04472,244.61853 -10.75498,15.7965 -21.8554,29.05763 -36.65695,43.79228 -24.62975,24.51841 -48.58582,41.72897 -79.40499,57.04627 -47.03085,23.37459 -97.4703,33.81312 -151.3906,31.33053 z m 52.19355,-28.18107 c 73.26538,-9.84276 138.004,-46.9848 183.65765,-105.36861 25.82491,-33.02599 44.59146,-74.24906 52.6286,-115.60529 3.77609,-19.43041 4.60691,-29.12181 4.58281,-53.45797 -0.025,-25.23822 -0.74648,-32.74272 -5.31192,-55.25256 -13.2806,-65.47988 -51.72161,-125.37429 -106.40613,-165.78991 -33.45769,-24.72755 -71.3802,-41.34236 -112.91564,-49.47122 -18.67872,-3.65559 -25.7227,-4.22158 -52.46217,-4.21538 -22.53884,0.005 -26.82732,0.20451 -37.25574,1.73129 -46.56284,6.81704 -86.66626,22.79847 -124.10412,49.45616 -12.05847,8.58625 -19.84331,15.18287 -32.39708,27.45223 -44.69233,43.67984 -71.60394,96.72399 -80.86068,159.3805 -1.53371,10.38128 -1.7339,14.65037 -1.73915,37.08733 -0.006,26.62075 0.56308,33.64061 4.23543,52.22501 14.33826,72.56074 55.71657,134.98535 117.01579,176.53368 39.97003,27.09151 84.60483,42.60601 135.3372,47.04153 1.88179,0.16453 12.65935,0.18691 23.95012,0.0497 15.23424,-0.18507 23.49879,-0.64841 32.04503,-1.79654 z M 335.09391,644.94393 c -18.41947,-3.12934 -33.8994,-16.06096 -40.91395,-34.17869 l -2.42436,-6.26181 -0.20799,-75.22203 c -0.23383,-84.57175 -0.57177,-79.04399 5.59675,-91.54715 2.80792,-5.69145 4.62986,-8.19536 9.36259,-12.86703 9.20102,-9.08234 18.47186,-13.65766 31.01104,-15.30448 3.9361,-0.51694 47.61318,-0.69726 129.49167,-0.53462 137.75742,0.27367 126.28835,-0.18246 137.56565,5.47102 13.53308,6.78434 22.44946,16.94283 27.26095,31.05858 l 2.06393,6.05508 0.21791,73.41777 c 0.1953,65.80393 0.0884,74.00648 -1.03094,79.09441 -4.20115,19.09629 -18.48173,34.10077 -37.96336,39.88775 -4.29713,1.27646 -11.86598,1.36156 -130.3951,1.46609 -69.20825,0.061 -127.54391,-0.17967 -129.63479,-0.53489 z M 588.6715,618.51537 c 4.62367,-1.27875 10.85183,-5.54183 13.83619,-9.47064 5.87062,-7.7285 5.54157,-2.85226 5.54157,-82.12194 V 456.1541 l -2.39596,-5.03422 c -2.93804,-6.17321 -7.40586,-10.75012 -13.07813,-13.39745 l -4.29426,-2.0042 H 462.8119 337.3429 l -5.03436,2.4672 c -5.85911,2.87139 -9.88011,6.97462 -12.69844,12.95809 l -2.00358,4.2537 v 71.90401 71.90401 l 1.97768,4.1974 c 3.44492,7.31145 8.63444,12.06706 15.95001,14.61641 2.97911,1.03817 17.40986,1.17499 126.91352,1.20327 78.13024,0.0202 124.53437,-0.23972 126.22377,-0.70695 z M 350.35738,591.05628 c -1.86042,-1.05391 -3.64996,-2.94676 -4.75201,-5.02634 l -1.76776,-3.33581 V 527.6099 c 0,-37.07924 0.26433,-55.78069 0.80869,-57.21494 1.84128,-4.85134 7.08853,-8.56422 12.10343,-8.56422 6.16506,0 11.27513,3.83047 12.90534,9.67377 1.14574,4.10679 1.08045,108.8342 -0.07,112.26088 -1.00835,3.00343 -3.97655,6.42248 -6.89177,7.93858 -3.12385,1.6246 -8.85603,1.32364 -12.33594,-0.64769 z m 99.16489,-45.96827 c 0,-20.36104 -0.28671,-34.81668 -0.69054,-34.81668 -1.46163,0 -7.66539,-6.84001 -9.70974,-10.70554 -1.93719,-3.66295 -2.14385,-4.78331 -2.14385,-11.62255 0,-6.79312 0.21408,-7.97323 2.08888,-11.51454 3.0206,-5.70562 5.96511,-8.7177 11.37887,-11.63999 4.48312,-2.41993 5.2257,-2.57953 12.00184,-2.57953 6.34837,0 7.74092,0.25317 11.49951,2.09064 5.04601,2.46685 10.7546,8.25855 13.07078,13.26107 1.31009,2.82953 1.65256,4.9839 1.65046,10.38235 -0.002,5.91404 -0.28185,7.37966 -2.12073,11.11875 -1.2668,2.57585 -3.78523,5.82359 -6.26616,8.08076 l -4.14807,3.77398 v 34.49398 34.49398 H 462.82789 449.52227 Z M 344.01516,362.48967 c 0.26823,-31.06563 0.41214,-34.08247 1.98633,-41.64035 7.63981,-36.67977 30.68696,-66.82598 63.67318,-83.286 44.77573,-22.34295 98.74788,-14.24701 134.7164,20.20777 15.41909,14.77018 25.11253,30.01704 31.28512,49.20859 5.18882,16.13283 6.12335,25.6276 6.13414,62.32195 l 0.008,26.68017 h -39.4754 -39.47539 l -0.29615,-29.70771 c -0.27958,-28.04501 -0.38877,-29.98611 -1.9509,-34.68205 -6.18846,-18.60317 -25.30034,-30.37594 -44.16896,-27.20772 -15.82237,2.65673 -29.12328,15.34588 -32.44675,30.9544 -0.80374,3.77476 -1.07046,11.87886 -1.08041,32.82758 l -0.0132,27.8155 h -39.59252 -39.59252 z m 53.05027,-10.59638 c 0.005,-14.9583 0.23271,-18.54178 1.52146,-23.89324 5.85976,-24.33229 26.02412,-43.91981 50.33308,-48.89321 7.20492,-1.47406 20.55148,-1.5357 27.23214,-0.12577 20.36048,4.29701 37.38922,17.8607 46.31339,36.88943 5.13562,10.95051 5.52384,13.21227 5.9234,34.50902 l 0.35856,19.11133 h 13.31158 13.31157 l -0.3889,-19.86821 c -0.28108,-14.35947 -0.72543,-21.30032 -1.60262,-25.03336 -4.52027,-19.23671 -13.31974,-34.70363 -27.31822,-48.01751 -17.24408,-16.40076 -39.23774,-25.15487 -63.19859,-25.15487 -25.0572,0 -47.82331,9.35024 -65.42202,26.86939 -10.43495,10.38778 -17.71347,22.02096 -22.25729,35.57356 -3.78506,11.2895 -4.73412,18.97879 -4.73412,38.35604 v 17.27496 h 13.30563 13.30562 l 0.005,-17.59756 z"
     id="path3096"
     inkscape:connector-curvature="0" />
</svg>
