<?xml version="1.0" encoding="UTF-8" standalone="no"?>
<!-- Created with Inkscape (http://www.inkscape.org/) -->

<svg
   xmlns:dc="http://purl.org/dc/elements/1.1/"
   xmlns:cc="http://creativecommons.org/ns#"
   xmlns:rdf="http://www.w3.org/1999/02/22-rdf-syntax-ns#"
   xmlns:svg="http://www.w3.org/2000/svg"
   xmlns="http://www.w3.org/2000/svg"
   xmlns:sodipodi="http://sodipodi.sourceforge.net/DTD/sodipodi-0.dtd"
   xmlns:inkscape="http://www.inkscape.org/namespaces/inkscape"
   version="1.1"
   id="svg815"
   width="1536"
   height="443"
   viewBox="0 0 1536 443"
   sodipodi:docname="Discord.svg"
   inkscape:version="0.92.5 (2060ec1f9f, 2020-04-08)">
  <metadata
     id="metadata821">
    <rdf:RDF>
      <cc:Work
         rdf:about="">
        <dc:format>image/svg+xml</dc:format>
        <dc:type
           rdf:resource="http://purl.org/dc/dcmitype/StillImage" />
        <dc:title></dc:title>
      </cc:Work>
    </rdf:RDF>
  </metadata>
  <defs
     id="defs819" />
  <sodipodi:namedview
     pagecolor="#ffffff"
     bordercolor="#666666"
     borderopacity="1"
     objecttolerance="10"
     gridtolerance="10"
     guidetolerance="10"
     inkscape:pageopacity="0"
     inkscape:pageshadow="2"
     inkscape:window-width="3000"
     inkscape:window-height="1859"
     id="namedview817"
     showgrid="false"
     inkscape:zoom="0.76822917"
     inkscape:cx="545.87398"
     inkscape:cy="144.85655"
     inkscape:window-x="-13"
     inkscape:window-y="-13"
     inkscape:window-maximized="1"
     inkscape:current-layer="svg815" />
  <path
     style="fill:#ffffff;stroke-width:0.85860509"
     d="m 905.86281,408.03375 c -12.97056,-10.8913 -33.20891,-28.36377 -44.97414,-38.82772 -11.76521,-10.46396 -21.51239,-18.90836 -21.66039,-18.76535 -0.148,0.14301 1.91193,7.46859 4.57761,16.27905 2.66569,8.81047 4.84671,16.45137 4.84671,16.97979 0,0.71339 -28.61831,0.957 -111.14505,0.94612 -122.14885,-0.0161 -117.94431,0.15274 -128.24035,-5.15018 -6.02049,-3.10082 -12.99904,-10.03128 -16.14861,-16.03734 -4.90933,-9.36182 -4.72373,-3.74104 -4.73773,-143.47824 -0.008,-84.13806 0.29627,-130.384814 0.87861,-133.352074 2.95538,-15.058834 14.9974,-27.119563 30.63355,-30.681142 8.20936,-1.869915 268.80254,-1.92396 277.91704,-0.05764 15.96118,3.268277 28.40023,15.911423 31.16364,31.674942 0.68354,3.89915 0.8909,53.908854 0.71685,172.879134 l -0.2449,167.39299 z M 711.95948,292.16669 c 3.36274,-3.97816 6.11407,-7.59331 6.11407,-8.03368 0,-0.44038 -3.04617,-2.0803 -6.76927,-3.64428 -3.72309,-1.56399 -8.83271,-4.11157 -11.3547,-5.66128 -4.5756,-2.81163 -12.88309,-9.76791 -12.88309,-10.78766 0,-0.29597 4.45889,1.58749 9.90864,4.18549 29.23643,13.93752 61.54263,18.22173 91.8215,12.17669 13.59749,-2.71467 29.98734,-8.51043 40.86635,-14.45111 6.58171,-3.59406 5.49032,-1.30136 -2.17468,4.56841 -6.61792,5.0679 -13.23635,8.6773 -20.52542,11.19369 -3.42403,1.18206 -5.2305,2.23023 -4.87159,2.82664 0.31376,0.52135 3.09137,3.89145 6.17249,7.4891 l 5.60202,6.54118 h 4.76536 c 16.98324,0 37.8365,-8.97783 49.97254,-21.51441 l 5.37861,-5.5561 -0.0151,-6.51031 c -0.065,-28.00877 -9.62383,-65.84049 -24.47507,-96.86806 -3.00426,-6.27662 -3.69125,-7.0744 -8.93449,-10.37547 -12.87978,-8.10889 -27.78644,-13.59373 -42.00498,-15.45551 -6.44728,-0.84422 -6.9749,-0.79244 -8.6761,0.85146 -1.44483,1.39619 -1.55805,1.83392 -0.55947,2.16333 8.67233,2.86086 19.93355,7.20304 24.83471,9.57594 5.76881,2.79298 19.65237,11.00621 19.65237,11.62595 0,0.1573 -3.28927,-1.20349 -7.30948,-3.02398 -22.45019,-10.16623 -50.86889,-15.08924 -77.19568,-13.37274 -24.35197,1.58775 -38.55496,4.95792 -61.65667,14.6303 -5.65778,2.36883 -2.65977,-0.12305 6.24658,-5.19203 8.45452,-4.81183 28.64698,-13.27754 34.01084,-14.25908 3.14526,-0.57556 3.5062,-1.2776 1.48871,-2.89558 -1.10231,-0.88403 -2.90503,-0.83439 -9.82619,0.27058 -14.24724,2.27458 -27.72145,7.38354 -40.07373,15.1946 -5.06113,3.20045 -5.63824,3.91219 -9.34252,11.52219 -13.56008,27.85756 -22.24545,61.01922 -23.80725,90.89858 l -0.57941,11.08504 6.89692,6.72923 c 13.00131,12.68522 30.74163,19.99763 51.44227,21.20407 1.1992,0.0699 3.66372,-2.16583 7.86095,-7.13119 z m 7.86094,-39.94515 c -9.55762,-2.31464 -15.41818,-9.87735 -15.47477,-19.96929 -0.0505,-8.99962 5.11243,-16.56231 13.18589,-19.31487 4.82774,-1.64596 7.50326,-1.6395 12.57488,0.0304 4.46405,1.46982 9.63444,6.34571 11.63484,10.97213 2.84116,6.57084 0.75058,17.79217 -4.28792,23.01567 -4.02851,4.17645 -12.13508,6.59742 -17.63292,5.26597 z m 70.52543,-0.0537 c -13.53859,-3.10427 -19.43304,-21.14581 -10.71028,-32.78172 3.63559,-4.84977 10.92143,-8.13712 16.5953,-7.48777 10.99259,1.25807 17.86862,9.10256 17.89523,20.41566 0.0116,4.94444 -0.39638,6.62525 -2.50124,10.30424 -2.79764,4.88985 -7.44074,8.45574 -12.48256,9.58657 -3.84108,0.86152 -4.89719,0.85707 -8.79645,-0.037 z"
     id="path825"
     inkscape:connector-curvature="0"
     sodipodi:nodetypes="sssssssssssssscscscsscsssscscscccsccccsscsssccsssscscccsccccsscsccsccc" />
</svg>
