<?xml version="1.0" encoding="UTF-8" standalone="no"?>
<!-- Created with Inkscape (http://www.inkscape.org/) -->

<svg
   xmlns:dc="http://purl.org/dc/elements/1.1/"
   xmlns:cc="http://creativecommons.org/ns#"
   xmlns:rdf="http://www.w3.org/1999/02/22-rdf-syntax-ns#"
   xmlns:svg="http://www.w3.org/2000/svg"
   xmlns="http://www.w3.org/2000/svg"
   xmlns:sodipodi="http://sodipodi.sourceforge.net/DTD/sodipodi-0.dtd"
   xmlns:inkscape="http://www.inkscape.org/namespaces/inkscape"
   version="1.1"
   id="svg815"
   width="580"
   height="340"
   viewBox="0 0 580 340"
   sodipodi:docname="github.svg"
   inkscape:version="0.92.5 (2060ec1f9f, 2020-04-08)">
  <metadata
     id="metadata821">
    <rdf:RDF>
      <cc:Work
         rdf:about="">
        <dc:format>image/svg+xml</dc:format>
        <dc:type
           rdf:resource="http://purl.org/dc/dcmitype/StillImage" />
        <dc:title></dc:title>
      </cc:Work>
    </rdf:RDF>
  </metadata>
  <defs
     id="defs819" />
  <sodipodi:namedview
     pagecolor="#ffffff"
     bordercolor="#666666"
     borderopacity="1"
     objecttolerance="10"
     gridtolerance="10"
     guidetolerance="10"
     inkscape:pageopacity="0"
     inkscape:pageshadow="2"
     inkscape:window-width="3000"
     inkscape:window-height="1859"
     id="namedview817"
     showgrid="false"
     inkscape:zoom="2.8771931"
     inkscape:cx="153.63925"
     inkscape:cy="175.62224"
     inkscape:window-x="-13"
     inkscape:window-y="-13"
     inkscape:window-maximized="1"
     inkscape:current-layer="svg815" />
  <path
     style="fill:#ffffff"
     d="m 277,304.37474 c -32.81034,-4.16657 -59.45952,-16.87198 -81.5354,-38.87325 -20.49086,-20.42162 -33.26749,-45.08905 -37.98798,-73.34218 -2.31594,-13.8614 -1.62348,-39.83508 1.3798,-51.75536 4.34957,-17.26382 10.90481,-32.15198 20.42488,-46.388702 C 185.80718,84.25617 204.385,65.721451 214.26479,59.112916 237.03431,43.882515 262.8479,36 289.95477,36 c 43.49185,0 82.6625,19.911429 108.99381,55.404302 18.42721,24.838658 28.0934,59.468418 25.0786,89.845698 -3.3535,33.79 -15.90569,60.75394 -38.98753,83.75089 -25.60305,25.50888 -55.93556,38.59459 -91.53965,39.49101 -7.15,0.18002 -14.575,0.1273 -16.5,-0.11716 z m -21,-36.65336 v -8.27862 l -10.25,0.0286 c -8.62548,0.0241 -11.04245,-0.33648 -15.25,-2.27499 -7.11596,-3.27849 -10.09798,-6.51537 -15.05342,-16.33995 -3.4133,-6.76718 -5.68139,-9.7931 -10.44795,-13.93893 -6.85191,-5.9596 -7.54573,-8.73857 -2.51568,-10.07601 6.6836,-1.7771 15.18135,2.98008 21.9571,12.29195 7.70055,10.58282 14.18894,13.38679 25.24942,10.91156 4.41797,-0.9887 5.79899,-1.81554 7.31873,-4.38183 1.03026,-1.73975 2.41204,-3.77321 3.0706,-4.51881 1.38861,-1.57211 -0.28706,-3.10303 -3.42489,-3.12906 -1.01535,-0.008 -4.39035,-0.74121 -7.5,-1.62842 -24.90223,-7.10481 -37.08899,-20.0505 -42.25546,-44.88689 -3.85175,-18.51626 -1.1372,-35.65977 7.67491,-48.47033 3.21655,-4.67605 3.37788,-5.28403 2.45897,-9.26702 -1.98578,-8.60724 -0.73861,-22.44435 2.61496,-29.01265 1.68636,-3.302884 5.14167,-3.595775 13.41955,-1.137511 5.6989,1.692392 17.61741,7.356541 22.01933,10.464451 2.45193,1.73116 2.84123,1.73976 7.5,0.16576 7.04675,-2.38079 46.31528,-2.46892 54.49405,-0.12229 4.87991,1.40012 5.82114,1.41994 7.5,0.15792 C 331.67831,98.942544 349.29279,92 355.73253,92 c 2.90062,0 3.57144,0.48326 4.82051,3.472706 2.73681,6.550094 3.87919,18.276014 2.55074,26.182024 l -1.2083,7.19103 3.46754,4.54273 c 12.05164,15.78851 12.49674,46.56256 0.9795,67.72351 -3.83217,7.04097 -13.8096,16.02746 -22.54628,20.30703 -6.66583,3.26518 -20.77862,7.52818 -25.04624,7.56562 -2.10378,0.0185 -2.2665,1.3418 -0.3596,2.92439 0.76472,0.63466 2.42253,3.50226 3.68403,6.37245 2.00015,4.5508 2.34889,7.29 2.72555,21.40821 l 0.43193,16.18971 5.13404,-2.00667 c 36.21744,-14.15575 62.4818,-46.39061 69.22312,-84.95913 C 401.94596,175.42935 401.04643,154.93648 397.52981,142 394.5507,131.04084 386.02577,112.98874 380.05693,105 344.78296,57.789137 281.03128,45.389979 231.20964,76.050476 c -9.44834,5.814559 -23.03419,18.300193 -30.26546,27.814494 -7.00921,9.22213 -15.41528,26.6806 -18.60237,38.63503 -2.39896,8.99825 -2.66833,11.75306 -2.68899,27.5 -0.0206,15.72129 0.23956,18.47308 2.55981,27.07377 3.66435,13.583 7.96881,23.33246 15.0412,34.06786 9.65104,14.64959 23.13272,27.3151 38.1287,35.8204 5.6705,3.21614 18.32419,8.95524 19.86747,9.01092 0.4125,0.0149 0.75,-3.69833 0.75,-8.25157 z"
     id="path825"
     inkscape:connector-curvature="0"
     sodipodi:nodetypes="csssssssssscscccccssscccsssccscsccssccssscccsccsssssscssccs" />
</svg>
