<?xml version="1.0" encoding="UTF-8" standalone="no"?>
<!-- Created with Inkscape (http://www.inkscape.org/) -->

<svg
   xmlns:dc="http://purl.org/dc/elements/1.1/"
   xmlns:cc="http://creativecommons.org/ns#"
   xmlns:rdf="http://www.w3.org/1999/02/22-rdf-syntax-ns#"
   xmlns:svg="http://www.w3.org/2000/svg"
   xmlns="http://www.w3.org/2000/svg"
   xmlns:sodipodi="http://sodipodi.sourceforge.net/DTD/sodipodi-0.dtd"
   xmlns:inkscape="http://www.inkscape.org/namespaces/inkscape"
   version="1.1"
   id="svg1382"
   width="406.21487"
   height="406.21487"
   viewBox="0 0 406.21487 406.21487"
   sodipodi:docname="linkedin.svg"
   inkscape:version="0.92.5 (2060ec1f9f, 2020-04-08)">
  <metadata
     id="metadata1388">
    <rdf:RDF>
      <cc:Work
         rdf:about="">
        <dc:format>image/svg+xml</dc:format>
        <dc:type
           rdf:resource="http://purl.org/dc/dcmitype/StillImage" />
        <dc:title></dc:title>
      </cc:Work>
    </rdf:RDF>
  </metadata>
  <defs
     id="defs1386" />
  <sodipodi:namedview
     pagecolor="#ffffff"
     bordercolor="#666666"
     borderopacity="1"
     objecttolerance="10"
     gridtolerance="10"
     guidetolerance="10"
     inkscape:pageopacity="0"
     inkscape:pageshadow="2"
     inkscape:window-width="3000"
     inkscape:window-height="1859"
     id="namedview1384"
     showgrid="false"
     inkscape:zoom="1.6432407"
     inkscape:cx="342.28167"
     inkscape:cy="308.7562"
     inkscape:window-x="-13"
     inkscape:window-y="-13"
     inkscape:window-maximized="1"
     inkscape:current-layer="svg1382" />
  <path
     style="fill:#ffffff;stroke-width:0.79338843"
     d="M 34.14273,406.87745 C 20.18415,405.54205 8.1056698,395.5143 3.0775798,381.08669 c -1.40542,-4.03271 -1.46378,-11.08017 -1.46378,-176.76216 0,-165.681978 0.0584,-172.729429 1.46378,-176.762141 C 7.3349298,15.346323 15.34632,7.3349309 27.56239,3.0775799 c 4.03271,-1.405418 11.08016,-1.463779 176.76215,-1.463779 165.68199,0 172.72945,0.05836 176.76216,1.463779 12.21606,4.257351 20.22745,12.2687431 24.48481,24.4848091 1.40541,4.032712 1.46378,11.080163 1.46378,176.762141 0,165.68199 -0.0584,172.72945 -1.46378,176.76216 -4.18137,11.99802 -11.75105,19.69972 -24.03716,24.45633 -3.72799,1.4433 -9.43737,1.49464 -174.03625,1.56514 -93.6,0.0401 -171.60992,-0.0637 -173.35537,-0.23071 z m 88.20765,-45.9151 c 1.23124,-0.90375 2.86287,-2.86738 3.62583,-4.36363 1.29825,-2.54604 1.38727,-8.94083 1.38843,-99.73769 0.001,-105.17744 0.21994,-99.91293 -4.32306,-104.10674 l -2.14862,-1.98347 -26.49634,-0.22869 c -29.36985,-0.25349 -29.85876,-0.18176 -32.91411,4.82919 -1.51408,2.48317 -1.54879,4.74709 -1.55169,101.19444 -0.003,109.94733 -0.4556,101.28765 5.47158,104.76077 2.76806,1.62199 3.65462,1.66746 28.78268,1.47627 24.80909,-0.18877 26.02316,-0.2681 28.1653,-1.84045 z m 96.79956,0.49258 c 4.7918,-2.92177 4.57516,-0.26173 5.04329,-61.92378 l 0.43067,-56.72728 2.0379,-6.81526 c 6.91784,-23.13501 21.3922,-33.64245 41.51611,-30.13802 10.50073,1.82861 17.39378,7.13265 22.24711,17.11857 5.3371,10.98128 5.34227,11.04826 5.86141,75.9039 l 0.46787,58.44935 1.86349,1.98272 c 3.43659,3.65647 4.52419,3.77198 33.2326,3.52931 l 27.08265,-0.22892 2.449,-2.34721 c 1.34695,-1.29097 2.83071,-3.62129 3.29725,-5.17847 1.18598,-3.95842 0.46225,-119.67964 -0.81631,-130.5239 -3.23038,-27.39911 -10.3482,-45.27093 -23.25209,-58.38265 -7.97946,-8.10796 -19.57385,-14.24827 -32.33306,-17.12334 -7.52861,-1.69645 -27.91053,-2.28173 -36.7645,-1.05573 -8.97506,1.24277 -21.09811,5.16161 -27.17595,8.78475 -5.35988,3.19517 -12.85021,9.87699 -17.13588,15.28623 l -3.04224,3.83984 v -8.83791 c 0,-9.78253 -0.77129,-12.26578 -4.67249,-15.04368 -2.23353,-1.59042 -3.25557,-1.64933 -28.61336,-1.64933 -29.0537,0 -29.60178,0.084 -32.59751,4.9972 -1.51402,2.48307 -1.5488,4.74495 -1.55169,100.93253 -0.003,93.78016 0.065,98.51926 1.44676,101.09573 2.92606,5.45596 3.78349,5.603 32.6536,5.59967 24.14476,-0.003 25.95944,-0.10171 28.32537,-1.54432 z M 102.37413,131.72083 c 8.57186,-1.80767 15.04362,-5.37658 21.44561,-11.82638 6.28893,-6.3359 10.06933,-12.83735 11.84515,-20.37102 C 139.27261,84.218095 134.65944,68.677105 123.33833,57.997345 105.86504,41.513933 79.77969,41.662783 63.1014,58.341073 54.43757,67.004912 50.16026,77.231909 50.16026,89.283221 c 0,16.826019 9.17212,31.544909 24.15983,38.770279 10.02043,4.83072 17.74747,5.84083 28.05404,3.66733 z"
     id="path1935"
     inkscape:connector-curvature="0" />
</svg>
