<?xml version="1.0" encoding="UTF-8" standalone="no"?>
<!-- Created with Inkscape (http://www.inkscape.org/) -->

<svg
   xmlns:dc="http://purl.org/dc/elements/1.1/"
   xmlns:cc="http://creativecommons.org/ns#"
   xmlns:rdf="http://www.w3.org/1999/02/22-rdf-syntax-ns#"
   xmlns:svg="http://www.w3.org/2000/svg"
   xmlns="http://www.w3.org/2000/svg"
   xmlns:sodipodi="http://sodipodi.sourceforge.net/DTD/sodipodi-0.dtd"
   xmlns:inkscape="http://www.inkscape.org/namespaces/inkscape"
   version="1.1"
   id="svg815"
   width="700"
   height="394"
   viewBox="0 0 700 394"
   sodipodi:docname="lockheed.svg"
   inkscape:version="0.92.5 (2060ec1f9f, 2020-04-08)">
  <metadata
     id="metadata821">
    <rdf:RDF>
      <cc:Work
         rdf:about="">
        <dc:format>image/svg+xml</dc:format>
        <dc:type
           rdf:resource="http://purl.org/dc/dcmitype/StillImage" />
        <dc:title></dc:title>
      </cc:Work>
    </rdf:RDF>
  </metadata>
  <defs
     id="defs819" />
  <sodipodi:namedview
     pagecolor="#ffffff"
     bordercolor="#666666"
     borderopacity="1"
     objecttolerance="10"
     gridtolerance="10"
     guidetolerance="10"
     inkscape:pageopacity="0"
     inkscape:pageshadow="2"
     inkscape:window-width="3000"
     inkscape:window-height="1859"
     id="namedview817"
     showgrid="false"
     inkscape:zoom="3.3714286"
     inkscape:cx="350"
     inkscape:cy="197"
     inkscape:window-x="-13"
     inkscape:window-y="-13"
     inkscape:window-maximized="1"
     inkscape:current-layer="svg815" />
  <path
     style="fill:#ffffff"
     d="m 65.161017,309.03632 c -8.736441,-3.06224 -11.67911,-12.0897 -7.990111,-24.5119 2.063783,-6.94952 9.010334,-14.58644 15.180004,-16.68866 6.258732,-2.13257 15.870841,-2.05611 20.310107,0.16155 5.26204,2.62869 8.303313,9.17083 7.553483,16.24845 -0.770633,7.2739 -5.609523,17.04263 -10.161989,20.51496 -6.470745,4.93548 -17.569792,6.84196 -24.891494,4.2756 z m 13.812675,-11.58357 c 1.97878,-2.18653 4.933697,-13.26766 4.501394,-16.88052 -0.461839,-3.85969 -3.178078,-5.21201 -5.765497,-2.87043 -3.526795,3.19171 -6.743191,18.51601 -4.381905,20.87729 1.234099,1.2341 4.011217,0.68009 5.646008,-1.12634 z m 33.149768,11.72928 c -1.67066,-0.48585 -4.34191,-2.2448 -5.93612,-3.9088 -5.31542,-5.5481 -4.60349,-18.78372 1.53063,-28.45622 4.06487,-6.40964 10.3678,-9.77053 19.41189,-10.35094 12.58794,-0.80785 18.53116,2.85297 18.53116,11.41455 v 4.36514 h -7.5 c -6.6703,0 -7.5,-0.20771 -7.5,-1.87756 0,-4.82031 -5.53579,-4.71811 -8.15001,0.15048 -1.77017,3.29668 -3.81689,13.88933 -3.18371,16.47708 0.76837,3.14027 4.79964,2.99475 6.92568,-0.25 1.5025,-2.29311 2.24921,-2.5 9.02305,-2.5 8.3332,0 8.81847,0.57709 5.11119,6.07832 -5.48997,8.14657 -17.62846,11.95081 -28.26376,8.85795 z m -92.462443,-0.32586 c 0,-0.7241 8.065045,-38.09569 8.60215,-39.86041 0.448876,-1.47483 1.77994,-1.75 8.465238,-1.75 4.362936,0 7.932612,0.36233 7.932612,0.80518 0,0.44285 -1.35,6.98173 -3,14.53084 -1.65,7.54912 -3,14.16179 -3,14.69482 0,0.5394 3.325796,0.96916 7.5,0.96916 4.125,0 7.5,0.20285 7.5,0.45078 0,0.24793 -0.487289,2.72293 -1.082864,5.5 l -1.082864,5.04922 H 35.578153 c -8.754425,0 -15.917136,-0.17532 -15.917136,-0.38959 z m 126.204863,-1.86041 c 0.24091,-1.2375 2.20107,-10.6875 4.35591,-21 l 3.91788,-18.75 h 8.09975 8.09976 l -1.78419,8.22155 c -0.98131,4.52186 -1.63033,8.37542 -1.44228,8.56347 0.18805,0.18805 2.97585,-3.50023 6.19511,-8.19617 l 5.8532,-8.53807 8.79434,-0.0254 8.79435,-0.0254 -7.67064,9.63517 c -8.6908,10.9166 -8.42346,8.43403 -2.60079,24.15161 l 3.06988,8.28678 -9.10944,-0.28678 -9.10944,-0.28678 -2.51865,-8.75 c -1.38526,-4.8125 -2.7892,-8.75 -3.11988,-8.75 -0.33067,0 -1.41987,4.05 -2.42044,9 l -1.81923,9 h -8.01161 c -7.77145,0 -7.99847,-0.0675 -7.57359,-2.25 z m 47.78924,1 c -0.003,-0.6875 1.87047,-10.1375 4.16382,-21 l 4.16971,-19.75 h 8.21223 8.21222 l -1.34091,6.25 c -0.7375,3.4375 -1.35672,6.61466 -1.37604,7.06037 -0.0193,0.4457 1.65237,0.6707 3.71487,0.5 l 3.75,-0.31037 1.40018,-6.75 1.40019,-6.75 h 8.24509 8.24509 l -2.8988,13.75 c -1.59434,7.5625 -3.61738,17.0125 -4.49565,21 l -1.59686,7.25 h -7.89962 c -9.00918,0 -8.77123,0.33644 -6.52196,-9.22129 0.74054,-3.14671 1.10851,-5.95921 0.81772,-6.25 -0.29079,-0.29079 -1.96362,-0.52871 -3.71739,-0.52871 -3.17515,0 -3.19602,0.034 -4.91719,8 l -1.7285,8 h -7.91615 c -5.66311,0 -7.91783,-0.35577 -7.92205,-1.25 z m 49.49284,-4.5 c 0.72025,-3.1625 2.77071,-12.6125 4.55656,-21 l 3.24701,-15.25 h 15.9342 15.9342 l -0.65411,3.25 c -1.42352,7.07285 -0.9708,6.75 -9.4652,6.75 -6.21345,0 -7.95067,0.32587 -8.43261,1.58179 -1.18141,3.0787 -0.53292,3.41821 6.52893,3.41821 h 7.13593 l -0.62816,4.58293 c -0.34549,2.52061 -0.88321,4.99561 -1.19494,5.5 -0.31173,0.50439 -3.91523,0.91707 -8.00777,0.91707 -7.27038,0 -7.44098,0.0573 -7.44098,2.5 0,2.46112 0.12611,2.5 8.10841,2.5 h 8.10841 l -0.65674,2.61666 c -0.36121,1.43917 -0.91625,3.91417 -1.23341,5.5 l -0.57667,2.88334 H 258.12471 241.8384 Z m 39.88953,4 c 0.28118,-0.9625 2.14344,-9.625 4.13834,-19.25 1.99491,-9.625 3.8505,-18.2875 4.12353,-19.25 0.44631,-1.5733 2.11601,-1.75 16.53604,-1.75 13.49231,0 15.95251,0.22694 15.49124,1.42899 -0.30159,0.78594 -0.84654,3.0185 -1.211,4.96123 l -0.66266,3.53226 -8.14598,0.28876 c -7.58428,0.26885 -8.16801,0.44391 -8.46553,2.53876 -0.30593,2.15411 -0.0135,2.25 6.86129,2.25 h 7.18084 l -0.66461,3.75 c -1.3327,7.51967 -0.99327,7.25 -9.12536,7.25 -4.08793,0 -7.43261,0.4132 -7.43261,0.91821 0,0.50502 -0.27314,1.63002 -0.60699,2.5 -0.52488,1.36781 0.57182,1.58179 8.10699,1.58179 7.5482,0 8.63248,0.21237 8.10483,1.58742 -0.33504,0.87308 -0.89069,3.34808 -1.2348,5.5 l -0.62565,3.91258 h -16.43958 c -15.18483,0 -16.40055,-0.13357 -15.92833,-1.75 z m 40.68768,0.5 c 0.0353,-0.6875 1.95518,-10.025 4.26644,-20.75 l 4.20228,-19.5 13.35612,-0.27988 c 11.82047,-0.2477 13.84874,-0.0414 17.6406,1.7942 5.83087,2.82268 7.93252,7.29038 7.11387,15.12274 -1.21387,11.61371 -7.89164,20.37432 -17.76537,23.3065 -6.69935,1.9895 -28.91244,2.22573 -28.81394,0.30644 z m 25.59139,-11.2336 c 2.08655,-2.33122 4.34446,-10.12402 4.34446,-14.99419 0,-3.04759 -2.66012,-5.71533 -5.31021,-5.32543 -1.75715,0.25853 -2.39235,1.8509 -4.30946,10.80322 -1.23669,5.775 -2.27819,11.11128 -2.31443,11.85841 -0.10169,2.09622 5.03629,0.51074 7.58964,-2.34201 z m 43.82702,10.2336 c 0.28637,-1.2375 2.09422,-9.675 4.01744,-18.75 1.92322,-9.075 3.73107,-17.5125 4.01744,-18.75 0.50321,-2.17456 0.91073,-2.25 12.15428,-2.25 h 11.63361 l -0.60483,12.02946 c -0.33266,6.6162 -0.2348,11.80076 0.21746,11.52124 0.45226,-0.27951 2.79324,-5.69261 5.20217,-12.0291 l 4.37987,-11.5209 11.71862,-3.5e-4 c 8.9348,-2.7e-4 11.61774,0.29659 11.29401,1.24965 -0.44205,1.30135 -8.51263,39.50792 -8.51263,40.29925 0,0.24791 -3.15,0.45075 -7,0.45075 -3.85,0 -7,-0.13733 -7,-0.30518 0,-0.16785 1.36096,-6.53188 3.02436,-14.1423 1.6634,-7.61042 2.84808,-14.01342 2.63261,-14.22888 -0.21546,-0.21546 -3.03384,6.14857 -6.26306,14.1423 l -5.87132,14.53406 h -7.67078 -7.67078 l 0.54498,-14.5 c 0.29974,-7.975 0.29508,-14.5 -0.0104,-14.5 -0.526,0 -1.26152,2.98755 -5.23162,21.25 l -1.68479,7.75 h -6.91867 c -6.66253,0 -6.8994,-0.0833 -6.39801,-2.25 z m 59.57461,1.5 c 0.0315,-0.4125 4.87727,-9.75 10.7685,-20.75 l 10.71133,-20 11.03535,-0.28092 11.03535,-0.28091 1.77661,17.28091 c 0.97714,9.50451 2.02292,18.96842 2.32396,21.03092 l 0.54735,3.75 h -8.62781 -8.62781 v -3.5 -3.5 h -6.31479 c -6.23232,0 -6.33658,0.0457 -7.98382,3.5 l -1.66903,3.5 h -7.51618 c -4.1339,0 -7.49045,-0.3375 -7.45901,-0.75 z m 30.94283,-23.75 c 0,-6.99131 -1.10503,-9.78645 -2.2732,-5.75 -0.27855,0.9625 -1.67536,4.3375 -3.10402,7.5 l -2.59756,5.75 h 3.98739 3.98739 z m 21.03121,23.75 c 0.0172,-0.4125 1.9643,-9.75 4.32697,-20.75 l 4.29575,-20 h 16.57035 c 14.89234,0 16.78328,0.19291 18.67303,1.90499 4.22114,3.82425 1.64237,13.41628 -4.37884,16.28759 l -3.59209,1.71295 2.53681,1.32917 c 2.18197,1.14326 2.53681,2.00456 2.53681,6.15767 0,2.65567 -0.28617,6.91629 -0.63592,9.46806 l -0.63593,4.63957 h -7.86854 -7.86854 l 0.25446,-7.25 c 0.25221,-7.18547 0.23072,-7.25275 -2.41429,-7.55858 -2.56084,-0.29611 -2.73675,-0.003 -4.35038,7.25 l -1.68162,7.55858 h -7.89962 c -4.34479,0 -7.88557,-0.3375 -7.86841,-0.75 z m 28.64805,-26.88324 c 1.90238,-2.90339 0.39562,-5.36676 -3.28265,-5.36676 -1.76017,0 -2.51138,0.69766 -2.96108,2.75 -0.33142,1.5125 -0.75898,3.26851 -0.95015,3.90223 -0.5168,1.71323 0.27535,2.11617 3.09909,1.57637 1.39561,-0.26678 3.23826,-1.55461 4.09479,-2.86184 z m 25.32074,26.37001 c 0,-0.69477 1.35,-7.55132 3,-15.23677 1.65,-7.68545 3,-14.092 3,-14.23677 0,-0.14478 -2.30008,-0.26323 -5.11129,-0.26323 h -5.11129 l 0.66461,-3.75 c 1.39599,-7.87677 -0.35348,-7.25 20.23665,-7.25 h 18.5439 l -0.66461,3.75 c -1.29136,7.28643 -1.25659,7.25 -6.92013,7.25 h -5.22739 l -1.78451,8.75 c -0.98148,4.8125 -2.4599,11.7875 -3.28538,15.5 l -1.50087,6.75 h -7.91984 c -5.71344,0 -7.91985,-0.35193 -7.91985,-1.26323 z m 32.06415,0.0132 c 0.0353,-0.6875 1.9546,-10.025 4.26514,-20.75 l 4.20099,-19.5 8.3539,-0.29237 c 8.26895,-0.28939 8.34808,-0.26905 7.78091,2 -0.31515,1.26081 -2.1791,9.94237 -4.1421,19.29237 -1.96301,9.35 -3.81406,17.7875 -4.11344,18.75 -0.45843,1.47385 -1.7961,1.75 -8.47694,1.75 -5.71364,0 -7.91466,-0.34966 -7.86846,-1.25 z m 25.53966,-0.5 c 0.90398,-3.79756 8.39619,-39.25678 8.39619,-39.73756 0,-0.28183 4.45122,-0.51241 9.89159,-0.51241 11.45398,0 10.19841,-1.46181 12.2016,14.20577 0.68251,5.33817 1.54649,9.51692 1.91995,9.28611 0.37346,-0.23081 1.73358,-5.6109 3.02249,-11.95577 l 2.34348,-11.53611 h 6.77906 c 4.98304,0 6.66657,0.33117 6.35446,1.25 -0.44205,1.30135 -8.51263,39.50792 -8.51263,40.29925 0,0.24791 -4.44375,0.45075 -9.875,0.45075 h -9.875 l -0.53597,-2.75 c -0.29478,-1.5125 -1.10523,-7.1483 -1.80099,-12.52401 -0.69576,-5.3757 -1.56971,-9.4257 -1.94212,-9 -0.3724,0.42571 -1.7285,6.06151 -3.01356,12.52401 l -2.33647,11.75 h -6.71683 c -5.889,0 -6.66548,-0.21568 -6.30025,-1.75 z m -178.59975,-64 c 0.002,-0.4125 3.11423,-15.375 6.91554,-33.25 3.80131,-17.875 6.76122,-32.65077 6.57757,-32.83504 -0.18365,-0.18426 -29.71254,14.1101 -65.61975,31.76527 -35.90722,17.65516 -65.72362,31.95437 -66.25868,31.77602 -1.40256,-0.46752 -0.40514,-1.0277 69.88126,-39.24657 35.2,-19.14032 64.1814,-34.94278 64.4031,-35.11657 0.45062,-0.35323 7.02487,-31.13079 7.06887,-33.09311 0.0215,-0.95906 -4.60324,-1.25 -19.86974,-1.25 h -19.89776 l -24.19525,22.57365 c -13.30739,12.41551 -24.44318,22.32572 -24.74621,22.02269 -0.53421,-0.53421 3.71038,-5.30702 28.09944,-31.59634 6.37805,-6.875 11.60571,-12.8375 11.61701,-13.25 0.0113,-0.4125 -3.91696,-0.73245 -8.72946,-0.71101 -17.60553,0.0785 -313.820485,-5.21798 -316.040901,-5.65093 -10.556956,-2.05843 12.393188,-2.38803 166.281731,-2.38803 h 167.37279 l 35.31819,-37.800729 c 19.425,-20.7904 35.45889,-37.4683 35.63086,-37.062 0.23331,0.55125 -12.81003,51.929469 -18.43132,72.601669 l -0.60883,2.23893 41.86374,0.26107 41.86374,0.26106 -48.5,24.60486 -48.5,24.60485 -6.21839,22.39515 c -3.42011,12.31733 -7.86873,28.35764 -9.88582,35.64514 -2.01709,7.2875 -4.05631,13.25 -4.53161,13.25 -0.4753,0 -0.86235,-0.3375 -0.86012,-0.75 z m 49.54991,-95.33831 c 13.17032,-7.19857 24.37353,-13.49857 24.89603,-14 0.57348,-0.55036 -6.16416,-0.91605 -17,-0.9227 -9.8725,-0.006 -19.55933,-0.27724 -21.5263,-0.60265 l -3.5763,-0.59165 -3.6737,13.9456 c -3.64032,13.8189 -3.95849,15.25974 -3.36973,15.25974 0.16719,0 11.07969,-5.88974 24.25,-13.08831 z M 466.8314,105.24576 c 2.07328,-9.624997 3.66678,-17.848959 3.54112,-18.275469 -0.18396,-0.62437 -27.34881,23.786429 -37.7115,33.888199 l -2.5,2.43705 16.45039,-0.27489 16.45039,-0.27489 z"
     id="path825"
     inkscape:connector-curvature="0" />
</svg>
