<?xml version="1.0" encoding="UTF-8" standalone="no"?>
<!-- Created with Inkscape (http://www.inkscape.org/) -->

<svg
   xmlns:dc="http://purl.org/dc/elements/1.1/"
   xmlns:cc="http://creativecommons.org/ns#"
   xmlns:rdf="http://www.w3.org/1999/02/22-rdf-syntax-ns#"
   xmlns:svg="http://www.w3.org/2000/svg"
   xmlns="http://www.w3.org/2000/svg"
   xmlns:sodipodi="http://sodipodi.sourceforge.net/DTD/sodipodi-0.dtd"
   xmlns:inkscape="http://www.inkscape.org/namespaces/inkscape"
   version="1.1"
   id="svg1986"
   width="68.26667"
   height="68.26667"
   viewBox="0 0 68.26667 68.26667"
   sodipodi:docname="Server.svg"
   inkscape:version="0.92.5 (2060ec1f9f, 2020-04-08)">
  <metadata
     id="metadata1992">
    <rdf:RDF>
      <cc:Work
         rdf:about="">
        <dc:format>image/svg+xml</dc:format>
        <dc:type
           rdf:resource="http://purl.org/dc/dcmitype/StillImage" />
        <dc:title></dc:title>
      </cc:Work>
    </rdf:RDF>
  </metadata>
  <defs
     id="defs1990" />
  <sodipodi:namedview
     pagecolor="#ffffff"
     bordercolor="#666666"
     borderopacity="1"
     objecttolerance="10"
     gridtolerance="10"
     guidetolerance="10"
     inkscape:pageopacity="0"
     inkscape:pageshadow="2"
     inkscape:window-width="3000"
     inkscape:window-height="1859"
     id="namedview1988"
     showgrid="false"
     inkscape:zoom="13.828124"
     inkscape:cx="43.806886"
     inkscape:cy="45.612061"
     inkscape:window-x="-13"
     inkscape:window-y="-13"
     inkscape:window-maximized="1"
     inkscape:current-layer="svg1986" />
  <path
     style="fill:#ffffff;stroke-width:0.0321949"
     d="M 15.982548,56.367631 C 15.248135,56.227687 14.531422,55.78138 14.077491,55.181326 13.82751,54.850873 13.560812,54.288433 13.465426,53.890543 l -0.07129,-0.297387 v -2.957344 c 0,-2.697565 0.0048,-2.9769 0.05435,-3.179965 0.144231,-0.590766 0.406613,-1.104134 0.779005,-1.524169 l 0.22369,-0.252311 -0.223689,-0.252309 c -0.372392,-0.420035 -0.634774,-0.933403 -0.779006,-1.524169 -0.04958,-0.203065 -0.05435,-0.4824 -0.05435,-3.179965 0,-2.697563 0.0048,-2.9769 0.05435,-3.179965 0.144232,-0.590766 0.406614,-1.104132 0.779006,-1.52417 l 0.223689,-0.252308 -0.223689,-0.252309 c -0.372392,-0.420037 -0.634774,-0.933404 -0.779006,-1.524169 -0.0503,-0.206008 -0.05435,-0.569072 -0.05435,-4.865157 0,-5.126057 -0.01188,-4.794964 0.196245,-5.468609 0.101517,-0.328586 3.902472,-8.355038 4.130968,-8.723341 0.478356,-0.771042 1.284673,-1.306141 2.161813,-1.434651 0.344766,-0.05051 27.425018,-0.05051 27.769784,0 0.877139,0.12851 1.683457,0.663609 2.161812,1.434651 0.228499,0.368303 4.02945,8.394755 4.130968,8.723341 0.208128,0.673645 0.196246,0.342552 0.196246,5.468609 0,4.296085 -0.004,4.659149 -0.05435,4.865157 -0.14423,0.590765 -0.406612,1.104132 -0.779004,1.524169 l -0.22369,0.252309 0.22369,0.252308 c 0.372392,0.420038 0.634774,0.933404 0.779004,1.52417 0.04958,0.203065 0.05435,0.482402 0.05435,3.179965 0,2.697565 -0.0048,2.9769 -0.05435,3.179965 -0.144277,0.590957 -0.406609,1.104131 -0.779353,1.524563 l -0.224038,0.252702 0.211871,0.236581 c 0.368386,0.411355 0.619216,0.887927 0.776354,1.47507 0.06676,0.249462 0.06804,0.299671 0.07816,3.06227 0.0071,1.919829 -6.9e-4,2.896116 -0.02435,3.085039 -0.178826,1.427152 -1.234851,2.580183 -2.591309,2.829356 -0.239932,0.04407 -2.304692,0.04951 -17.794531,0.04688 -14.589385,-0.0025 -17.562411,-0.01048 -17.757868,-0.04772 z m 35.358228,-1.637966 c 0.585664,-0.128652 1.091646,-0.661642 1.21378,-1.278567 0.04832,-0.244076 0.04832,-5.386498 0,-5.630573 -0.122592,-0.619241 -0.625917,-1.149432 -1.21378,-1.278568 -0.236861,-0.05203 -34.908588,-0.05203 -35.14545,0 -0.587865,0.129136 -1.09119,0.659327 -1.213782,1.278568 -0.04832,0.244075 -0.04832,5.386497 0,5.630573 0.119156,0.601884 0.598942,1.122704 1.168256,1.268168 0.220761,0.05641 34.934835,0.06667 35.190976,0.0104 z m -4.554749,-1.635213 c -0.549123,-0.105843 -0.926315,-0.302908 -1.304946,-0.681769 -0.490393,-0.490688 -0.717668,-1.053396 -0.717668,-1.776871 0,-0.214789 0.01884,-0.457976 0.04335,-0.559365 0.299015,-1.237225 1.401138,-2.050977 2.567424,-1.895658 0.920867,0.122633 1.650645,0.757133 1.959773,1.703916 0.09266,0.283793 0.0996,0.336077 0.0996,0.751107 0,0.414213 -0.0071,0.467672 -0.09872,0.748353 -0.137057,0.419665 -0.323699,0.732777 -0.606842,1.018043 -0.319163,0.321555 -0.658343,0.524313 -1.079334,0.645211 -0.135745,0.03898 -0.734924,0.07165 -0.862638,0.04703 z m 0.736667,-1.532387 c 0.602912,-0.310518 0.738496,-1.153527 0.265636,-1.651626 -0.610716,-0.64331 -1.661044,-0.186477 -1.661044,0.722458 0,0.44421 0.248202,0.817245 0.651294,0.978875 0.182952,0.07335 0.553189,0.04863 0.744114,-0.0497 z m -28.934372,0.669156 c -0.185179,-0.06889 -0.387595,-0.287276 -0.452628,-0.488325 -0.07687,-0.237655 -0.07687,-1.976514 0,-2.214169 0.09858,-0.304765 0.421409,-0.545064 0.732263,-0.545064 0.310854,0 0.633681,0.240299 0.732263,0.545064 0.07687,0.237655 0.07687,1.976514 0,2.214169 -0.135775,0.419748 -0.597425,0.642533 -1.011898,0.488325 z m 3.921078,0 c -0.185181,-0.06889 -0.387596,-0.287276 -0.452629,-0.488325 -0.07687,-0.237655 -0.07687,-1.976514 0,-2.214169 0.09858,-0.304765 0.42141,-0.545064 0.732264,-0.545064 0.310853,0 0.633681,0.240299 0.732262,0.545064 0.07687,0.237655 0.07687,1.976514 0,2.214169 -0.135775,0.419748 -0.597425,0.642533 -1.011897,0.488325 z m 3.921077,0 c -0.18518,-0.06889 -0.387595,-0.287276 -0.452628,-0.488325 -0.07687,-0.237655 -0.07687,-1.976514 0,-2.214169 0.09858,-0.304765 0.421409,-0.545064 0.732263,-0.545064 0.310853,0 0.63368,0.240299 0.732263,0.545064 0.07687,0.237655 0.07687,1.976514 0,2.214169 -0.135776,0.419748 -0.597426,0.642533 -1.011898,0.488325 z m 3.921077,0 c -0.18518,-0.06889 -0.387595,-0.287276 -0.452628,-0.488325 -0.07687,-0.237655 -0.07687,-1.976514 0,-2.214169 0.09858,-0.304765 0.421409,-0.545064 0.732263,-0.545064 0.310854,0 0.633681,0.240299 0.732263,0.545064 0.07687,0.237655 0.07687,1.976514 0,2.214169 -0.135775,0.419748 -0.597425,0.642533 -1.011898,0.488325 z m 3.921078,0 c -0.185181,-0.06889 -0.387596,-0.287276 -0.452629,-0.488325 -0.07687,-0.237655 -0.07687,-1.976514 0,-2.214169 0.09858,-0.304765 0.421409,-0.545064 0.732263,-0.545064 0.310854,0 0.633681,0.240299 0.732263,0.545064 0.07687,0.237655 0.07687,1.976514 0,2.214169 -0.135775,0.419748 -0.597425,0.642533 -1.011897,0.488325 z m 3.136861,-0.826074 c -0.27672,-0.102955 -0.50458,-0.450375 -0.50458,-0.769335 0,-0.199577 0.09358,-0.430746 0.234439,-0.579121 0.244243,-0.257283 0.122862,-0.246954 2.902422,-0.246954 2.779561,0 2.65818,-0.01033 2.902422,0.246954 0.306836,0.323212 0.306836,0.835028 0,1.158241 -0.244621,0.257679 -0.120562,0.247284 -2.915852,0.244346 -2.162225,-0.0022 -2.498137,-0.0092 -2.618851,-0.05413 z m 13.931283,-6.588369 c 0.585664,-0.128653 1.091646,-0.661642 1.21378,-1.278568 0.04832,-0.244074 0.04832,-5.386497 0,-5.630571 -0.122592,-0.619244 -0.625917,-1.149433 -1.21378,-1.278569 -0.236861,-0.05203 -34.908588,-0.05203 -35.14545,0 -0.587865,0.129136 -1.09119,0.659325 -1.213782,1.278569 -0.04832,0.244074 -0.04832,5.386497 0,5.630571 0.119156,0.601884 0.598942,1.122704 1.168256,1.26817 0.220761,0.05641 34.934835,0.06666 35.190976,0.0104 z m -4.554749,-1.635213 c -0.549123,-0.105844 -0.926315,-0.302909 -1.304946,-0.681769 -0.490393,-0.490688 -0.717668,-1.053397 -0.717668,-1.776872 0,-0.21479 0.01884,-0.457975 0.04335,-0.559362 0.299015,-1.237225 1.401138,-2.05098 2.567424,-1.895662 0.920867,0.122636 1.650645,0.757136 1.959773,1.703916 0.09266,0.283796 0.0996,0.336079 0.0996,0.751108 0,0.414213 -0.0071,0.467674 -0.09872,0.748354 -0.137057,0.419665 -0.323699,0.732777 -0.606842,1.018044 -0.319163,0.321553 -0.658343,0.524311 -1.079334,0.645209 -0.135745,0.03898 -0.734924,0.07165 -0.862638,0.04703 z m 0.705794,-1.56249 c 0.231842,-0.117129 0.363355,-0.259448 0.472731,-0.51158 0.163224,-0.376257 0.05789,-0.849254 -0.253405,-1.137892 -0.24944,-0.231286 -0.611455,-0.301377 -0.943059,-0.182591 -0.210239,0.07532 -0.485367,0.365125 -0.556862,0.586587 -0.271904,0.842235 0.531716,1.623815 1.280595,1.245476 z m -28.903499,0.699259 c -0.185179,-0.0689 -0.387595,-0.287275 -0.452628,-0.488325 -0.07687,-0.237655 -0.07687,-1.976516 0,-2.214168 0.09858,-0.304767 0.421409,-0.545064 0.732263,-0.545064 0.310854,0 0.633681,0.240297 0.732263,0.545064 0.07687,0.237652 0.07687,1.976513 0,2.214168 -0.135775,0.419748 -0.597425,0.642533 -1.011898,0.488325 z m 3.921078,0 c -0.185181,-0.0689 -0.387596,-0.287275 -0.452629,-0.488325 -0.07687,-0.237655 -0.07687,-1.976516 0,-2.214168 0.09858,-0.304767 0.42141,-0.545064 0.732264,-0.545064 0.310853,0 0.633681,0.240297 0.732262,0.545064 0.07687,0.237652 0.07687,1.976513 0,2.214168 -0.135775,0.419748 -0.597425,0.642533 -1.011897,0.488325 z m 3.921077,0 c -0.18518,-0.0689 -0.387595,-0.287275 -0.452628,-0.488325 -0.07687,-0.237655 -0.07687,-1.976516 0,-2.214168 0.09858,-0.304767 0.421409,-0.545064 0.732263,-0.545064 0.310853,0 0.63368,0.240297 0.732263,0.545064 0.07687,0.237652 0.07687,1.976513 0,2.214168 -0.135776,0.419748 -0.597426,0.642533 -1.011898,0.488325 z m 3.921077,0 c -0.18518,-0.0689 -0.387595,-0.287275 -0.452628,-0.488325 -0.07687,-0.237655 -0.07687,-1.976516 0,-2.214168 0.09858,-0.304767 0.421409,-0.545064 0.732263,-0.545064 0.310854,0 0.633681,0.240297 0.732263,0.545064 0.07687,0.237652 0.07687,1.976513 0,2.214168 -0.135775,0.419748 -0.597425,0.642533 -1.011898,0.488325 z m 3.921078,0 c -0.185181,-0.0689 -0.387596,-0.287275 -0.452629,-0.488325 -0.07687,-0.237655 -0.07687,-1.976516 0,-2.214168 0.09858,-0.304767 0.421409,-0.545064 0.732263,-0.545064 0.310854,0 0.633681,0.240297 0.732263,0.545064 0.07687,0.237652 0.07687,1.976513 0,2.214168 -0.135775,0.419748 -0.597425,0.642533 -1.011897,0.488325 z m 3.136861,-0.826075 c -0.27672,-0.102955 -0.50458,-0.450374 -0.50458,-0.769335 0,-0.199576 0.09358,-0.430745 0.234439,-0.579122 0.244243,-0.257279 0.122862,-0.246952 2.902422,-0.246952 2.779561,0 2.65818,-0.01032 2.902422,0.246952 0.306836,0.323212 0.306836,0.835032 0,1.158244 -0.244621,0.257678 -0.120562,0.247282 -2.915852,0.244343 -2.162225,-0.0022 -2.498137,-0.0092 -2.618851,-0.05413 z m 13.931283,-6.588367 c 0.585664,-0.128652 1.091646,-0.661644 1.21378,-1.278569 0.024,-0.121232 0.03467,-1.216584 0.03467,-3.560379 V 26.679668 H 33.768051 14.94688 v 3.385276 c 0,2.343795 0.01067,3.439147 0.03466,3.560379 0.119156,0.601884 0.598942,1.122703 1.168256,1.268169 0.220761,0.05641 34.934835,0.06666 35.190976,0.0104 z m -4.554749,-1.635215 c -0.549123,-0.105843 -0.926315,-0.302906 -1.304946,-0.681768 -0.490393,-0.490688 -0.717668,-1.053396 -0.717668,-1.776872 0,-0.21479 0.01884,-0.457976 0.04335,-0.559363 0.299015,-1.237225 1.401138,-2.050978 2.567424,-1.89566 0.920867,0.122634 1.650645,0.757135 1.959773,1.703916 0.09266,0.283795 0.0996,0.336078 0.0996,0.751107 0,0.414214 -0.0071,0.467674 -0.09872,0.748355 -0.137057,0.419662 -0.323699,0.732777 -0.606842,1.018043 -0.319163,0.321554 -0.658343,0.52431 -1.079334,0.645208 -0.135745,0.03899 -0.734924,0.07165 -0.862638,0.04703 z m 0.69011,-1.552287 c 0.214693,-0.104891 0.357756,-0.246579 0.464735,-0.460273 0.07031,-0.14044 0.08283,-0.207332 0.08346,-0.44608 8.83e-4,-0.341275 -0.07505,-0.526752 -0.304887,-0.744425 -0.374745,-0.354913 -0.917576,-0.334537 -1.2808,0.04808 -0.20069,0.211403 -0.279908,0.407634 -0.280146,0.693976 -5.97e-4,0.713589 0.711638,1.204796 1.317635,0.908727 z m -28.887815,0.689057 c -0.185179,-0.06889 -0.387595,-0.287277 -0.452628,-0.488327 -0.07687,-0.237652 -0.07687,-1.976514 0,-2.214166 0.09858,-0.304766 0.421409,-0.545065 0.732263,-0.545065 0.310854,0 0.633681,0.240299 0.732263,0.545065 0.07687,0.237652 0.07687,1.976514 0,2.214166 -0.135775,0.419749 -0.597425,0.642534 -1.011898,0.488327 z m 3.921078,0 c -0.185181,-0.06889 -0.387596,-0.287277 -0.452629,-0.488327 -0.07687,-0.237652 -0.07687,-1.976514 0,-2.214166 0.09858,-0.304766 0.42141,-0.545065 0.732264,-0.545065 0.310853,0 0.633681,0.240299 0.732262,0.545065 0.07687,0.237652 0.07687,1.976514 0,2.214166 -0.135775,0.419749 -0.597425,0.642534 -1.011897,0.488327 z m 3.921077,0 c -0.18518,-0.06889 -0.387595,-0.287277 -0.452628,-0.488327 -0.07687,-0.237652 -0.07687,-1.976514 0,-2.214166 0.09858,-0.304766 0.421409,-0.545065 0.732263,-0.545065 0.310853,0 0.63368,0.240299 0.732263,0.545065 0.07687,0.237652 0.07687,1.976514 0,2.214166 -0.135776,0.419749 -0.597426,0.642534 -1.011898,0.488327 z m 3.921077,0 c -0.18518,-0.06889 -0.387595,-0.287277 -0.452628,-0.488327 -0.07687,-0.237652 -0.07687,-1.976514 0,-2.214166 0.09858,-0.304766 0.421409,-0.545065 0.732263,-0.545065 0.310854,0 0.633681,0.240299 0.732263,0.545065 0.07687,0.237652 0.07687,1.976514 0,2.214166 -0.135775,0.419749 -0.597425,0.642534 -1.011898,0.488327 z m 3.921078,0 c -0.185181,-0.06889 -0.387596,-0.287277 -0.452629,-0.488327 -0.07687,-0.237652 -0.07687,-1.976514 0,-2.214166 0.09858,-0.304766 0.421409,-0.545065 0.732263,-0.545065 0.310854,0 0.633681,0.240299 0.732263,0.545065 0.07687,0.237652 0.07687,1.976514 0,2.214166 -0.135775,0.419749 -0.597425,0.642534 -1.011897,0.488327 z m 3.136861,-0.826074 c -0.27672,-0.102956 -0.50458,-0.450375 -0.50458,-0.769336 0,-0.199576 0.09358,-0.430745 0.234439,-0.579121 0.244243,-0.257281 0.122862,-0.246953 2.902422,-0.246953 2.779561,0 2.65818,-0.01033 2.902422,0.246953 0.306836,0.323212 0.306836,0.83503 0,1.158242 -0.244621,0.257681 -0.120562,0.247284 -2.915852,0.244345 -2.162225,-0.0022 -2.498137,-0.0092 -2.618851,-0.05413 z m 15.169352,-6.791415 c -0.01077,-0.131758 -0.0407,-0.328777 -0.06651,-0.437819 -0.03005,-0.126977 -0.758029,-1.698641 -2.024775,-4.371381 -1.965345,-4.146726 -1.97909,-4.17442 -2.173419,-4.378191 -0.212654,-0.222991 -0.435462,-0.356413 -0.726967,-0.435325 -0.166502,-0.04507 -1.678686,-0.05061 -13.819128,-0.05061 -12.135674,0 -13.652693,0.0056 -13.819128,0.05057 -0.293614,0.07942 -0.508504,0.20624 -0.720539,0.425238 -0.195751,0.20218 -0.197195,0.205088 -2.176792,4.381878 -1.26879,2.677045 -1.997778,4.250835 -2.027833,4.377821 -0.0258,0.109042 -0.05573,0.30606 -0.06651,0.437819 l -0.01958,0.239561 H 33.768051 52.598429 Z M 20.156754,18.36219 c -0.276722,-0.102956 -0.504581,-0.450375 -0.504581,-0.769336 0,-0.327445 0.228122,-0.667504 0.517445,-0.771348 0.140704,-0.0505 0.948124,-0.05472 10.461571,-0.05472 11.565578,0 10.486595,-0.0248 10.744577,0.246953 0.306835,0.323212 0.306835,0.835031 0,1.158243 -0.258061,0.271836 0.823476,0.247271 -10.758008,0.244344 -9.265567,-0.0023 -10.336707,-0.0079 -10.461004,-0.05413 z m 23.526462,0 c -0.276718,-0.102956 -0.50458,-0.450375 -0.50458,-0.769336 0,-0.199576 0.09358,-0.430745 0.23444,-0.579121 0.236918,-0.249563 0.21453,-0.246953 2.118206,-0.246953 1.903677,0 1.88129,-0.0026 2.118208,0.246953 0.306835,0.323212 0.306835,0.835031 0,1.158243 -0.237502,0.250179 -0.212344,0.247296 -2.131636,0.244343 -1.4518,-0.0022 -1.716111,-0.01003 -1.834638,-0.05412 z"
     id="path2541"
     inkscape:connector-curvature="0" />
</svg>
