<?xml version="1.0" encoding="UTF-8" standalone="no"?>
<!-- Created with Inkscape (http://www.inkscape.org/) -->

<svg
   xmlns:dc="http://purl.org/dc/elements/1.1/"
   xmlns:cc="http://creativecommons.org/ns#"
   xmlns:rdf="http://www.w3.org/1999/02/22-rdf-syntax-ns#"
   xmlns:svg="http://www.w3.org/2000/svg"
   xmlns="http://www.w3.org/2000/svg"
   xmlns:sodipodi="http://sodipodi.sourceforge.net/DTD/sodipodi-0.dtd"
   xmlns:inkscape="http://www.inkscape.org/namespaces/inkscape"
   version="1.1"
   id="svg1937"
   width="2560"
   height="2560"
   viewBox="0 0 2560 2560"
   sodipodi:docname="socials_discord.svg"
   inkscape:version="0.92.5 (2060ec1f9f, 2020-04-08)">
  <metadata
     id="metadata1943">
    <rdf:RDF>
      <cc:Work
         rdf:about="">
        <dc:format>image/svg+xml</dc:format>
        <dc:type
           rdf:resource="http://purl.org/dc/dcmitype/StillImage" />
        <dc:title></dc:title>
      </cc:Work>
    </rdf:RDF>
  </metadata>
  <defs
     id="defs1941" />
  <sodipodi:namedview
     pagecolor="#ffffff"
     bordercolor="#666666"
     borderopacity="1"
     objecttolerance="10"
     gridtolerance="10"
     guidetolerance="10"
     inkscape:pageopacity="0"
     inkscape:pageshadow="2"
     inkscape:window-width="3000"
     inkscape:window-height="1859"
     id="namedview1939"
     showgrid="false"
     inkscape:zoom="0.36875"
     inkscape:cx="1402.1666"
     inkscape:cy="759.07177"
     inkscape:window-x="-13"
     inkscape:window-y="-13"
     inkscape:window-maximized="1"
     inkscape:current-layer="svg1937" />
  <path
     style="fill:#553c9a;stroke-width:1.33333337;fill-opacity:1"
     d="m 2251.0287,2470.7627 c -1.6342,-0.4195 -6.5816,-3.9459 -10.9943,-7.8364 -4.4128,-3.8904 -10.8757,-9.2348 -14.3621,-11.8763 -3.4864,-2.6415 -6.639,-5.1997 -7.0056,-5.6852 -1.1838,-1.5671 -20.4816,-17.9348 -26.6667,-22.6177 -3.3,-2.4984 -6.6,-5.2206 -7.3333,-6.0491 -0.7334,-0.8285 -8.8334,-7.7176 -18,-15.3093 -9.1667,-7.5916 -16.9667,-14.1646 -17.3334,-14.6067 -0.3666,-0.442 -7.8666,-6.7677 -16.6666,-14.0572 -8.8,-7.2895 -16.3,-13.5883 -16.6667,-13.9975 -0.3667,-0.4092 -4.5667,-4.0401 -9.3333,-8.0689 -4.7667,-4.0288 -9.2667,-7.9701 -10,-8.7587 -0.7334,-0.7884 -8.2334,-7.1902 -16.6667,-14.2261 -8.4333,-7.0359 -21.0333,-17.6752 -28,-23.6428 -6.9667,-5.9676 -15.6392,-13.3659 -19.2723,-16.4405 -3.633,-3.0747 -7.5348,-6.4903 -8.6706,-7.5903 -1.1359,-1.1 -9.2075,-7.9441 -17.937,-15.2091 -8.7293,-7.2649 -16.8869,-14.1649 -18.1278,-15.3333 -6.179,-5.8175 -13.8163,-12.5135 -25.281,-22.1651 -6.9421,-5.8442 -14.1421,-12.056 -16,-13.8038 -1.8578,-1.748 -7.578,-6.7948 -12.7113,-11.2152 -5.1333,-4.4204 -9.6333,-8.394 -10,-8.8303 -0.3667,-0.4363 -4.5667,-4.0676 -9.3333,-8.0696 -4.7667,-4.0021 -14.0667,-12.1127 -20.6667,-18.0235 -6.6,-5.9108 -15.8791,-14.0325 -20.6201,-18.0485 -4.7411,-4.0159 -9.5702,-8.2016 -10.7315,-9.3016 -1.1612,-1.1 -6.2183,-5.6 -11.2379,-10 -5.0197,-4.4 -9.7905,-8.6315 -10.602,-9.4033 -1.3329,-1.2682 -10.298,-9.137 -35.4104,-31.0803 -4.731,-4.134 -9.5424,-8.4164 -10.6918,-9.5164 -1.1494,-1.1 -7.7498,-6.8 -14.6674,-12.6667 -6.9176,-5.8666 -13.5414,-11.5666 -14.7196,-12.6666 -8.4772,-7.915 -19.2341,-16.6667 -20.4852,-16.6667 -2.6317,0 -2.4008,9.4028 0.4287,17.4532 1.5055,4.2832 2.7636,9.0085 2.7957,10.5005 0.032,1.4922 0.9563,5.113 2.0535,8.0463 1.0972,2.9333 3.1848,9.5333 4.6389,14.6667 1.4542,5.1333 3.8302,13.3833 5.2799,18.3333 1.4497,4.95 3.7841,13.05 5.1875,18 1.4034,4.95 3.18,10.8 3.9478,13 0.7679,2.2 2.933,9.4 4.8111,16 5.2275,18.3695 8.6388,29.8828 11.4568,38.6667 1.4116,4.4 2.5664,9.0476 2.5663,10.328 -2e-4,1.2804 1.2652,5.9849 2.812,10.4544 2.0506,5.9256 2.4138,8.5248 1.341,9.5976 -2.0184,2.0184 -25.6282,3.0724 -110.82,4.947 -52.5789,1.1571 -208.3048,1.4539 -563.3333,1.074 -431.09632,-0.4612 -497.87015,-0.8 -550,-2.7906 -34.70693,-1.3254 -64.31395,-3.0838 -71.33333,-4.2367 -6.6,-1.084 -15,-2.3407 -18.66667,-2.7925 -11.27951,-1.39 -23.20648,-5.7172 -42.66667,-15.4795 -27.16822,-13.6291 -40.3133,-23.2663 -63.33333,-46.4323 -10.37564,-10.4414 -25.73887,-29.22 -29.49111,-36.047 -1.18677,-2.1594 -2.77166,-4.6828 -3.522,-5.6076 -0.75032,-0.9248 -3.86869,-6.4815 -6.9297,-12.3482 -17.09126,-32.7568 -18.3878,-42.8217 -22.7579,-176.6666 -0.70413,-21.5658 -1.24601,-286.8196 -1.25297,-613.3334 -0.0143,-667.64547 1.08245,-779.4345 7.84456,-799.62962 1.41872,-4.23703 2.95845,-9.59508 3.42164,-11.90679 0.46319,-2.3117 2.00735,-6.48857 3.43148,-9.28192 1.42413,-2.79334 2.58933,-5.71853 2.58933,-6.50041 0,-1.48607 8.87131,-19.29863 13.62027,-27.34789 11.41813,-19.35326 24.61041,-35.13194 44.34743,-53.04192 16.59736,-15.06096 33.72238,-26.30344 56.0323,-36.7849 4.4,-2.06717 9.5,-4.53252 11.33334,-5.47854 1.83333,-0.94604 5.43333,-2.15863 8,-2.69464 2.56666,-0.53602 6.16666,-1.76171 8,-2.72378 1.83333,-0.96206 9.03333,-3.05852 16,-4.6588 11.54957,-2.653 18.07573,-3.00673 74,-4.01094 C 590.4,348.66741 653.1,347.38315 696,346.41924 c 111.33693,-2.50161 1067.3887,-2.49835 1188,0.004 163.3163,3.38844 187.2145,4.09479 192.6667,5.69457 2.9333,0.86071 8.6333,2.32024 12.6666,3.24339 4.0334,0.92316 11.5334,3.29213 16.6667,5.26441 5.1333,1.97227 11.4333,4.39348 14,5.38047 5.8565,2.25208 21.8279,10.53363 28,14.51876 12.5532,8.10512 16.7569,10.97155 18.7844,12.80843 1.214,1.1 4.8185,4.1 8.0099,6.66666 15.3685,12.36003 33.0432,31.70143 42.7762,46.81024 8.7866,13.63928 9.7143,15.23107 15.4599,26.5231 7.7423,15.21649 10.2916,22.26936 16.8675,46.66666 7.026,26.0673 7.8038,154.3846 6.8044,1122.58587 -0.4688,454.2556 -1.2687,826.5988 -1.7774,827.4293 -0.5086,0.8307 -2.262,1.167 -3.8962,0.7475 z M 973.58012,1740.18 c 10.72363,-4.5967 39.06228,-35.3988 68.86058,-74.8467 4.4546,-5.897 4.8117,-9.2046 1.3875,-12.8494 -2.7093,-2.884 -17.9134,-10.8196 -39.1615,-20.4402 -3.6667,-1.6601 -11.4667,-5.2766 -17.33337,-8.0365 -5.86666,-2.76 -12.16666,-5.6972 -14,-6.5269 -4.72384,-2.1383 -22.23936,-11.964 -31.16074,-17.4803 -18.66279,-11.5397 -66.95371,-50.9908 -65.43139,-53.4539 1.13628,-1.8385 8.39764,-1.4509 12.38641,0.6612 1.94648,1.0307 6.98906,3.4307 11.20572,5.3334 4.21667,1.9026 11.11667,5.016 15.33334,6.9186 4.21666,1.9027 9.16666,4.2274 11,5.1659 1.83333,0.9387 10.53333,4.8389 19.33333,8.6673 8.8,3.8283 18.43944,8.1036 21.42096,9.5007 2.98153,1.3971 6.39613,2.5401 7.58799,2.5401 1.19185,0 2.50948,0.5542 2.92805,1.2314 0.41856,0.6773 3.90397,2.2566 7.74535,3.5098 3.84137,1.2531 7.58432,2.7247 8.31765,3.2704 0.73333,0.5456 4.33333,1.9132 8,3.0391 3.6667,1.1259 10.8667,3.6457 16,5.5995 5.1333,1.9538 12.3743,4.3274 16.091,5.2745 3.7167,0.9472 7.9167,2.3348 9.3333,3.0836 1.4167,0.7488 6.1757,2.3243 10.5757,3.5009 4.4,1.1768 13.4,3.6764 20,5.5548 6.6,1.8784 15.6,4.2247 20,5.214 4.4,0.9892 12.2,2.777 17.3333,3.9727 25.5792,5.9585 32.5392,7.4177 35.4726,7.4369 1.7568,0.013 8.5941,1.1482 15.1941,2.5259 6.6,1.3779 17.1,2.9336 23.3333,3.4573 6.2334,0.5238 16.1334,1.79 22,2.8138 5.8667,1.0238 28.7334,2.5512 50.8148,3.3941 44.805,1.7104 106.9191,0.035 127.2191,-3.4312 6.2147,-1.0612 17.6588,-2.5515 25.4313,-3.3116 7.7727,-0.7601 15.6667,-1.9655 17.5424,-2.6787 1.8758,-0.7132 7.2164,-1.6797 11.868,-2.1481 4.6518,-0.4683 12.6578,-1.9491 17.7911,-3.2908 5.1333,-1.3416 12.3333,-3.0137 16,-3.7156 12.9127,-2.4719 41.7747,-10.4043 66.6667,-18.3225 3.6666,-1.1664 9.3666,-2.9575 12.6666,-3.9802 11.6516,-3.6108 19.4004,-6.2388 25.3334,-8.5916 3.3,-1.3086 8.1,-3.1248 10.6666,-4.0357 12.0683,-4.2831 15.7186,-5.7107 20.7543,-8.1163 2.9816,-1.4244 6.3961,-2.5897 7.588,-2.5897 1.1919,0 2.5108,-0.5563 2.9309,-1.236 0.4202,-0.6799 3.0056,-1.9668 5.7454,-2.8599 6.6772,-2.1764 22.704,-9.623 51.6481,-23.9977 13.2,-6.5556 24.9859,-11.9164 26.1907,-11.9128 7.0342,0.02 -1.0734,9.6156 -21.524,25.4724 -4.0334,3.1273 -7.6334,6.0407 -8,6.4741 -0.3667,0.4335 -2.1667,1.7999 -4,3.0366 -1.8334,1.2365 -6.6334,4.6618 -10.6667,7.6118 -11.6288,8.5052 -26.2409,18.1502 -32,21.122 -1.8333,0.9462 -5.7333,3.1864 -8.6667,4.9784 -2.9333,1.792 -6.8333,3.9347 -8.6666,4.7615 -1.8334,0.8268 -4.5334,2.1491 -6,2.9384 -2.9904,1.6093 -7.809,3.9032 -16.6667,7.9339 -13.2497,6.0293 -13.5132,6.1344 -31,12.3621 -3.1167,1.11 -7.2592,2.91 -9.2057,4 -1.9466,1.09 -4.4064,1.9819 -5.4667,1.9819 -1.0601,0 -4.4717,1.843 -7.5815,4.0957 -4.836,3.5031 -5.5293,4.5915 -4.7934,7.5236 0.7182,2.8621 27.1546,36.7799 31.9932,41.0473 0.8314,0.7334 7.263,8.2334 14.2922,16.6667 7.0292,8.4333 14.6003,17.0468 16.8247,19.1411 l 4.0443,3.8077 26.4465,-0.6201 c 24.0631,-0.5644 40.3515,-2.2842 61.7797,-6.5231 13.4762,-2.6659 28.6252,-6.198 32.6667,-7.6167 2.2,-0.7722 10.3,-3.3502 18,-5.7288 7.7,-2.3785 15.5,-5.1014 17.3333,-6.0508 1.8334,-0.9494 4.0108,-1.73 4.839,-1.7344 0.828,0 5.028,-1.5536 9.3333,-3.4422 4.3052,-1.8887 10.1531,-4.4387 12.9951,-5.6667 10.8302,-4.6795 41.1313,-20.274 44.4198,-22.8608 1.8915,-1.4879 3.9826,-2.7052 4.6467,-2.7052 0.664,0 2.8332,-1.1207 4.8201,-2.4904 1.987,-1.3697 8.9271,-6.0197 15.4224,-10.3333 14.4455,-9.5935 17.1172,-11.4468 18.9791,-13.1659 0.8005,-0.7391 3.4721,-2.8437 5.9368,-4.6771 14.0937,-10.4834 58.3173,-53.3706 62.1447,-60.2669 3.0977,-5.5815 1.436,-102.2611 -2.0707,-120.4695 -0.7135,-3.7049 -1.9787,-14.5049 -2.8116,-24 -0.8329,-9.4949 -2.3109,-20.8636 -3.2844,-25.2636 -0.9736,-4.4 -2.2041,-12.5 -2.7347,-18 -0.5304,-5.5 -1.7425,-13 -2.6934,-16.6666 -0.951,-3.6667 -2.4134,-11.6732 -3.2498,-17.7923 -0.8362,-6.1192 -2.0965,-12.6405 -2.8005,-14.492 -0.7039,-1.8515 -1.8728,-7.6449 -2.5975,-12.8744 -0.7248,-5.2294 -1.92,-11.008 -2.6562,-12.8413 -0.7362,-1.8334 -2.2068,-7.8334 -3.268,-13.3334 -2.2044,-11.4236 -5.2178,-24.0275 -8.2883,-34.6666 -1.164,-4.0334 -2.8879,-10.6334 -3.8307,-14.6667 -2.3561,-10.0797 -4.5549,-18.2332 -6.8316,-25.3333 -1.0582,-3.3 -2.7401,-9.3 -3.7374,-13.3334 -0.9975,-4.0333 -2.7327,-9.7333 -3.856,-12.6666 -1.1234,-2.9334 -2.0688,-6.4427 -2.101,-7.7985 -0.032,-1.3559 -0.9545,-4.3559 -2.0497,-6.6667 -1.0951,-2.3108 -2.8508,-7.2015 -3.9016,-10.8682 -5.3235,-18.5771 -10.8775,-35.1974 -14.3065,-42.8127 -1.3571,-3.0136 -2.4674,-6.4476 -2.4674,-7.631 0,-1.1834 -1.1422,-4.7177 -2.5385,-7.8539 -1.3961,-3.1363 -4.1601,-10.2024 -6.1421,-15.7024 -4.1291,-11.4575 -7.8344,-20.8447 -11.4612,-29.0356 -1.3887,-3.1363 -2.5248,-6.3706 -2.5248,-7.1873 0,-0.8167 -1.1578,-3.9507 -2.5727,-6.9644 -6.314,-13.4479 -9.4273,-20.757 -9.4273,-22.1326 0,-0.8168 -1.1479,-3.704 -2.5508,-6.4159 -2.392,-4.6239 -4.9522,-10.1673 -12.1295,-26.2642 -8.2779,-18.5651 -21.9111,-44.7501 -26.362,-50.63275 -6.6368,-8.77172 -25.9379,-24.26778 -36.2911,-29.13655 -1.1,-0.51729 -4.7,-2.7084 -8,-4.86911 -3.3,-2.1607 -7.8,-4.88208 -10,-6.04749 -2.2,-1.16541 -8.8,-4.75848 -14.6666,-7.9846 -15.2272,-8.37357 -51.5259,-25.99613 -53.5464,-25.99613 -0.4555,0 -3.2939,-1.13444 -6.3076,-2.52098 -5.21,-2.39709 -17.557,-7.0699 -32.146,-12.16602 -3.6667,-1.2808 -8.7667,-3.0724 -11.3334,-3.98134 -11.0625,-3.91754 -50.7033,-14.38112 -65.3333,-17.24536 -23.3385,-4.5692 -57.4271,-9.42028 -66.1516,-9.41393 -6.3447,0.004 -8.9169,0.71467 -13.4252,3.70588 -7.1952,4.77404 -11.3875,10.16448 -10.8499,13.95068 0.3168,2.23116 1.9758,3.51913 6.4456,5.0044 3.3103,1.1 6.7562,2.48284 7.6574,3.07297 0.9012,0.59014 4.4928,1.89167 7.9812,2.89228 10.594,3.03878 19.3908,6.11983 25.1552,8.81048 3.0137,1.40668 6.4876,2.5576 7.7198,2.5576 1.2322,0 4.5926,1.2 7.4675,2.66667 2.8749,1.46667 6.0099,2.66667 6.9667,2.66667 0.9566,0 3.9784,1.2 6.7149,2.66666 2.7364,1.46667 5.7276,2.67215 6.6469,2.67886 0.9194,0.007 4.6715,1.48794 8.3382,3.29164 3.6666,1.80369 7.4006,3.29821 8.2976,3.32114 0.897,0.0229 4.497,1.30558 8,2.85032 3.503,1.54474 8.9326,3.91915 12.0658,5.27646 15.8204,6.85328 34.4035,15.93604 47.6366,23.28314 5.8666,3.25722 12.4666,6.87843 14.6666,8.04715 2.2,1.16873 7,3.85172 10.6667,5.96221 3.6667,2.1105 8.4667,4.78635 10.6667,5.94634 2.2,1.16 6.7,3.8746 10,6.03248 3.3,2.15786 7.2917,4.49842 8.8705,5.20125 1.5787,0.70283 3.2697,1.92396 3.7577,2.71364 0.4882,0.78968 2.9464,2.29607 5.463,3.34753 2.5165,1.05148 4.5754,2.54239 4.5754,3.31314 0,2.02733 -8.2762,1.72232 -11.37,-0.41903 -1.4465,-1.00123 -4.13,-2.2634 -5.9633,-2.80484 -1.8333,-0.54144 -5.7333,-2.07996 -8.6667,-3.41892 -16.746,-7.644 -20.6504,-9.28917 -22.045,-9.28917 -0.849,0 -3.136,-0.89184 -5.0826,-1.98187 -3.4585,-1.93676 -9.4372,-4.23359 -21.539,-8.27457 -3.3,-1.10192 -7.8,-2.80591 -10,-3.78666 -4.7428,-2.11429 -14.7402,-5.43437 -24,-7.97036 C 1577,931.64903 1571.3,929.93625 1568,928.84703 c -20.3888,-6.72968 -47.7779,-13.79011 -70,-18.04482 -4.4,-0.84244 -13.4,-2.69626 -20,-4.11961 -18.1323,-3.91037 -41.55,-7.86585 -52,-8.78331 -5.1333,-0.45068 -13.2333,-1.65353 -18,-2.673 -4.7667,-1.01948 -18.8667,-2.47514 -31.3333,-3.23482 -12.4667,-0.75967 -26.5667,-2.01654 -31.3334,-2.79302 -12.2151,-1.98985 -104.5092,-2.04972 -118,-0.0765 -5.8666,0.85807 -21.1108,2.15455 -33.8759,2.88107 -12.7651,0.72652 -28.3651,2.17354 -34.6667,3.21561 -6.3016,1.04205 -16.5574,2.27673 -22.7907,2.74373 -6.2333,0.46699 -14.9333,1.71056 -19.3333,2.76348 -4.4,1.05292 -13.1,2.5041 -19.3334,3.22482 -6.2333,0.72072 -14.2787,2.22666 -17.8785,3.34656 -3.5999,1.11989 -8.1239,2.03616 -10.0532,2.03616 -1.9294,0 -7.0841,0.96689 -11.4548,2.14865 -4.3707,1.18176 -11.5468,2.93828 -15.9468,3.90339 -4.4,0.9651 -11.6,2.73246 -16,3.92748 -15.4634,4.19974 -45.927,13.51892 -52.66667,16.11136 -2.56666,0.98728 -6.76666,2.38804 -9.33333,3.1128 -6.60988,1.86645 -21.45943,7.36641 -24.91235,9.22701 -1.60178,0.86312 -4.01066,1.56931 -5.35308,1.56931 -1.3424,0 -4.67966,1.2 -7.41614,2.66666 -2.7365,1.46667 -5.7276,2.67215 -6.64694,2.67886 -0.91932,0.007 -4.67149,1.48794 -8.33816,3.29164 -3.66666,1.80369 -7.41884,3.29821 -8.33816,3.32114 -0.91933,0.0229 -3.91044,1.2417 -6.64693,2.70836 -2.73648,1.46667 -5.71583,2.66667 -6.62077,2.66667 -0.90495,0 -3.91383,1.17961 -6.68642,2.62135 -5.74545,2.98764 -13.83652,4.0721 -14.59245,1.95586 -0.27953,-0.78254 2.65517,-3.41498 6.52159,-5.84988 3.8664,-2.43488 9.12981,-5.78689 11.69648,-7.4489 12.12428,-7.8509 47.73068,-27.2419 57.33333,-31.22334 1.83333,-0.76013 4.23333,-1.94278 5.33333,-2.6281 1.97723,-1.23187 13.07014,-6.35612 26,-12.01046 10.74375,-4.69832 14.24128,-6.25422 22,-9.78684 9.21747,-4.19677 20.99727,-9.07278 31.33337,-12.9697 8.7286,-3.2909 21.6898,-8.51522 28,-11.28606 11.0528,-4.85337 29.8931,-11.09812 42,-13.92124 13.6302,-3.17833 20.7985,-6.78334 20.213,-10.16542 -1.1699,-6.75736 -11.4396,-12.65818 -21.8266,-12.54112 -3.8792,0.0437 -10.0531,0.63114 -13.7198,1.3054 -3.6666,0.67424 -11.7666,1.89028 -18,2.70229 -6.2333,0.81201 -16.1333,2.57245 -22,3.91211 -5.8666,1.33964 -13.9204,2.82226 -17.8973,3.29473 -3.9768,0.47247 -8.3247,1.44457 -9.6619,2.16024 -1.3373,0.71567 -5.8835,1.91827 -10.1027,2.67243 -7.94764,1.4206 -14.37144,3.25776 -37.00473,10.58305 -7.33334,2.37344 -16.03334,5.16637 -19.33334,6.20652 -3.3,1.04015 -7.69862,2.75951 -9.77472,3.82079 -2.07609,1.06129 -4.47609,1.9351 -5.33333,1.94181 -0.85724,0.007 -4.55861,1.48795 -8.22528,3.29164 -3.66667,1.80369 -7.4478,3.29821 -8.40251,3.32115 -0.95472,0.0229 -3.95472,1.19516 -6.66666,2.60494 -2.71196,1.40978 -10.93083,5.34634 -18.26416,8.74788 -7.33334,3.40156 -14.23334,6.75246 -15.33334,7.44644 -1.1,0.69398 -3.5,1.98502 -5.33333,2.86898 -3.21331,1.54932 -25.86693,14.1445 -31.33333,17.42101 -30.39087,18.216 -47.5247,33.77065 -53.9223,48.95244 -0.77257,1.83333 -1.97492,4.23333 -2.67189,5.33333 -1.29715,2.04722 -2.09403,3.63234 -9.38425,18.66667 -8.88571,18.32459 -21.3549,45.24739 -21.3549,46.10829 0,0.6854 -4.58941,11.1868 -8.69321,19.8917 -1.76932,3.753 -3.01512,7.0267 -7.99159,21 -1.10997,3.1166 -2.90997,7.2592 -4,9.2057 -1.09002,1.9465 -1.98186,4.3554 -1.98186,5.3531 0,0.9977 -1.14059,3.9421 -2.53466,6.5431 -1.39405,2.601 -3.16578,6.7921 -3.93718,9.3136 -0.7714,2.5215 -3.25067,9.6845 -5.5095,15.9178 -2.25882,6.2333 -4.93861,14.0333 -5.95508,17.3333 -2.12776,6.9078 -5.31985,16.4318 -8.71426,26 -5.3762,15.1546 -7.33551,21.537 -12.07467,39.3334 -0.87879,3.3 -2.46359,8.7 -3.52176,12 -1.05819,3.3 -2.74005,9.3 -3.73749,13.3333 -0.99743,4.0333 -2.7326,9.7333 -3.85594,12.6667 -1.12333,2.9333 -2.06876,6.8823 -2.10094,8.7754 -0.0321,1.8932 -1.18623,7.2932 -2.56452,12 -1.37831,4.7069 -3.10382,11.5579 -3.83446,15.2246 -1.73329,8.6982 -5.3157,23.6118 -7.68676,32 -1.03645,3.6666 -2.27088,10.2666 -2.74316,14.6666 -0.47229,4.4 -1.99217,12.4631 -3.3775,17.9178 -1.38534,5.4548 -2.51879,11.6728 -2.51879,13.8178 0,2.145 -1.14393,8.782 -2.54208,14.7488 -1.39815,5.967 -2.94535,15.949 -3.43821,22.1823 -0.49287,6.2333 -1.6967,15.2333 -2.67518,20 -0.97848,4.7667 -2.46932,16.4353 -3.31297,25.9303 -0.84365,9.495 -2.09732,20.2345 -2.78593,23.8654 -0.6886,3.6311 -1.86403,21.0624 -2.61206,38.7364 -0.74802,17.674 -1.9466,38.0482 -2.66348,45.2759 -2.54586,25.6676 -4.34394,21.5977 20.1999,45.7225 11.82682,11.6248 22.47682,22.0856 23.66666,23.2462 1.93326,1.8856 18.79442,16.1744 22.16335,18.7821 0.73333,0.5676 2.96913,2.3991 4.96845,4.07 1.99931,1.6708 5.78891,4.5379 8.42134,6.3712 2.63242,1.8333 7.6392,5.5124 11.12618,8.1756 3.48698,2.6633 8.09738,5.8301 10.24534,7.0372 2.14794,1.2072 6.00536,3.4789 8.57202,5.0484 9.79806,5.9909 15.95542,9.2864 35.54634,19.0247 11.11714,5.5261 21.04714,10.0474 22.06666,10.0474 1.01952,0 2.44044,0.5868 3.15762,1.304 0.71716,0.7171 4.58716,2.449 8.6,3.8483 11.98332,4.1792 16.28934,5.7076 23.29605,8.2696 3.66667,1.3407 9.06667,2.8481 12,3.35 2.93333,0.5019 6.53333,1.5464 8,2.3212 1.46667,0.7749 6.26667,2.1332 10.66667,3.0187 4.4,0.8853 11.9,2.5386 16.66666,3.674 16.55082,3.9422 39.43608,7.4533 57.94986,8.8908 10.23909,0.7949 18.88909,1.718 19.22222,2.051 1.24434,1.2444 5.4501,0.53 11.07471,-1.8809 z M 1472,1475.1111 c -11.784,-2.4191 -29.7817,-8.6758 -36,-12.515 -1.1,-0.6792 -4.3155,-2.4868 -7.1456,-4.0169 -11.1996,-6.0551 -29.9849,-27.5115 -37.8624,-43.2459 -5.6811,-11.3474 -7.0748,-15.0885 -10.3125,-27.6833 -4.4587,-17.3444 -4.7852,-44.1548 -0.6967,-57.1979 1.4572,-4.6486 2.6572,-9.2393 2.6667,-10.2013 0.013,-0.9621 1.441,-4.8621 3.1814,-8.6667 1.7403,-3.8046 3.5639,-7.8174 4.0523,-8.9174 3.3971,-7.6506 11.4099,-18.6627 19.4311,-26.7047 10.996,-11.0245 18.056,-15.5484 40.6857,-26.0713 12.3411,-5.7387 40.7941,-8.9748 51.3421,-5.8395 2.5619,0.7614 7.6298,1.969 11.262,2.6835 19.4783,3.8313 38.8131,15.139 54.1542,31.6714 20.1077,21.6693 29.194,47.6648 29.2308,83.6288 0.015,13.6642 -2.2826,32.062 -4.6514,37.2634 -1.0108,2.2192 -2.7632,6.135 -3.8942,8.7017 -1.1311,2.5667 -2.8115,5.8667 -3.7342,7.3333 -0.9228,1.4667 -3.7462,5.9667 -6.2744,10 -4.135,6.5968 -20.0821,23.5964 -27.8642,29.7034 -6.2184,4.8798 -23.9544,13.3061 -34.904,16.5828 -11.1728,3.3434 -34.2062,5.2284 -42.6667,3.4916 z m -412.3892,-2.3651 c -2.7808,-0.9919 -7.2808,-2.2189 -10,-2.7265 -2.7193,-0.5076 -10.2316,-3.5479 -16.6941,-6.7562 -22.6109,-11.2246 -40.95527,-29.2018 -49.58955,-48.5966 -1.14264,-2.5667 -2.91719,-6.189 -3.94346,-8.0496 -1.70397,-3.0894 -4.25558,-12.0416 -7.3965,-25.9504 -1.54319,-6.8336 -1.56491,-37.0271 -0.0316,-44 7.24693,-32.9577 23.22576,-58.3999 46.04451,-73.314 17.3872,-11.3642 33.2374,-17.5413 53.3246,-20.7818 8.3575,-1.3483 25.2282,0.204 30.0056,2.7608 1.3719,0.7342 3.8839,1.3613 5.5821,1.3935 2.8817,0.055 4.9628,0.7337 17.0877,5.576 10.8672,4.34 23.3606,13.6002 36.4704,27.0321 7.5869,7.7733 18.2513,22.6487 20.726,28.9101 0.6717,1.6995 2.6032,6.3899 4.2922,10.4233 2.8584,6.8256 3.0712,9.1795 3.0748,34 0,25.328 -0.1839,27.3025 -3.7376,39.3333 -5.6524,19.1359 -10.1125,28.6612 -19.6891,42.0501 -7.286,10.1863 -23.7574,24.4314 -28.4701,24.6219 -0.7333,0.029 -2.8333,1.2273 -4.6666,2.6613 -1.8334,1.434 -4.1163,2.6207 -5.0732,2.6371 -0.9569,0.016 -4.2569,1.1752 -7.3333,2.5753 -3.0765,1.4002 -7.9935,2.9592 -10.9269,3.4646 -2.9333,0.5053 -8.2922,1.7597 -11.9086,2.7876 -8.3362,2.3692 -30.4468,2.3384 -37.1473,-0.052 z m 631.9908,-496.25547 c -1.8231,-1.82314 -0.8971,-3.33673 1.7845,-2.9166 1.4958,0.23434 2.7275,1.02607 2.7371,1.7594 0.021,1.6228 -3.2251,2.45368 -4.5216,1.1572 z M 863.73333,974.4 c 1.24444,-1.24444 1.95556,-1.24444 3.2,0 1.24444,1.24444 0.8889,1.6 -1.6,1.6 -2.48889,0 -2.84444,-0.35556 -1.6,-1.6 z"
     id="path2490"
     inkscape:connector-curvature="0" />
</svg>
