<?xml version="1.0" encoding="UTF-8" standalone="no"?>
<!-- Created with Inkscape (http://www.inkscape.org/) -->

<svg
   xmlns:dc="http://purl.org/dc/elements/1.1/"
   xmlns:cc="http://creativecommons.org/ns#"
   xmlns:rdf="http://www.w3.org/1999/02/22-rdf-syntax-ns#"
   xmlns:svg="http://www.w3.org/2000/svg"
   xmlns="http://www.w3.org/2000/svg"
   xmlns:sodipodi="http://sodipodi.sourceforge.net/DTD/sodipodi-0.dtd"
   xmlns:inkscape="http://www.inkscape.org/namespaces/inkscape"
   version="1.1"
   id="svg815"
   width="2560"
   height="2560"
   viewBox="0 0 2560 2560"
   sodipodi:docname="socials_twitter.svg"
   inkscape:version="0.92.5 (2060ec1f9f, 2020-04-08)">
  <metadata
     id="metadata821">
    <rdf:RDF>
      <cc:Work
         rdf:about="">
        <dc:format>image/svg+xml</dc:format>
        <dc:type
           rdf:resource="http://purl.org/dc/dcmitype/StillImage" />
        <dc:title></dc:title>
      </cc:Work>
    </rdf:RDF>
  </metadata>
  <defs
     id="defs819" />
  <sodipodi:namedview
     pagecolor="#ffffff"
     bordercolor="#666666"
     borderopacity="1"
     objecttolerance="10"
     gridtolerance="10"
     guidetolerance="10"
     inkscape:pageopacity="0"
     inkscape:pageshadow="2"
     inkscape:window-width="3000"
     inkscape:window-height="1859"
     id="namedview817"
     showgrid="false"
     inkscape:zoom="0.60625"
     inkscape:cx="1280"
     inkscape:cy="1280"
     inkscape:window-x="-13"
     inkscape:window-y="-13"
     inkscape:window-maximized="1"
     inkscape:current-layer="svg815" />
  <path
     style="fill:#553c9a;stroke-width:1.33333337;fill-opacity:1"
     d="m 1226.6667,2295.2188 c -3.3,-0.2619 -15,-1.1241 -26,-1.9161 C 1102.8448,2286.2601 998.14316,2262.11 906,2225.336 c -35.04847,-13.9877 -49.43503,-20.4939 -84,-37.9877 -43.24672,-21.8878 -69.32968,-37.0847 -107.0724,-62.3843 -18.47073,-12.3813 -58.39251,-41.394 -67.51261,-49.064 -1.51158,-1.2712 -8.74832,-7.2736 -16.08166,-13.3387 C 535.95387,1983.6779 454.31465,1885.7536 392.98337,1776.6667 328.80649,1662.5184 287.59892,1536.8351 271.45345,1406 c -6.06874,-49.1783 -6.78678,-62.5089 -6.78678,-126 0,-63.4911 0.71804,-76.8217 6.78678,-126 17.52031,-141.9761 64.04406,-276.35493 138.48538,-400 17.27098,-28.68664 58.6934,-88.27193 73.83832,-106.21488 1.44768,-1.71515 9.64321,-11.51845 18.21226,-21.78512 21.3213,-25.54521 53.6043,-60.063 74.56892,-79.73093 9.59292,-8.99959 19.54167,-18.32982 22.10834,-20.73384 11.96873,-11.21035 53.39012,-45.2107 72,-59.10052 53.50052,-39.9311 99.42172,-68.11347 159.33333,-97.78472 104.00504,-51.50854 208.9958,-83.00466 324,-97.19654 49.1783,-6.06874 62.5089,-6.78678 126,-6.78678 65.8112,0 84.7889,1.12282 137.3333,8.12542 151.948,20.25014 299.8798,76.37499 428,162.38196 234.6035,157.48899 392.9583,403.76236 437.9787,681.14435 9.5101,58.5938 12.0213,92.787 12.0213,163.6816 0,61.6875 -0.6862,75.2901 -6.1216,121.3333 -16.7892,142.2226 -64.57,281.1944 -139.1312,404.6667 -43.7937,72.5217 -108.844,153.5297 -167.3056,208.3479 -28.2884,26.5253 -29.0196,27.18 -48.7749,43.6656 -10.2667,8.5674 -19.9035,16.6169 -21.4149,17.8876 -18.346,15.4221 -78.2711,57.1161 -106.5851,74.1585 -65.7461,39.5728 -140.4129,73.776 -210.8235,96.5739 -74.2908,24.054 -144.4401,38.3172 -227.1765,46.1908 -20.4513,1.9462 -124.7221,3.7128 -141.3333,2.3945 z m -95.7762,-554.5555 c 74.3972,-6.5969 152.8847,-25.8032 207.4592,-50.7661 3.8844,-1.7768 7.3558,-3.2305 7.7139,-3.2305 1.3316,0 46.5719,-22.9596 57.0584,-28.9574 29.3996,-16.815 68.8441,-44.7541 96.2113,-68.1476 18.1296,-15.4972 53.2226,-50.7621 69.886,-70.2284 85.337,-99.6912 142.2132,-227.6045 159.4799,-358.6666 3.1603,-23.9882 5.8801,-65.1512 5.9908,-90.6667 l 0.099,-22.6667 8.9184,-6.6666 c 24.4437,-18.2721 56.9766,-49.79583 77.745,-75.33337 13.7223,-16.87328 28.481,-37.17833 27.6367,-38.0226 -0.3367,-0.33657 -6.5692,1.8253 -13.8503,4.80415 -33.2292,13.59487 -74.084,24.55224 -111.2382,29.83444 l -6,0.85301 10,-6.8753 c 28.7586,-19.77246 54.1625,-47.61487 71.2432,-78.08167 8.1264,-14.49509 19.9176,-42.2704 18.207,-42.8884 -0.573,-0.207 -4.8837,1.80424 -9.5793,4.46941 -34.8867,19.8011 -71.6724,34.39627 -114.3201,45.35791 l -23.1159,5.9414 -10.4764,-9.8554 c -35.5536,-33.44636 -78.5357,-54.29651 -126.9497,-61.58199 -16.3422,-2.45921 -51.1647,-2.49561 -67.0088,-0.07 -50.6738,7.75762 -91.9178,27.82606 -127.9172,62.24188 -47.4534,45.36564 -72.8087,104.47204 -72.7251,169.53113 0.022,16.661 2.1951,39.4503 4.7237,49.5253 0.9461,3.7695 3.5397,3.7032 -29.4148,0.7511 -54.2963,-4.864 -110.9741,-17.7794 -166.6666,-37.9792 -9.5334,-3.4577 -19.7334,-7.374 -22.6667,-8.7028 -2.9333,-1.3287 -9.2333,-4.0235 -14,-5.9883 -4.7667,-1.9648 -17.9667,-8.2225 -29.3333,-13.9059 -46.85501,-23.428 -83.78161,-47.26955 -125.3013,-80.90039 -20.17215,-16.33938 -69.18736,-64.23854 -84.03791,-82.12439 -4.71885,-5.68333 -8.93798,-10.33333 -9.37586,-10.33333 -0.96515,0 -10.40463,18.8491 -15.14842,30.24888 -4.90882,11.79637 -9.77326,29.28112 -13.08708,47.04021 -3.85957,20.68381 -4.10485,56.9602 -0.52237,77.25632 8.18423,46.3667 28.38973,87.744 59.40455,121.6499 8.34693,9.1251 27.25041,25.9468 36.09008,32.1158 l 3.31161,2.311 -6,-0.5788 c -17.59269,-1.697 -23.0836,-2.4808 -34.54423,-4.9312 -19.70641,-4.2134 -34.92212,-9.8732 -63.33605,-23.5589 -1.68028,-0.8093 0.0493,27.2167 2.58599,41.9039 15.50228,89.7556 79.34993,161.0422 166.95977,186.4125 l 14.99883,4.3435 -10.33216,2.1812 c -28.29734,5.9741 -66.5019,6.6186 -89.49322,1.5098 -2.8868,-0.6414 -3.08118,-0.3786 -2.24045,3.03 0.50635,2.053 3.57248,10.0343 6.81365,17.7364 16.2367,38.5839 44.10367,73.4312 78.55518,98.2326 7.23688,5.2098 30.51289,18.6833 38.69936,22.4014 26.29029,11.9407 58.46583,19.9494 83.89083,20.8808 l 7.8909,0.2892 -4.5575,3.8506 c -7.7539,6.551 -41.128,28.2328 -56.76414,36.8772 -61.20383,33.8364 -133.18964,54.119 -203.05555,57.2128 -21.17308,0.9376 -61.38914,0.023 -72.54264,-1.6495 -3.40738,-0.5109 -6.18092,-0.4423 -6.16342,0.1527 0.0644,2.1876 48.06465,29.3021 71.96818,40.6536 70.60415,33.529 145.98907,54.207 224.89127,61.6877 26.0814,2.4727 95.7913,2.5125 123.3326,0.071 z"
     id="path825"
     inkscape:connector-curvature="0" />
</svg>
