<?xml version="1.0" encoding="UTF-8" standalone="no"?>
<!-- Created with Inkscape (http://www.inkscape.org/) -->

<svg
   xmlns:dc="http://purl.org/dc/elements/1.1/"
   xmlns:cc="http://creativecommons.org/ns#"
   xmlns:rdf="http://www.w3.org/1999/02/22-rdf-syntax-ns#"
   xmlns:svg="http://www.w3.org/2000/svg"
   xmlns="http://www.w3.org/2000/svg"
   xmlns:sodipodi="http://sodipodi.sourceforge.net/DTD/sodipodi-0.dtd"
   xmlns:inkscape="http://www.inkscape.org/namespaces/inkscape"
   version="1.1"
   id="svg827"
   width="2560"
   height="2560"
   viewBox="0 0 2560 2560"
   sodipodi:docname="socials_linkedin.svg"
   inkscape:version="0.92.5 (2060ec1f9f, 2020-04-08)">
  <metadata
     id="metadata833">
    <rdf:RDF>
      <cc:Work
         rdf:about="">
        <dc:format>image/svg+xml</dc:format>
        <dc:type
           rdf:resource="http://purl.org/dc/dcmitype/StillImage" />
        <dc:title></dc:title>
      </cc:Work>
    </rdf:RDF>
  </metadata>
  <defs
     id="defs831" />
  <sodipodi:namedview
     pagecolor="#ffffff"
     bordercolor="#666666"
     borderopacity="1"
     objecttolerance="10"
     gridtolerance="10"
     guidetolerance="10"
     inkscape:pageopacity="0"
     inkscape:pageshadow="2"
     inkscape:window-width="3000"
     inkscape:window-height="1859"
     id="namedview829"
     showgrid="false"
     inkscape:zoom="0.52149125"
     inkscape:cx="583.70318"
     inkscape:cy="1547.1729"
     inkscape:window-x="-13"
     inkscape:window-y="-13"
     inkscape:window-maximized="1"
     inkscape:current-layer="svg827" />
  <path
     style="fill:#553c9a;stroke-width:1.33333337;fill-opacity:1"
     d="m 430.56093,2300.7832 c -0.3094,-0.3095 -6.38246,-1.2116 -13.4957,-2.0047 -7.11323,-0.7932 -14.31287,-2.0056 -15.99919,-2.6942 -1.68632,-0.6887 -7.56604,-2.5355 -13.06604,-4.1039 -14.77961,-4.2145 -40.63088,-17.3364 -51.58889,-26.186 -11.24254,-9.0795 -14.18459,-11.6696 -21.02691,-18.512 -11.88236,-11.8823 -21.93345,-24.5495 -27.25859,-34.3535 -2.26909,-4.1776 -5.90022,-10.8621 -8.06918,-14.8546 -2.16896,-3.9926 -5.82098,-13.1426 -8.11558,-20.3334 -2.2946,-7.1908 -4.73214,-14.4792 -5.41677,-16.1962 C 262.03063,2150.2747 262,2144.3305 262,1283.3333 c 0,-863.39305 0.012,-865.59027 4.55965,-876.93393 0.67612,-1.68632 2.5248,-7.56604 4.10816,-13.06604 11.23528,-39.02704 47.12052,-83.26194 83.33219,-102.72164 15.57436,-8.36946 22.71363,-11.76078 26.66667,-12.66729 2.2,-0.50449 9.1,-2.59489 15.33333,-4.64532 6.23333,-2.05043 15.23333,-4.08968 20,-4.53167 4.76667,-0.44197 13.16667,-1.3691 18.66667,-2.06029 14.40004,-1.80964 1673.08243,-1.78844 1688.00003,0.0216 6.2333,0.75632 15.8333,1.87719 21.3333,2.49081 5.5,0.61363 11.5,1.72092 13.3333,2.46064 1.8334,0.73972 7.8334,2.67198 13.3334,4.29388 15.8248,4.66664 41.2176,17.75868 51.9334,26.77587 3.3366,2.80771 9.4738,7.98759 13.638,11.51085 9.6806,8.19015 27.3575,29.39894 33.1218,39.73926 8.392,15.05421 15.9734,30.49754 15.9734,32.53796 0,1.12176 0.8368,4.45961 1.8595,7.41746 4.3516,12.58612 6.154,21.07288 8.0888,38.08703 1.8259,16.05579 2.0469,109.94312 2.0081,852.66662 -0.028,528.6501 -0.5153,838.0459 -1.3302,843.9576 -0.7078,5.1333 -1.6384,13.2333 -2.0682,18 -0.7736,8.5809 -1.2816,10.5885 -7.9286,31.3333 -5.0258,15.6846 -13.7846,32.5898 -24.6294,47.5364 -8.7061,11.9991 -26.9494,30.2384 -40.0014,39.9927 -20.913,15.6291 -54.8356,30.0591 -78.6652,33.4625 -6.9987,0.9996 -265.3423,1.5672 -860.7716,1.8912 -467.92441,0.2547 -851.02477,0.2098 -851.33417,-0.1 z m 411.67592,-223.5373 c 19.82974,-2.7015 35.13519,-13.4559 43.51955,-30.5792 L 890,2038 v -492.0432 c 0,-486.3494 -0.0304,-492.1121 -2.62213,-498 -3.53288,-8.0258 -6.93818,-12.8988 -13.61831,-19.4879 -6.37271,-6.2859 -11.07769,-8.9451 -22.26659,-12.585 -7.48494,-2.4349 -13.2834,-2.5506 -127.91253,-2.5506 -133.62479,0 -129.02069,-0.29 -143.26349,9.0254 -11.05123,7.228 -17.55791,15.7061 -22.74866,29.6413 -2.07601,5.5733 -2.23496,40.6104 -2.23496,492.6667 0,521.3884 -0.39137,490.7872 6.45094,504.4021 3.88512,7.7307 13.64766,17.4725 22.14358,22.0965 12.96615,7.0571 16.55216,7.2504 136.97567,7.3811 71.75723,0.077 114.585,-0.3812 121.33333,-1.3005 z m 498.10805,-1.1023 c 13.7534,-3.6803 29.5514,-18.3684 34.5726,-32.1436 1.3486,-3.7 1.8582,-60.7328 2.4602,-275.3333 0.8375,-298.565 0.025,-267.0499 7.9415,-308 1.5316,-7.9223 4.1136,-17.6938 7.3984,-28 0.9351,-2.9334 2.9811,-9.4723 4.5469,-14.5311 2.8698,-9.2713 4.7799,-13.6836 15.9327,-36.8023 15.6524,-32.4458 41.1199,-59.5233 71.3889,-75.902 11.2207,-6.0716 25.7438,-11.1072 44.6346,-15.4763 7.597,-1.757 16.025,-2.2816 36.3836,-2.2648 26.5937,0.022 36.3801,1.2131 52.9665,6.4468 3.2473,1.0246 6.6613,1.863 7.5865,1.863 3.5318,0 26.971,12.0007 37.176,19.0337 27.7538,19.1272 49.3712,52.0318 62.555,95.2168 1.1614,3.8044 2.1117,7.7856 2.1117,8.847 0,1.0613 0.8447,4.8485 1.8769,8.4161 2.485,8.588 5.628,28.0859 7.7084,47.8197 1.2772,12.1154 1.856,82.6867 2.384,290.6667 l 0.6974,274.6667 3.7105,7.1968 c 8.528,16.5408 20.2617,25.5233 37.6991,28.8596 14.5754,2.7888 243.9365,2.7992 259.5694,0.013 17.4138,-3.1049 29.7312,-13.22 39.0506,-32.0683 2.6034,-5.2653 2.6354,-8.9602 2.5149,-290 -0.108,-252.2916 -0.3736,-287.8362 -2.3333,-312.5358 -1.2162,-15.328 -2.2088,-32.128 -2.2059,-37.3334 0,-8.8072 -1.0667,-18.5506 -6.1741,-56.1308 -2.8123,-20.6922 -8.0852,-48.8715 -11.9758,-64 -1.1314,-4.4 -2.9858,-11.6 -4.1208,-16 -2.7602,-10.7018 -10.2461,-34.2479 -13.7766,-43.3333 -1.5672,-4.0333 -3.1491,-8.5333 -3.5151,-10 -0.8845,-3.5443 -1.4983,-4.9377 -11.7459,-26.6667 -11.2818,-23.9223 -10.9077,-23.2566 -25.7228,-45.7702 -29.739,-45.193 -68.8273,-80.8929 -113.6736,-103.8199 -49.6325,-25.3739 -108.8761,-39.07883 -178.634,-41.32379 -24.4781,-0.78774 -78.793,2.29789 -97.3333,5.52949 -6.2333,1.0864 -17.3333,2.9735 -24.6667,4.1935 -7.3333,1.2199 -15.7333,2.9601 -18.6666,3.8671 -2.9334,0.9069 -8.7834,2.6258 -13,3.8197 -26.0002,7.3618 -23.47,6.4994 -37,12.6114 -4.7667,2.1533 -11.9667,5.319 -16,7.035 -11.0038,4.6815 -33.536,17.8204 -45.3334,26.4344 -9.2272,6.7375 -30.1065,24.4986 -35.3333,30.0564 -12.432,13.2196 -23.4097,26.0881 -31.3079,36.7003 -10.9886,14.7647 -10.5692,14.3478 -12.0605,11.9888 -0.7164,-1.1331 -1.2663,-19.7069 -1.2779,-43.1675 -0.013,-27.6188 -0.539,-42.9858 -1.5953,-46.6666 -4.0504,-14.1139 -18.8711,-29.1425 -33.6669,-34.1391 -7.7416,-2.6144 -11.0988,-2.6801 -132.6837,-2.5941 -139.0687,0.098 -130.2886,-0.4714 -145.4078,9.4352 -6.2841,4.1176 -12.8511,11.7635 -17.9659,20.9178 -4.6424,8.3087 -4.6058,4.3244 -4.6064,501.5588 -6e-4,391.8385 0.3302,486.2075 1.727,492.7116 4.0892,19.0408 20.7532,35.1384 40.0434,38.6823 13.4544,2.4717 247.716,1.9401 257.1468,-0.5836 z M 755.33333,921.25231 c 46.58954,-6.69502 91.68254,-30.04439 124.26459,-64.34482 8.74697,-9.20829 24.23131,-28.67276 26.17849,-32.90749 0.50579,-1.1 2.09308,-3.8 3.52732,-6 3.47211,-5.32593 16.0296,-30.82509 16.0296,-32.54957 0,-0.74798 0.8411,-3.33031 1.8691,-5.73852 1.028,-2.40822 2.88328,-7.97858 4.12286,-12.37858 1.23958,-4.4 2.80303,-9.85516 3.47434,-12.12258 2.27494,-7.68387 4.09882,-23.80712 4.81265,-42.54408 C 940.60389,686.6384 937.52715,665.76736 928.60517,638 910.73123,582.37199 869.0756,535.87372 813.83689,509.88947 806.9508,506.65027 800.74083,504 800.03693,504 c -0.70388,0 -3.25014,-0.84432 -5.65836,-1.87628 -11.42385,-4.89528 -35.45241,-9.81047 -55.7119,-11.39621 -17.28736,-1.35312 -48.97184,0.67617 -61.61188,3.94604 -12.40507,3.20909 -20.58332,5.6716 -24.7667,7.45736 -2.40821,1.028 -4.96501,1.86909 -5.68177,1.86909 -2.35152,0 -28.40311,12.80604 -37.93965,18.6498 -31.60435,19.36633 -60.37362,50.79815 -78.74102,86.02832 -3.43765,6.59369 -6.73229,13.48855 -7.32141,15.32188 -0.58913,1.83333 -2.31952,6.63333 -3.84531,10.66667 -2.92213,7.7245 -5.39972,16.77717 -9.1197,33.32192 -2.89296,12.86649 -3.21003,59.65458 -0.50608,74.67808 2.32036,12.89216 8.18956,34.00356 12.04716,43.33333 1.52985,3.70001 15.18441,31.11627 16.83586,33.80383 17.64671,28.71806 46.5997,57.3349 74.6505,73.78381 10.60525,6.21888 33.84838,17.07903 36.55293,17.07903 0.81579,0 2.52511,0.55669 3.79849,1.2371 7.54106,4.02943 33.03074,9.40794 50.7771,10.71434 15.22616,1.12088 38.53157,0.50326 51.53814,-1.3658 z"
     id="path1380"
     inkscape:connector-curvature="0" />
</svg>
