<?xml version="1.0" encoding="UTF-8" standalone="no"?>
<!-- Created with Inkscape (http://www.inkscape.org/) -->

<svg
   xmlns:dc="http://purl.org/dc/elements/1.1/"
   xmlns:cc="http://creativecommons.org/ns#"
   xmlns:rdf="http://www.w3.org/1999/02/22-rdf-syntax-ns#"
   xmlns:svg="http://www.w3.org/2000/svg"
   xmlns="http://www.w3.org/2000/svg"
   xmlns:sodipodi="http://sodipodi.sourceforge.net/DTD/sodipodi-0.dtd"
   xmlns:inkscape="http://www.inkscape.org/namespaces/inkscape"
   version="1.1"
   id="svg825"
   width="2666.6667"
   height="8000"
   viewBox="0 0 2666.6667 8000"
   sodipodi:docname="socials_linkedin.svg"
   inkscape:version="0.92.5 (2060ec1f9f, 2020-04-08)">
  <metadata
     id="metadata831">
    <rdf:RDF>
      <cc:Work
         rdf:about="">
        <dc:format>image/svg+xml</dc:format>
        <dc:type
           rdf:resource="http://purl.org/dc/dcmitype/StillImage" />
        <dc:title></dc:title>
      </cc:Work>
    </rdf:RDF>
  </metadata>
  <defs
     id="defs829" />
  <sodipodi:namedview
     pagecolor="#ffffff"
     bordercolor="#666666"
     borderopacity="1"
     objecttolerance="10"
     gridtolerance="10"
     guidetolerance="10"
     inkscape:pageopacity="0"
     inkscape:pageshadow="2"
     inkscape:window-width="3000"
     inkscape:window-height="1859"
     id="namedview827"
     showgrid="false"
     inkscape:zoom="0.1668772"
     inkscape:cx="1349.405"
     inkscape:cy="4447.7007"
     inkscape:window-x="-13"
     inkscape:window-y="-13"
     inkscape:window-maximized="1"
     inkscape:current-layer="svg825" />
  <path
     style="fill:#ffffff;stroke-width:1.33333337"
     d="m 833.33334,2857.7359 c -7.55658,-0.84 -24.75608,-6.9492 -34.33696,-12.1964 -5.42324,-2.9702 -13.3782,-9.2982 -20.37261,-16.2062 -12.39541,-12.2422 -18.66332,-22.2574 -25.03344,-40 l -3.59032,-10 -0.34827,-464.6373 c -0.20798,-277.4775 0.14503,-467.8716 0.87636,-472.6667 2.78203,-18.2406 8.99502,-32.5916 20.274,-46.8298 12.65188,-15.9712 30.05352,-27.7095 50.53124,-34.0858 l 10,-3.1137 H 1300 1768.6667 l 10.9901,3.5959 c 11.3387,3.71 25.5274,10.951 31.1414,15.893 1.761,1.5503 4.5268,3.702 6.1462,4.7818 4.2563,2.8378 16.622,18.5149 21.3464,27.0626 5.537,10.0178 9.1818,21.3008 10.9834,34 1.1113,7.8348 1.4086,133.3236 1.1194,472.6667 l -0.3936,462 -3.6812,10.5645 c -11.4198,32.7732 -32.1634,53.6056 -65.6521,65.933 l -9.3333,3.4356 -466.6667,0.1608 c -256.6667,0.088 -468.76669,-0.072 -471.33336,-0.358 z m 505.32146,-123.4922 c 4.0716,-2.0782 7.2722,-5.1329 10,-9.5445 l 4.0119,-6.488 0.7225,-150.7723 c 0.3975,-82.9248 1.1119,-151.9722 1.5876,-153.4389 0.4759,-1.4667 1.8742,-7.1667 3.1075,-12.6667 10.9375,-48.7769 35.7709,-79.1388 72.6779,-88.8568 12.6313,-3.3261 37.6084,-2.9673 51.0992,0.7339 32.16,8.8229 51.2561,30.6864 61.6474,70.5813 5.3736,20.631 5.8246,35.1068 5.8246,186.9904 v 146.1318 l 3.076,5.8764 c 1.8954,3.621 5.5537,7.5517 9.5318,10.2417 l 6.4559,4.3652 74.9063,-0.3652 74.9061,-0.3653 4.9477,-3.7746 c 2.7212,-2.076 6.4538,-6.0504 8.2946,-8.8318 l 3.3468,-5.0574 -0.5314,-169.8348 c -0.4542,-145.2685 -0.8424,-172.5349 -2.6829,-188.5014 -8.2829,-71.8524 -27.5287,-120.0152 -61.9297,-154.9802 -25.7082,-26.1296 -55.7624,-40.99 -99.6546,-49.2744 -18.429,-3.4784 -74.4492,-3.1105 -95.3333,0.6262 -36.2972,6.4942 -62.2696,17.4697 -85.3333,36.0604 -8.9967,7.2517 -22.226,21.1986 -28.9682,30.5392 -2.7674,3.8342 -5.435,6.9842 -5.928,7 -0.4928,0.016 -1.0928,-11.2671 -1.3333,-25.0732 -0.4313,-24.7674 -0.4857,-25.1752 -4.074,-30.593 -2.0003,-3.02 -6.5003,-7.1741 -10,-9.2313 L 1332.6667,2162 H 1262 1191.3333 l -5.3333,3.0748 c -6.8586,3.9543 -12.2693,11.5936 -14.0107,19.7816 -0.9283,4.3647 -1.2599,92.1364 -1.0167,269.1436 0.3492,254.2269 0.4415,262.8292 2.8733,267.7243 3.455,6.9545 12.5842,14.1461 19.4491,15.3213 3.0667,0.5249 35.6799,0.7969 72.4737,0.6044 66.7795,-0.3493 66.9086,-0.3553 72.8861,-3.4063 z m -265.6017,0.5451 c 5.7874,-2.9769 11.1021,-8.3899 14.128,-14.3892 1.9593,-3.8847 2.1522,-28.1051 2.1522,-270.1705 0,-294.118 0.7237,-270.7499 -8.6756,-280.1492 -8.6832,-8.6832 -10.7607,-8.8904 -84.8309,-8.4612 -64.47359,0.3734 -65.93643,0.4404 -71.16012,3.2516 -6.85283,3.688 -10.5041,7.6657 -13.88796,15.1297 -2.70819,5.9736 -2.72027,7.1564 -2.74943,269.1787 -0.0215,193.4118 0.37416,264.5252 1.49263,268.2582 2.072,6.9158 7.93093,13.6836 14.7814,17.0746 5.57825,2.7612 7.13236,2.8197 74.74981,2.8208 65.33267,10e-4 69.31967,-0.136 73.99997,-2.5435 z m -44.9286,-625.2677 c 41.1763,-10.731 73.3187,-42.9399 84.6792,-84.8544 3.4951,-12.8952 3.5736,-45.6764 0.1373,-57.3334 -6.7946,-23.0492 -17.3068,-40.9002 -32.8055,-55.7076 -22.063,-21.0789 -44.9156,-30.9922 -75.1073,-32.5812 -48.17744,-2.5354 -90.03526,22.1508 -111.4926,65.7544 -31.58824,64.1907 2.65825,142.3128 71.55107,163.2202 5.36433,1.628 12.86433,3.4558 16.66666,4.062 10.85603,1.7305 35.02857,0.396 46.37117,-2.56 z"
     id="path1378"
     inkscape:connector-curvature="0"
     sodipodi:nodetypes="cccccscccccccccccscsccccsccccccccsccccccsccccccccccccccccccscccsccsscccsccscsscscsccs" />
</svg>
