<?xml version="1.0" encoding="UTF-8" standalone="no"?>
<!-- Created with Inkscape (http://www.inkscape.org/) -->

<svg
   xmlns:dc="http://purl.org/dc/elements/1.1/"
   xmlns:cc="http://creativecommons.org/ns#"
   xmlns:rdf="http://www.w3.org/1999/02/22-rdf-syntax-ns#"
   xmlns:svg="http://www.w3.org/2000/svg"
   xmlns="http://www.w3.org/2000/svg"
   xmlns:sodipodi="http://sodipodi.sourceforge.net/DTD/sodipodi-0.dtd"
   xmlns:inkscape="http://www.inkscape.org/namespaces/inkscape"
   version="1.1"
   id="svg825"
   width="2666.6667"
   height="8000"
   viewBox="0 0 2666.6667 8000"
   sodipodi:docname="socials_twitter.svg"
   inkscape:version="0.92.5 (2060ec1f9f, 2020-04-08)">
  <metadata
     id="metadata831">
    <rdf:RDF>
      <cc:Work
         rdf:about="">
        <dc:format>image/svg+xml</dc:format>
        <dc:type
           rdf:resource="http://purl.org/dc/dcmitype/StillImage" />
        <dc:title></dc:title>
      </cc:Work>
    </rdf:RDF>
  </metadata>
  <defs
     id="defs829" />
  <sodipodi:namedview
     pagecolor="#ffffff"
     bordercolor="#666666"
     borderopacity="1"
     objecttolerance="10"
     gridtolerance="10"
     guidetolerance="10"
     inkscape:pageopacity="0"
     inkscape:pageshadow="2"
     inkscape:window-width="3000"
     inkscape:window-height="1859"
     id="namedview827"
     showgrid="false"
     inkscape:zoom="0.1668772"
     inkscape:cx="1349.405"
     inkscape:cy="4447.7007"
     inkscape:window-x="-13"
     inkscape:window-y="-13"
     inkscape:window-maximized="1"
     inkscape:current-layer="svg825" />
  <path
     style="fill:#ffffff;stroke-width:1.33333337"
     d="m 1225.3333,6133.8713 c -65.906,-6.955 -121.7892,-21.3665 -182,-46.935 -28.2899,-12.0134 -74.14049,-37.6198 -102.64385,-57.324 -50.98335,-35.2447 -99.71584,-81.9834 -137.92199,-132.279 -65.33584,-86.01 -106.30425,-189.0692 -118.1968,-297.3333 -2.94918,-26.848 -3.88973,-76.4933 -1.99558,-105.3333 6.5459,-99.667 35.62033,-191.0055 87.85488,-276 12.34028,-20.0798 15.20133,-24.2907 30.8008,-45.3334 30.1136,-40.6212 72.25788,-83.2589 115.43592,-116.7874 42.03903,-32.644 95.49872,-62.9954 145.33332,-82.512 50.2414,-19.6759 102.3125,-32.3912 159.3333,-38.908 28.9686,-3.3107 95.0115,-3.312 124.0001,0 112.7854,12.8765 211.1645,51.586 300,118.0417 42.469,31.77 86.206,75.4717 118.2633,118.1681 60.3837,80.4235 97.9335,168.4951 114.2631,268 5.445,33.1792 6.6473,50.2568 6.6645,94.6667 0.017,45.9009 -1.1465,61.6028 -7.3636,99.3001 -15.1599,91.921 -51.5911,178.8932 -106.9689,255.3666 -29.684,40.9918 -73.1304,86.1972 -113.5251,118.1212 -82.1219,64.9009 -182.4787,108.4014 -284,123.1021 -43.2625,6.2645 -108.8927,8.038 -147.3334,3.9813 z M 1222,5804.1879 c 122.3936,-19.5887 218.4186,-86.8962 279.2003,-195.7018 22.5165,-40.3068 39.3243,-89.6345 46.7329,-137.1528 1.9526,-12.5232 3.1652,-27.9916 3.6846,-47 0.4258,-15.5833 1.2048,-28.3333 1.731,-28.3333 2.1024,0 30.62,-25.4984 39.658,-35.4592 10.5062,-11.5791 26.9572,-32.5245 26.9794,-34.3501 0.013,-0.6284 -1.0362,-0.7056 -2.3195,-0.1715 -15.3035,6.3697 -36.3353,13.1105 -49.9971,16.0241 -10.2532,2.1867 -23.6696,4.3859 -23.6696,3.8799 0,-0.1868 3.15,-2.5972 7,-5.3564 10.122,-7.2541 22.9126,-19.88 30.2691,-29.8797 13.0775,-17.7758 25.3123,-45.6992 17.0965,-39.0191 -5.7893,4.7072 -38.7176,19.1793 -56.3656,24.7729 -7.313,2.3179 -23.8996,6.2258 -26.4249,6.2258 -0.876,0 -4.5888,-2.7226 -8.2507,-6.05 -16.3596,-14.8662 -38.5294,-26.8102 -61.2086,-32.9759 -9.2714,-2.5207 -14.0524,-2.9187 -34.1158,-2.8405 -22.3718,0.087 -23.9022,0.2672 -37.1418,4.3666 -24.8106,7.6826 -42.1775,18.0058 -59.5982,35.4264 -20.4363,20.4363 -32.4302,42.982 -38.5656,72.4939 -2.3988,11.5388 -2.7065,40.3697 -0.5232,49.0401 0.8274,3.2862 1.1255,6.3538 0.6623,6.817 -1.5983,1.5982 -36.4979,-2.3211 -54.9723,-6.1736 -66.4771,-13.8628 -121.2037,-39.4319 -172.5279,-80.6076 -12.824,-10.2883 -43.5588,-40.3728 -52.53374,-51.4223 l -3.73032,-4.5927 -2.39407,3.174 c -2.90618,3.8528 -9.73962,20.6016 -12.55432,30.7707 -8.81584,31.8504 -4.0745,71.8183 11.98582,101.0364 9.55772,17.3881 25.28713,35.7068 39.90563,46.4748 l 3.9877,2.9372 -6.6667,-0.6824 c -15.6136,-1.5985 -39.06549,-8.4031 -50.20567,-14.5672 -1.94648,-1.0771 -3.9653,-1.9583 -4.48626,-1.9583 -1.90608,0 0.6591,23.7011 3.96847,36.6667 5.90753,23.1449 21.31852,49.7189 37.58816,64.8155 15.897,14.7509 37.5734,27.4849 55.4687,32.5858 4.95,1.411 9,2.9687 9,3.4616 0,2.2054 -20.3004,4.0904 -38.2388,3.5508 -10.5369,-0.317 -19.0946,-0.049 -19.0946,0.5986 0,3.2936 9.1104,22.3469 15.002,31.3749 22.7801,34.9072 61.3142,58.4736 101.9719,62.3632 5.6556,0.5411 9.3112,1.4551 8.8438,2.2113 -0.4381,0.7088 -6.9031,5.3136 -14.3667,10.2327 -50.352,33.1859 -106.5057,48.7792 -166.78429,46.3145 -20.82189,-0.8514 -21.2347,-0.816 -17.21968,1.476 2.26252,1.2916 10.36252,5.9239 18,10.2938 42.98397,24.5942 96.12027,41.3464 151.88637,47.885 2.5666,0.301 22.9666,0.3787 45.3333,0.1727 33.433,-0.3079 43.7499,-0.8679 58,-3.1485 z"
     id="path1378"
     inkscape:connector-curvature="0"
     sodipodi:nodetypes="cccsssccssccscsccscccccscssccccsccccscccccccccccccssccccscccscscccsccccsc" />
</svg>
