<?xml version="1.0" encoding="UTF-8" standalone="no"?>
<!-- Created with Inkscape (http://www.inkscape.org/) -->

<svg
   xmlns:dc="http://purl.org/dc/elements/1.1/"
   xmlns:cc="http://creativecommons.org/ns#"
   xmlns:rdf="http://www.w3.org/1999/02/22-rdf-syntax-ns#"
   xmlns:svg="http://www.w3.org/2000/svg"
   xmlns="http://www.w3.org/2000/svg"
   xmlns:sodipodi="http://sodipodi.sourceforge.net/DTD/sodipodi-0.dtd"
   xmlns:inkscape="http://www.inkscape.org/namespaces/inkscape"
   version="1.1"
   id="svg825"
   width="2666.6667"
   height="8000"
   viewBox="0 0 2666.6667 8000"
   sodipodi:docname="socials_github.svg"
   inkscape:version="0.92.5 (2060ec1f9f, 2020-04-08)">
  <metadata
     id="metadata831">
    <rdf:RDF>
      <cc:Work
         rdf:about="">
        <dc:format>image/svg+xml</dc:format>
        <dc:type
           rdf:resource="http://purl.org/dc/dcmitype/StillImage" />
        <dc:title></dc:title>
      </cc:Work>
    </rdf:RDF>
  </metadata>
  <defs
     id="defs829" />
  <sodipodi:namedview
     pagecolor="#ffffff"
     bordercolor="#666666"
     borderopacity="1"
     objecttolerance="10"
     gridtolerance="10"
     guidetolerance="10"
     inkscape:pageopacity="0"
     inkscape:pageshadow="2"
     inkscape:window-width="3000"
     inkscape:window-height="1859"
     id="namedview827"
     showgrid="false"
     inkscape:zoom="0.1668772"
     inkscape:cx="1349.405"
     inkscape:cy="4447.7007"
     inkscape:window-x="-13"
     inkscape:window-y="-13"
     inkscape:window-maximized="1"
     inkscape:current-layer="svg825" />
  <path
     style="fill:#ffffff;stroke-width:1.33333337"
     d="m 1228.6667,4471.2343 c -6.6,-0.9891 -18,-2.3968 -25.3334,-3.1284 -7.3333,-0.7315 -15.4293,-1.9546 -17.9912,-2.7179 -2.5618,-0.7635 -6.8186,-1.388 -9.4596,-1.388 -2.6411,0 -8.345,-1.1852 -12.6755,-2.6339 -4.3305,-1.4486 -9.6209,-2.6486 -11.7565,-2.6666 -2.1355,-0.019 -7.2355,-0.9907 -11.3333,-2.1614 -4.0978,-1.1706 -11.3505,-3.2254 -16.1172,-4.5664 -24.9363,-7.0145 -33.4415,-9.6101 -39.3333,-12.0038 -1.4667,-0.5959 -7.1667,-2.7119 -12.6667,-4.7023 -5.5,-1.9904 -13.1664,-5.0393 -17.0364,-6.7755 -3.8701,-1.7362 -7.4306,-3.1568 -7.9124,-3.1568 -1.9362,0 -38.1759,-17.7817 -51.71785,-25.3762 -5.13334,-2.879 -11.13334,-6.183 -13.33334,-7.3423 -4.82881,-2.5448 -7.66752,-4.2435 -14.66666,-8.7767 -2.93334,-1.8998 -9.83334,-6.3454 -15.33334,-9.8792 -9.76652,-6.2749 -38.67487,-26.8552 -40,-28.4765 -0.36667,-0.4487 -3.66667,-3.1784 -7.33333,-6.0663 -3.66667,-2.8877 -7.65302,-6.1877 -8.85856,-7.3333 -1.20554,-1.1455 -6.4247,-5.6828 -11.59812,-10.0828 -16.7455,-14.242 -61.35482,-60.8629 -68.20999,-71.2859 -1.1,-1.6725 -2.9,-3.9741 -4,-5.1146 -2.18207,-2.2627 -7.3792,-8.8502 -10.88723,-13.7998 -1.2213,-1.7232 -5.74981,-7.933 -10.06334,-13.7997 -4.31354,-5.8667 -11.92362,-17.2667 -16.91128,-25.3333 -4.98766,-8.0667 -10.20915,-16.2924 -11.60331,-18.2794 -1.39416,-1.9869 -2.53484,-4.4169 -2.53484,-5.4 0,-0.983 -0.66949,-2.4568 -1.48776,-3.275 -2.05648,-2.0566 -3.30792,-4.357 -13.00997,-23.9152 -4.67376,-9.4218 -9.32376,-18.723 -10.33334,-20.6695 -1.00958,-1.9465 -1.8356,-4.2539 -1.8356,-5.1275 0,-0.8737 -1.07188,-3.181 -2.38194,-5.1276 -1.31007,-1.9465 -3.17912,-5.9392 -4.15346,-8.8725 -0.97433,-2.9333 -2.54348,-7.1333 -3.487,-9.3333 -0.94352,-2.2 -3.38286,-8.5 -5.42077,-14 -2.03791,-5.5 -4.19689,-10.57 -4.79773,-11.2667 -0.60083,-0.6967 -1.09243,-2.9112 -1.09243,-4.9213 0,-2.01 -0.52771,-3.9808 -1.17268,-4.3794 -0.64497,-0.3986 -2.24009,-5.2574 -3.54472,-10.7973 -1.30463,-5.5399 -2.87692,-10.3847 -3.49399,-10.766 -0.61706,-0.3813 -1.12194,-2.4975 -1.12194,-4.7024 0,-2.2049 -0.66216,-5.2461 -1.47148,-6.7584 -0.80931,-1.5121 -1.94818,-5.8228 -2.5308,-9.5789 -0.58263,-3.7563 -1.96158,-10.1296 -3.06431,-14.163 -2.81039,-10.2792 -5.10364,-21.8528 -6.34061,-32 -0.58107,-4.7666 -1.73664,-11.9666 -2.56794,-16 -0.83129,-4.0333 -2.03602,-14.8333 -2.67717,-24 -0.64115,-9.1666 -1.84101,-25.9157 -2.66637,-37.2201 -1.11131,-15.2209 -1.11184,-25.7719 -0.003,-40.6667 0.82421,-11.0622 2.06004,-27.9132 2.74629,-37.4465 0.68626,-9.5333 1.89152,-20.3333 2.67839,-24 0.78687,-3.6667 1.927,-10.8667 2.53363,-16 0.60664,-5.1333 1.79938,-12.3333 2.65053,-16 0.85116,-3.6667 2.21208,-9.8447 3.02427,-13.7288 0.81217,-3.8841 1.97416,-7.3696 2.58216,-7.7453 0.60801,-0.3758 1.12674,-3.4979 1.15273,-6.9379 0.026,-3.4401 0.90472,-7.7547 1.95275,-9.588 1.04802,-1.8333 1.92677,-4.6536 1.95274,-6.2673 0.0768,-4.7652 12.05351,-41.1362 20.98684,-63.7327 5.90795,-14.9439 16.71576,-38.5821 21.64162,-47.3333 0.61916,-1.1 2.70233,-5.3 4.62926,-9.3334 1.92694,-4.0333 4.04958,-8.2333 4.71699,-9.3333 0.66741,-1.1 1.58031,-2.9 2.02864,-4 0.87195,-2.1393 1.7884,-3.7352 8.07025,-14.0533 2.2145,-3.6374 4.6145,-7.6358 5.33334,-8.8852 7.5074,-13.0498 36.90814,-53.7184 49.97365,-69.1262 21.18309,-24.9805 59.52483,-63.5762 75.32173,-75.8206 2.44658,-1.8964 10.19722,-8.1224 17.22366,-13.8355 12.87142,-10.4656 19.24305,-15.0795 38.78795,-28.0873 21.40494,-14.2459 25.84433,-16.8903 50.66668,-30.181 13.048,-6.9862 15.8685,-8.3986 22.6667,-11.3504 2.9333,-1.2736 7.5522,-3.4433 10.2641,-4.8214 2.712,-1.3782 5.7885,-2.5058 6.8368,-2.5058 1.0482,0 2.6528,-0.9 3.5657,-2 0.913,-1.1 2.6364,-1.9984 3.83,-1.9962 1.9422,0 6.9733,-2.1427 17.7091,-7.5534 1.9465,-0.981 5.0611,-1.7837 6.9213,-1.7837 1.8603,0 3.679,-0.4801 4.0417,-1.0669 0.3627,-0.5868 5.9481,-2.7615 12.412,-4.8326 6.4639,-2.071 12.7945,-4.2909 14.0679,-4.933 1.2733,-0.6422 3.1544,-1.1675 4.1802,-1.1675 1.0257,0 4.7839,-0.8765 8.3514,-1.9479 13.4448,-4.0374 25.4759,-7.1749 35.1531,-9.167 5.5,-1.1323 15.5444,-3.2947 22.3209,-4.8052 6.7765,-1.5107 14.4581,-2.7466 17.0701,-2.7466 2.6121,0 8.7677,-0.8554 13.6791,-1.9012 26.1972,-5.5773 132.5207,-5.2953 157.5966,0.418 3.3,0.7519 8.2556,1.3932 11.0124,1.4251 2.7568,0.032 10.5568,1.2875 17.3333,2.79 15.873,3.5196 28.7783,6.2904 32.9876,7.0827 1.8334,0.345 10.8334,2.8324 20,5.5274 9.1667,2.6951 18.4667,5.3878 20.6667,5.9836 8.2984,2.248 21.3813,6.95 22.6,8.1224 0.6967,0.6703 2.598,1.2187 4.2253,1.2187 1.6272,0 4.6572,0.8204 6.7334,1.8231 11.6305,5.6172 15.882,7.5173 16.8126,7.514 1.704,0 29.6108,13.1664 44.962,21.2228 1.1,0.5773 4.4,2.1784 7.3334,3.558 2.9333,1.3796 8.4545,4.4674 12.2693,6.862 3.8147,2.3944 7.2585,4.3534 7.6529,4.3534 1.8132,0 41.2366,26.0466 43.4376,28.6987 0.8983,1.0824 2.3099,1.9708 3.1367,1.9741 0.8269,0 3.3035,1.6535 5.5035,3.6667 2.2,2.0133 6.4,5.2915 9.3333,7.2849 2.9333,1.9935 7.3204,5.4435 9.7489,7.6667 2.4287,2.2232 4.6208,4.0423 4.8715,4.0423 1.752,0 36.3641,31.7598 50.0971,45.9688 13.614,14.0857 33.2825,36.0249 33.2825,37.1248 0,0.6482 6.5832,8.5064 11,13.1302 1.2833,1.3436 2.3333,2.8311 2.3333,3.3055 0,0.4745 2.1,3.4255 4.6667,6.5577 2.5667,3.1323 4.6667,6.3143 4.6667,7.0711 0,0.7568 0.75,1.8559 1.6666,2.4423 0.9167,0.5864 3.1591,3.1662 4.9831,5.7329 5.4921,7.728 18.6836,27.9021 18.6836,28.5732 0,0.3445 1.7792,3.2627 3.9537,6.4847 2.1746,3.2221 4.5888,7.3021 5.365,9.0669 0.7762,1.7647 2.8328,5.6085 4.5701,8.5419 3.9079,6.5978 16.1741,31.0469 22.744,45.3333 2.6979,5.8667 5.7592,12.2592 6.8029,14.2057 1.0436,1.9466 1.8999,4.6466 1.9026,6 0,1.3535 1.2028,4.4255 2.6666,6.8266 1.464,2.401 2.6618,5.2306 2.6618,6.288 0,1.0574 0.8522,3.8929 1.894,6.3012 3.11,7.1897 7.0781,18.5289 9.4644,27.0452 1.2329,4.4 2.7328,9.2 3.333,10.6666 0.6003,1.4667 2.0746,6.8667 3.276,12 1.2016,5.1334 2.6947,11.1334 3.3179,13.3334 0.6233,2.2 1.772,7 2.5527,10.6666 0.7806,3.6667 2.1354,9.6667 3.0108,13.3334 0.8753,3.6666 2.003,10.2666 2.5061,14.6666 0.5031,4.4 1.8641,12.8 3.0247,18.6667 7.6178,38.508 7.6398,133.6888 0.04,172.6667 -1.0724,5.5 -2.4947,14.2825 -3.1607,19.5168 -0.6659,5.2341 -1.8216,11.1232 -2.5681,13.0868 -0.7466,1.9634 -1.3574,5.339 -1.3574,7.5013 0,2.1621 -0.5456,4.9731 -1.2124,6.2465 -0.6668,1.2734 -2.1888,6.8152 -3.3824,12.3152 -1.1936,5.5 -2.6784,11.5 -3.2997,13.3334 -0.6212,1.8333 -1.8831,6.0333 -2.8041,9.3333 -2.2512,8.0661 -11.7072,37.3303 -13.1404,40.6667 -1.7246,4.0142 -6.2486,15.2377 -8.8679,22 -3.0036,7.7541 -16.1229,36.0564 -19.1597,41.3333 -0.6331,1.1 -2.4346,4.7 -4.0034,8 -1.5688,3.3 -4.303,8.4 -6.0761,11.3333 -1.7731,2.9334 -4.48,7.8128 -6.0153,10.8434 -4.4512,8.7862 -31.8172,49.3032 -42.6572,63.1566 -9.1003,11.63 -16.932,21.1759 -27.3478,33.3334 -8.417,9.8245 -49.4437,50.5689 -50.9673,50.6165 -0.8803,0.028 -2.0803,0.8001 -2.6667,1.7168 -1.1144,1.7419 -11.5625,10.7756 -24.2882,21 -13.9998,11.2481 -42.5646,31.6023 -48.0314,34.2252 -1.0561,0.5067 -5.8561,3.5647 -10.6666,6.7955 -4.8107,3.2308 -10.5467,6.7354 -12.7467,7.7881 -2.2,1.0527 -8.2,4.2704 -13.3333,7.1505 -23.6596,13.2746 -54.4283,27.4171 -77.3334,35.5454 -5.1333,1.8217 -10.5333,3.8149 -12,4.4293 -4.2609,1.7852 -14.0178,4.9128 -22.6666,7.2659 -4.4,1.1972 -11.9,3.3172 -16.6667,4.7113 -16.6433,4.8675 -20.7133,5.8875 -27.3333,6.8499 -3.6667,0.5329 -10.5667,1.8853 -15.3334,3.0052 -14.0805,3.3081 -25.278,5.2137 -37.3333,6.3533 -6.2333,0.5892 -17.9333,1.9839 -26,3.0992 -19.1511,2.6479 -89.0336,2.658 -106.6667,0.016 z m -102.3095,-166.4947 c 0.2051,-19.0805 -0.1674,-33.7499 -0.8749,-34.4573 -0.7539,-0.7539 -5.0326,-0.5303 -11.0239,0.5761 -12.7494,2.3544 -56.7679,2.324 -65.1251,-0.045 -3.3,-0.9355 -8.7,-2.182 -12,-2.77 -6.6499,-1.185 -12.6407,-3.153 -20.6666,-6.7891 -2.9334,-1.3289 -6.2334,-2.7784 -7.3334,-3.2209 -6.5047,-2.6172 -19.31583,-11.7894 -27.82287,-19.9198 -15.1533,-14.4824 -21.19106,-23.8646 -32.24951,-50.1137 -13.09497,-31.0831 -29.28614,-52.4108 -50.03467,-65.9083 -9.32899,-6.0686 -20.00357,-15.9714 -22.66419,-21.0254 -3.09842,-5.8858 -2.40629,-12.4856 1.77128,-16.8898 5.38879,-5.681 13.29639,-8.1765 25.90979,-8.1765 17.83984,0 34.40799,6.1864 52.42355,19.5744 13.65257,10.1457 23.76583,21.3459 36.08729,39.9657 14.62393,22.0994 27.75013,34.485 44.57933,42.0643 7.732,3.4821 26.7878,7.7392 34.6667,7.7444 5.8173,0 31.7302,-3.9847 35.3333,-5.4385 1.4667,-0.5919 4.1667,-1.4903 6,-1.9964 1.8334,-0.5063 6.3971,-2.055 10.1418,-3.4414 5.8738,-2.1746 7.1239,-3.2952 9.1072,-8.1633 4.9282,-12.096 8.279,-17.8816 13.8301,-23.8795 5.4788,-5.92 5.6365,-6.3097 3.1009,-7.6666 -1.4692,-0.7864 -4.6182,-1.4298 -6.9976,-1.4298 -2.3795,0 -6.169,-0.5529 -8.421,-1.2288 -2.2521,-0.6757 -9.7947,-2.5164 -16.7614,-4.0902 -19.6795,-4.4458 -42.5293,-11.0956 -48.4413,-14.0976 -2.0761,-1.0542 -4.6836,-1.9167 -5.7943,-1.9167 -1.1108,0 -3.6122,-0.8027 -5.5586,-1.7837 -1.9465,-0.981 -6.2391,-2.9911 -9.5391,-4.4668 -19.5323,-8.735 -29.1864,-14.2934 -47.6984,-27.463 -10.54085,-7.4988 -35.29396,-31.4802 -39.77141,-38.5316 -1.71536,-2.7014 -4.22414,-6.0014 -5.57504,-7.3333 -2.81986,-2.7801 -16.03751,-24.1387 -19.23883,-31.0883 -7.28816,-15.821 -10.38298,-22.825 -10.38298,-23.4981 0,-0.4208 -0.84529,-2.6557 -1.87841,-4.9667 -1.03313,-2.3108 -2.19096,-5.7014 -2.57295,-7.5348 -0.382,-1.8333 -2.28726,-8.4333 -4.23394,-14.6666 -1.94668,-6.2334 -4.06082,-14.0334 -4.69808,-17.3334 -0.63728,-3.3 -1.77386,-9 -2.52575,-12.6666 -5.93419,-28.9387 -6.76752,-37.429 -6.73972,-68.6667 0.0239,-26.8105 0.4062,-32.7768 2.64885,-41.3333 1.44154,-5.5 2.65759,-12.4 2.70235,-15.3334 0.0448,-2.9333 0.946,-7.7333 2.00277,-10.6666 1.05676,-2.9334 1.93043,-6.3648 1.94147,-7.6255 0.0205,-2.3503 5.09367,-18.552 8.04961,-25.7079 0.90879,-2.2 2.38978,-5.8 3.29111,-8 6.80561,-16.6114 20.86231,-39.8308 31.20035,-51.5378 5.58565,-6.3255 6.58268,-9.9086 4.06573,-14.6115 -0.7773,-1.4524 -1.95969,-5.7631 -2.62753,-9.5791 -0.66784,-3.816 -2.13187,-11.138 -3.25339,-16.271 -2.83264,-12.9647 -2.8009,-53.6714 0.0525,-67.3339 1.14868,-5.5 2.58581,-13.0733 3.19362,-16.8296 0.60782,-3.7561 1.76728,-8.0668 2.57659,-9.5789 0.80932,-1.5123 1.47148,-3.9955 1.47148,-5.5184 0,-2.5946 1.98592,-7.7 8.14213,-20.9322 1.69279,-3.6384 4.11178,-6.2569 7.08252,-7.6666 5.77682,-2.7414 21.17122,-2.7708 32.77535,-0.063 4.7667,1.1123 11.9667,2.6311 16,3.3749 4.0334,0.7439 7.9034,1.9214 8.6,2.6164 0.6967,0.6952 2.6307,1.264 4.2977,1.264 2.7748,0 9.888,2.7206 19.5437,7.4748 2.0761,1.0222 4.8527,1.8586 6.1701,1.8586 1.3174,0 3.1423,0.9 4.0552,2 0.9129,1.1 2.5547,2 3.6484,2 1.0937,0 4.1702,1.1472 6.8367,2.5492 2.6665,1.4021 5.7482,2.9098 6.8482,3.3505 1.1,0.4408 4.7,2.3448 8,4.2311 3.3,1.8862 8.7,4.8665 12,6.6228 3.3,1.7562 12,7.1308 19.3334,11.9433 15.199,9.9744 13.5559,9.7981 36.6666,3.9348 7.7,-1.9535 17.7745,-4.0745 22.3878,-4.7133 4.6132,-0.639 8.977,-1.5259 9.6973,-1.971 0.7202,-0.4452 8.0457,-1.3786 16.2789,-2.0745 8.2332,-0.6959 22.1694,-1.8824 30.9694,-2.6368 21.3408,-1.8293 59.8002,-1.8055 82,0.051 9.9,0.8278 24.9,2.041 33.3333,2.6961 8.4333,0.6549 17.4293,1.8265 19.9912,2.6036 2.5619,0.7771 6.7192,1.4129 9.2387,1.4129 2.5194,0 6.4234,0.575 8.6754,1.2776 4.5762,1.4279 26.2015,6.6791 31.5544,7.6623 2.647,0.4861 6.4472,-1.3761 16.1768,-7.9271 6.9943,-4.7093 18.3375,-11.4072 25.207,-14.8842 13.7224,-6.9456 14.9542,-7.5751 19.8232,-10.1295 1.8333,-0.9619 4.2333,-2.1536 5.3333,-2.6483 1.1,-0.4948 3.9987,-1.901 6.4413,-3.1252 2.4428,-1.2241 5.1034,-2.2256 5.9124,-2.2256 1.3671,0 10.6858,-3.9448 15.9346,-6.7453 2.2286,-1.1892 5.9492,-2.2417 21.045,-5.9537 4.0334,-0.9919 10.6334,-2.7332 14.6667,-3.8696 9.1821,-2.5874 27.9076,-2.7295 33.8253,-0.257 4.3314,1.8098 10.1747,10.3847 10.1747,14.9311 0,1.1128 1.2,4.5071 2.6667,7.5427 1.4666,3.0357 2.6666,7.6866 2.6666,10.3356 0,2.6489 0.6176,5.4338 1.3726,6.1888 0.7549,0.7549 1.9333,5.8249 2.6185,11.2666 0.6853,5.4418 2.1669,14.3942 3.2925,19.8942 2.7856,13.6109 2.7151,48.4017 -0.12,59.3333 -1.1412,4.4 -2.5042,10.7 -3.0289,14 -0.5247,3.3 -1.6696,7.3105 -2.5443,8.9124 -3.0488,5.5837 -1.8637,10.0655 4.7551,17.9813 10.3352,12.361 16.5069,21.323 23.258,33.773 4.7307,8.7241 14.3968,30.849 14.3968,32.9529 0,0.7209 0.8496,3.2013 1.888,5.5123 1.0383,2.3108 2.1824,6.0014 2.5423,8.2014 1.0133,6.1947 6.0562,31.3411 7.5576,37.6859 1.7845,7.5412 1.7437,63.6303 -0.056,76.3141 -6.8767,48.4792 -9.0688,59.6486 -14.9158,76 -5.9696,16.6948 -16.4456,39.9104 -21.0581,46.6667 -1.2516,1.8333 -4.8476,7.2333 -7.9912,12 -3.1436,4.7667 -6.2223,8.8667 -6.8416,9.1111 -0.6192,0.2445 -1.1259,0.9456 -1.1259,1.558 0,3.1266 -26.1442,29.8725 -39.3333,40.2385 -15.0843,11.8555 -27.7685,19.6797 -47.3333,29.1973 -6.2334,3.0324 -12.9259,6.3492 -14.8724,7.371 -1.9466,1.0216 -4.7611,1.8574 -6.2547,1.8574 -1.4936,0 -3.0487,0.5391 -3.456,1.198 -0.8971,1.4515 -21.2343,8.1354 -24.7539,8.1354 -1.3781,0 -2.8345,0.532 -3.2362,1.1821 -0.4019,0.6503 -2.9874,1.5701 -5.7455,2.0443 -2.758,0.474 -9.8147,1.9914 -15.6813,3.3721 -18.4252,4.3363 -23.7427,5.3403 -33.0375,6.2379 -4.9707,0.4801 -9.2737,1.255 -9.5624,1.7221 -0.2887,0.4672 0.6372,2.3325 2.0576,4.1455 15.5621,19.8617 23.3628,36.0785 27.8816,57.9626 0.9085,4.4 2.1756,10.1 2.8155,12.6667 0.64,2.5667 1.167,32.4695 1.171,66.4505 l 0.013,61.7839 5.6666,-0.9509 c 3.1167,-0.5231 6.8502,-1.7759 8.2967,-2.7839 1.4465,-1.0081 3.7648,-1.8329 5.1519,-1.8329 1.3869,0 4.7034,-1.1296 7.3698,-2.5102 2.6666,-1.3806 7.5483,-3.5657 10.8483,-4.8558 18.5761,-7.2624 55.436,-26.7982 74.4451,-39.456 5.3781,-3.5812 10.0533,-6.5114 10.3896,-6.5114 0.3361,0 1.3358,-0.5909 2.2216,-1.3132 7.1201,-5.8062 10.1174,-8.0201 10.8586,-8.0201 0.4748,0 2.1882,-1.2627 3.8075,-2.8061 1.6193,-1.5434 4.4443,-3.7644 6.2776,-4.9358 1.8333,-1.1714 4.2333,-2.922 5.3333,-3.8901 5.2204,-4.5948 12,-10.3385 18.9067,-16.0179 17.392,-14.3012 49.4976,-48.9481 67.6613,-73.0168 6.641,-8.8 12.83,-16.878 13.7534,-17.951 1.7606,-2.0464 4.2376,-6.0006 5.877,-9.3823 0.5332,-1.1 2.844,-4.7 5.135,-8 2.2909,-3.3 4.5901,-6.9 5.1093,-8 0.5192,-1.1 2.3743,-4.4 4.1225,-7.3333 14.0166,-23.5187 36.2975,-72.8806 40.1784,-89.0126 0.4868,-2.0236 1.4187,-4.009 2.0708,-4.4121 0.6522,-0.4029 1.1859,-2.0473 1.1863,-3.654 4e-4,-1.6068 1.1311,-5.9213 2.5128,-9.588 1.3816,-3.6667 2.9335,-9.2135 3.4487,-12.3264 0.515,-3.1128 1.4844,-5.9981 2.1538,-6.412 0.6696,-0.4137 1.2174,-2.6141 1.2174,-4.8897 0,-2.2756 0.8665,-7.1903 1.9257,-10.9214 2.9932,-10.5448 6.1744,-29.4709 7.4152,-44.1172 0.6213,-7.3333 1.7739,-16.5652 2.5611,-20.5153 1.8896,-9.4816 1.8584,-73.3668 -0.041,-83.5731 -0.8097,-4.3514 -1.9364,-13.6116 -2.5037,-20.5782 -1.0952,-13.449 -4.3213,-32.2431 -7.4584,-43.4506 -1.0444,-3.731 -1.8989,-8.6125 -1.8989,-10.8476 0,-2.235 -0.8963,-5.7822 -1.9918,-7.8828 -1.0956,-2.1005 -1.9956,-4.8626 -2,-6.1381 0,-1.2755 -1.208,-5.4755 -2.6742,-9.3333 -1.4663,-3.8579 -2.6663,-8.3288 -2.6667,-9.9356 -4e-4,-1.6067 -0.5341,-3.2511 -1.1863,-3.654 -0.6521,-0.4031 -1.5736,-2.3886 -2.0477,-4.4122 -0.7867,-3.3574 -4.7241,-14.428 -7.4735,-21.0125 -0.6124,-1.4667 -3.4928,-8.3667 -6.4009,-15.3333 -6.0547,-14.5043 -26.1225,-54.2728 -28.9807,-57.4311 -1.0513,-1.1617 -1.9116,-2.5212 -1.9116,-3.0209 0,-0.4998 -2.1,-3.8964 -4.6666,-7.548 -2.5667,-3.6516 -4.6667,-6.9392 -4.6667,-7.3056 0,-0.6923 -5.7021,-8.9666 -16,-23.2174 -17.6793,-24.466 -58.1316,-67.4001 -80.6667,-85.616 -19.4552,-15.7262 -33.7001,-26.5277 -34.9849,-26.5277 -0.6976,0 -2.3544,-1.2 -3.6817,-2.6667 -1.3274,-1.4666 -2.9264,-2.6666 -3.5536,-2.6666 -0.6272,0 -4.1282,-2.1 -7.7798,-4.6667 -3.6516,-2.5667 -6.9153,-4.6667 -7.2528,-4.6667 -0.3374,0 -3.1936,-1.716 -6.347,-3.8134 -5.6323,-3.7462 -23.9195,-13.7627 -35.7335,-19.5724 -12.8457,-6.3172 -26.8676,-12.6142 -28.0887,-12.6142 -0.7045,0 -2.3226,-0.5485 -3.5961,-1.219 -10.472,-5.5142 -47.9855,-17.6699 -68.3152,-22.1368 -5.5,-1.2086 -13.6,-3.1058 -18,-4.2162 -38.0333,-9.5981 -120.9861,-12.033 -170,-4.9901 -16.0356,2.3043 -37.6676,6.5916 -47.1531,9.3456 -3.5675,1.0357 -8.0975,1.8832 -10.0667,1.8832 -1.9691,0 -4.1502,0.4957 -4.8469,1.1015 -0.6966,0.6058 -3.9666,1.8936 -7.2666,2.8617 -7.3471,2.1553 -23.1216,7.5569 -40,13.6969 -22.4936,8.183 -62.8106,28.349 -82,41.0155 -2.9334,1.9363 -8.9334,5.8708 -13.3334,8.7435 -15.30672,9.9936 -37.92607,27.3916 -52.40653,40.3093 -15.18732,13.5484 -42.23038,41.5697 -51.82614,53.7011 -2.07204,2.6194 -4.85867,5.8537 -6.19251,7.187 -1.33385,1.3334 -3.41944,3.9902 -4.63466,5.9039 -1.21522,1.9137 -2.97388,3.9595 -3.90815,4.5459 -0.93428,0.5864 -1.69868,1.8629 -1.69868,2.8366 0,0.9739 -0.88716,2.5068 -1.97145,3.4067 -1.68947,1.4021 -9.92808,13.0152 -16.69522,23.5333 -12.34538,19.1883 -29.70793,51.3631 -36.59993,67.8238 -1.22817,2.9333 -3.39729,7.7333 -4.82025,10.6666 -1.42298,2.9334 -2.58556,6.0347 -2.58352,6.892 0.003,0.8572 -0.82971,3.2572 -1.84832,5.3334 -1.01862,2.076 -2.51862,5.7246 -3.33334,8.108 -0.81472,2.3833 -2.14789,6.2833 -2.96261,8.6666 -0.81472,2.3834 -2.31472,6.032 -3.33333,8.108 -1.01862,2.0762 -1.85203,5.2058 -1.85203,6.9548 0,1.7491 -0.84752,5.1504 -1.88339,7.5587 -1.03585,2.4081 -2.63838,7.8565 -3.56118,12.1073 -0.9228,4.2508 -2.17528,8.0363 -2.78328,8.412 -0.60802,0.3758 -1.10548,2.6526 -1.10548,5.0594 0,2.4068 -0.89351,7.3214 -1.98558,10.9213 -1.09205,3.5999 -1.99205,8.5389 -2,10.9756 -0.008,2.4368 -1.16833,9.3368 -2.57866,15.3333 -1.41032,5.9967 -2.88186,16.603 -3.27007,23.5696 -0.3882,6.9667 -1.40235,20.8427 -2.25364,30.8355 -1.19597,14.0388 -1.17532,23.1312 0.0909,40 0.90128,12.0072 2.09202,28.1312 2.64607,35.8312 0.94655,13.1544 2.88045,24.9432 7.43677,45.3333 1.06515,4.7667 1.9316,10.2512 1.92544,12.1878 -0.007,1.9365 1.17563,6.1365 2.62619,9.3333 1.45056,3.1968 2.67181,7.6123 2.71391,9.8123 0.0421,2.2 0.93401,5.5 1.98204,7.3333 1.04802,1.8333 1.94585,5.1333 1.99516,7.3333 0.0493,2.2 0.97057,5.1647 2.04724,6.5882 1.07668,1.4236 1.9576,3.8324 1.9576,5.353 0,1.5208 1.2,5.0039 2.66666,7.7404 1.46667,2.7364 2.66667,6.3576 2.66667,8.047 0,1.6893 0.53867,3.6414 1.19703,4.3381 0.65837,0.6967 4.04402,7.8667 7.52366,15.9333 10.31118,23.9038 26.77744,54.7067 39.09175,73.1275 6.33649,9.4787 12.12089,18.1739 12.85423,19.3227 1.83408,2.8732 10.93978,15.1024 13.06748,17.5498 0.95628,1.1 3.79002,4.7 6.29722,8 10.81655,14.2368 53.40379,57.1371 67.30197,67.7967 4.4,3.3747 9.2,7.2637 10.66666,8.6423 1.46667,1.3785 4.16667,3.4832 6,4.6768 1.83334,1.1937 7.01364,5.0309 11.5118,8.5273 4.4981,3.4963 8.5882,6.3569 9.0889,6.3569 0.5008,0 2.8205,1.4535 5.1549,3.23 11.0679,8.423 57.1125,33.3087 78.911,42.6491 2.2,0.9427 6.8661,3.0055 10.369,4.5841 3.503,1.5786 7.4195,2.8702 8.7034,2.8702 1.2838,0 3.5347,0.8408 5.002,1.8685 1.4672,1.0277 4.1507,2.152 5.9633,2.4984 7.626,1.4575 7.2662,3.0072 7.6528,-32.9607 z"
     id="path1378"
     inkscape:connector-curvature="0"
     sodipodi:nodetypes="cccscccccscsccccccccccccccsccssccsscssscscccccssccscccccccsccsccccccccccscccssccscccsccccccccscccccscccccscscscsccscccccccscscccccsccccssscccccscccccccccsccccccsccccccsccccsscccsscccccccccscccsccccccsccccccsccccsccsccccsccsccscsssccccccccscccssccsscccsccccscsscccsccssccccccscscccscsccccccccccccscccscsssccscccscccscccsccccccscccscccccscsccscsssccscccccsccccccccscscscccccccscscsccccsccscsscccscsccccccscccscccscccc" />
</svg>
