<?xml version="1.0" encoding="UTF-8" standalone="no"?>
<!-- Created with Inkscape (http://www.inkscape.org/) -->

<svg
   xmlns:dc="http://purl.org/dc/elements/1.1/"
   xmlns:cc="http://creativecommons.org/ns#"
   xmlns:rdf="http://www.w3.org/1999/02/22-rdf-syntax-ns#"
   xmlns:svg="http://www.w3.org/2000/svg"
   xmlns="http://www.w3.org/2000/svg"
   xmlns:sodipodi="http://sodipodi.sourceforge.net/DTD/sodipodi-0.dtd"
   xmlns:inkscape="http://www.inkscape.org/namespaces/inkscape"
   version="1.1"
   id="svg825"
   width="2666.6667"
   height="8000"
   viewBox="0 0 2666.6667 8000"
   sodipodi:docname="socials_discord.svg"
   inkscape:version="0.92.5 (2060ec1f9f, 2020-04-08)">
  <metadata
     id="metadata831">
    <rdf:RDF>
      <cc:Work
         rdf:about="">
        <dc:format>image/svg+xml</dc:format>
        <dc:type
           rdf:resource="http://purl.org/dc/dcmitype/StillImage" />
        <dc:title></dc:title>
      </cc:Work>
    </rdf:RDF>
  </metadata>
  <defs
     id="defs829" />
  <sodipodi:namedview
     pagecolor="#ffffff"
     bordercolor="#666666"
     borderopacity="1"
     objecttolerance="10"
     gridtolerance="10"
     guidetolerance="10"
     inkscape:pageopacity="0"
     inkscape:pageshadow="2"
     inkscape:window-width="3000"
     inkscape:window-height="1859"
     id="namedview827"
     showgrid="false"
     inkscape:zoom="0.1668772"
     inkscape:cx="1349.405"
     inkscape:cy="4447.7007"
     inkscape:window-x="-13"
     inkscape:window-y="-13"
     inkscape:window-maximized="1"
     inkscape:current-layer="svg825" />
  <path
     style="fill:#ffffff;stroke-width:1.33333337"
     d="m 1857.2399,7723.8823 c -1.7819,-1.5656 -5.9399,-5.0298 -9.2399,-7.6978 -3.3,-2.6681 -6.3,-5.1802 -6.6666,-5.5824 -0.3667,-0.4021 -9.9667,-8.4829 -21.3334,-17.9573 -11.3666,-9.4744 -21.3278,-17.8453 -22.136,-18.6021 -0.8081,-0.7568 -4.3942,-3.776 -7.969,-6.7094 -3.575,-2.9333 -8.6138,-7.1844 -11.1974,-9.4469 -2.5837,-2.2624 -8.9333,-7.6624 -14.1102,-12 -5.177,-4.3375 -13.877,-11.7241 -19.3334,-16.4147 -5.4564,-4.6905 -13.2206,-11.3506 -17.254,-14.8004 -28.2446,-24.1577 -40.1133,-34.3956 -45.4232,-39.1818 -7.1954,-6.486 -17.2168,-15.2554 -39.9101,-34.9239 -9.1667,-7.9448 -16.9667,-14.7775 -17.3333,-15.1839 -0.3667,-0.4062 -5.462,-4.9333 -11.3231,-10.0602 -5.8609,-5.1268 -13.3609,-11.7996 -16.6667,-14.8286 -3.3056,-3.0289 -10.2102,-9.0205 -15.3436,-13.3146 -5.1333,-4.2942 -10.4965,-8.866 -11.9181,-10.1596 -6.3008,-5.7335 -6.1145,-1.6622 1.0512,22.9813 2.6655,9.1667 6.3207,21.4667 8.1227,27.3333 10.2605,33.4056 15.7669,54.0875 14.6884,55.1702 -1.8867,1.8938 -67.4208,2.6617 -303.9442,3.561 -295.46879,1.1236 -423.8391,-0.5238 -457.99999,-5.8776 -13.13768,-2.059 -26.20055,-7.8762 -41.63504,-18.541 -26.31692,-18.1844 -47.21215,-46.808 -52.45972,-71.8627 -4.80013,-22.9181 -5.24059,-62.4089 -5.16529,-463.1165 0.0733,-390.5843 0.47178,-427.9432 4.69202,-440 10.42811,-29.792 24.29164,-49.6928 45.99872,-66.03 15.4592,-11.635 31.09264,-19.2207 49.7409,-24.1355 13.90572,-3.6648 146.86945,-5.1065 470.8284,-5.1053 322.1366,0 443.7986,1.3774 458.6667,5.1884 14.5005,3.7165 17.2113,4.7033 28.6667,10.435 25.6052,12.8116 45.8772,33.133 58.1722,58.314 10.5091,21.5232 11.7531,26.8747 13.0542,56.1574 1.707,38.4178 1.0769,1104.186 -0.6532,1104.7626 -0.7847,0.2616 -2.8847,-0.8053 -4.6667,-2.371 z m -735.0864,-424.1839 c 2.1156,-1.6325 5.3822,-4.4825 7.2591,-6.3333 5.1258,-5.0544 25.1567,-29.2751 28.9441,-34.9983 4.2941,-6.4888 3.2568,-7.7923 -11.69,-14.6895 -35.4063,-16.3382 -49.1424,-24.2033 -65.3334,-37.4085 -28.2434,-23.0351 -25.8445,-23.4267 18,-2.9381 18.0878,8.4524 49.544,20.3508 65.3334,24.7126 2.2,0.6078 7.3,2.0996 11.3333,3.3154 4.0333,1.2157 9.7333,2.7308 12.6667,3.3668 2.9333,0.6361 9.5333,2.0944 14.6666,3.2408 13.2644,2.9621 23.8675,4.7174 53.3334,8.8294 18.3153,2.5559 85.3345,2.1346 104.6667,-0.658 31.3076,-4.5225 44.0081,-7.0289 64.6666,-12.7617 21.9202,-6.0829 51.3944,-15.7817 53.2667,-17.528 0.6967,-0.6497 2.3548,-1.1813 3.6848,-1.1813 1.3299,0 3.4599,-0.571 4.7333,-1.2688 1.2734,-0.6978 4.7152,-2.2575 7.6486,-3.4659 8.1197,-3.3451 18.6425,-8.2757 33.145,-15.5304 14.3495,-7.1781 20.5859,-7.7981 13.433,-1.3355 -9.6498,8.7186 -35.4371,28.2672 -37.2883,28.2672 -0.4132,0 -3.8857,1.95 -7.7169,4.3334 -3.8312,2.3833 -9.0524,5.3716 -11.6027,6.6406 -7.7888,3.876 -36.4376,15.6927 -38.0455,15.6927 -0.8313,0 -2.5834,1.1847 -3.8937,2.6325 -2.2883,2.5284 -2.2867,2.7788 0.039,6.3334 2.0982,3.2069 24.2434,29.8688 33.8568,40.7621 3.1902,3.6149 3.6641,3.7211 15.6252,3.4981 11.2717,-0.2101 34.842,-3.2582 49.7813,-6.4377 27.4652,-5.8453 76.0333,-28.9361 97.2605,-46.2405 17.9063,-14.5974 36.8511,-33.5475 38.9468,-38.958 1.3986,-3.6106 -0.1584,-52.6382 -2.2733,-71.5899 -3.1019,-27.7959 -7.2573,-52.7097 -13.4545,-80.6667 -1.0566,-4.7666 -2.5751,-11.6666 -3.3743,-15.3333 -0.7992,-3.6667 -2.2012,-9.3667 -3.1156,-12.6667 -0.9143,-3.3 -2.2943,-8.4 -3.0665,-11.3333 -6.0888,-23.1284 -12.4478,-43.3241 -21.6207,-68.6667 -3.0525,-8.4333 -6.0211,-16.8333 -6.5965,-18.6666 -1.1751,-3.7428 -17.0551,-42.0238 -18.7724,-45.2535 -0.6084,-1.1439 -4.5147,-9.2219 -8.6807,-17.9509 -9.2493,-19.3799 -14.2081,-24.9738 -31.7755,-35.8447 -22.5332,-13.9437 -69.3826,-35.6176 -76.99,-35.6176 -1.2814,0 -2.658,-0.5308 -3.0589,-1.1796 -0.4011,-0.6488 -2.3864,-1.4632 -4.4121,-1.8099 -2.0256,-0.3466 -8.183,-1.8556 -13.683,-3.3532 -17.811,-4.8497 -45.3709,-9.6573 -55.3612,-9.6573 -10.6922,0 -20.7097,10.3065 -12.3054,12.6607 1.65,0.4621 4.2,1.339 5.6666,1.9488 1.4667,0.6096 5.6667,2.1185 9.3334,3.353 3.6666,1.2346 7.8666,2.7446 9.3333,3.3556 1.4667,0.6111 8.6667,3.3392 16,6.0627 19.7637,7.3399 25.7975,9.8925 42,17.768 6.2333,3.0299 14.6333,7.3836 18.6667,9.6752 4.0333,2.2915 9.1333,5.1583 11.3333,6.3707 12.4521,6.8621 26.3648,16.6837 24.5093,17.3022 -0.9401,0.3134 -1.9393,-0.12 -2.2204,-0.9636 -0.2812,-0.8433 -1.4717,-1.5333 -2.6457,-1.5333 -1.174,0 -4.574,-1.1407 -7.5556,-2.5348 -49.3625,-23.0811 -110.8649,-38.8688 -173.4209,-44.5171 -22.5007,-2.0316 -81.6806,-1.995 -104.6667,0.064 -43.3485,3.8846 -70.1089,8.6252 -108.6667,19.2507 -6.0891,1.678 -24.0132,7.4792 -28,9.0623 -1.4667,0.5824 -5.6667,2.0689 -9.3333,3.3034 -3.6667,1.2346 -7.8667,2.7676 -9.3334,3.407 -14.4675,6.3058 -30.4391,12.0646 -32.3304,11.6572 -4.8135,-1.037 36.6881,-24.7095 62.3304,-35.5534 4.0334,-1.7056 10.6334,-4.604 14.6667,-6.4408 15.4431,-7.0326 45.9976,-18.2754 58.9747,-21.7002 8.8478,-2.335 10.1849,-4.385 5.6194,-8.616 -4.0614,-3.764 -11.0709,-4.4183 -22.8257,-2.1306 -3.5393,0.6888 -10.6351,1.9416 -15.7684,2.7839 -11.7698,1.9313 -24.5573,4.774 -34,7.5581 -10.9849,3.239 -26.8951,8.4412 -30.6667,10.0274 -1.8333,0.7709 -4.5333,1.8808 -6,2.4665 -8.8358,3.528 -14.9077,6.3241 -28,12.8939 -8.0666,4.048 -16.2592,8.4829 -18.2058,9.8556 -1.9465,1.3725 -3.9158,2.4956 -4.3761,2.4956 -2.674,0 -22.1504,15.3938 -25.6051,20.238 -4.6566,6.529 -20.64575,39.0446 -27.09254,55.0953 -2.35636,5.8667 -4.78055,11.8667 -5.38708,13.3333 -5.04341,12.1955 -9.81272,24.9291 -13.983,37.3334 -2.71199,8.0666 -5.43961,15.8666 -6.06137,17.3333 -1.61764,3.8159 -9.38787,30.0759 -13.01943,44 -7.81265,29.9553 -11.1568,45.49 -16.79102,78 -3.14678,18.1573 -4.61262,29.8531 -6.76789,54 -3.63341,40.7079 -4.36628,58.3259 -2.57905,62 1.68113,3.456 24.55441,25.3699 38.53509,36.9188 17.13588,14.1553 51.20929,33.0143 70.66669,39.1125 2.9333,0.9194 6.5333,2.1043 8,2.6334 14.3,5.1577 44.5486,11.4202 60,12.4224 16.4421,1.0662 17.5832,0.957 21.4868,-2.0554 z m 44.4353,-153.6977 c -11.8229,-3.2454 -21.7423,-9.081 -30.5888,-17.9956 -9.6433,-9.7178 -12.4533,-14.5555 -16.654,-28.6718 -2.5175,-8.4601 -2.5806,-27.6893 -0.1218,-37.1292 6.9767,-26.7856 28.2681,-45.2321 57.2185,-49.5736 8.7506,-1.3122 27.1745,3.3071 36.1196,9.056 11.632,7.4758 22.9939,20.5448 28.1186,32.3435 3.5462,8.1644 4.2484,30.278 1.3438,42.3224 -6.7953,28.1787 -21.6956,43.2127 -49.1074,49.5483 -10.4898,2.4245 -17.7596,2.4521 -26.3285,0.1 z m 232.7446,-0.5004 c -19.2976,-6.6943 -32.1267,-18.3476 -40.5498,-36.8336 -4.7097,-10.3364 -6.7614,-32.5192 -4.113,-44.4692 6.1408,-27.7079 28.08,-47.3324 56.6628,-50.6847 8.1125,-0.9515 22.0232,0.9963 28.6666,4.0137 1.8334,0.8327 5.4172,2.4799 7.9642,3.6604 4.0261,1.8662 17.8962,14.5692 22.1697,20.3046 0.8071,1.0829 3.1921,6.1404 5.3001,11.2388 3.6122,8.736 3.8348,10.3842 3.8662,28.6281 l 0.033,19.3585 -4.5604,9.2666 c -5.3219,10.8134 -20.0379,26.3168 -29.4396,31.0145 -14.5217,7.2563 -32.8813,9.0532 -46,4.5023 z"
     id="path1378"
     inkscape:connector-curvature="0"
     sodipodi:nodetypes="ccccccccccccccccccccscccssccccccscccccscccccccsccsscccsccscccccccccscccccccscccsccccccccccscccccccccccccccccccscccccssscsccccccccccccccccccccccccccccc" />
</svg>
