<?xml version="1.0" encoding="UTF-8" standalone="no"?>
<!-- Created with Inkscape (http://www.inkscape.org/) -->

<svg
   xmlns:dc="http://purl.org/dc/elements/1.1/"
   xmlns:cc="http://creativecommons.org/ns#"
   xmlns:rdf="http://www.w3.org/1999/02/22-rdf-syntax-ns#"
   xmlns:svg="http://www.w3.org/2000/svg"
   xmlns="http://www.w3.org/2000/svg"
   xmlns:sodipodi="http://sodipodi.sourceforge.net/DTD/sodipodi-0.dtd"
   xmlns:inkscape="http://www.inkscape.org/namespaces/inkscape"
   version="1.1"
   id="svg1382"
   width="2560"
   height="2560"
   viewBox="0 0 2560 2560"
   sodipodi:docname="socials_github.svg"
   inkscape:version="0.92.5 (2060ec1f9f, 2020-04-08)">
  <metadata
     id="metadata1388">
    <rdf:RDF>
      <cc:Work
         rdf:about="">
        <dc:format>image/svg+xml</dc:format>
        <dc:type
           rdf:resource="http://purl.org/dc/dcmitype/StillImage" />
        <dc:title></dc:title>
      </cc:Work>
    </rdf:RDF>
  </metadata>
  <defs
     id="defs1386" />
  <sodipodi:namedview
     pagecolor="#ffffff"
     bordercolor="#666666"
     borderopacity="1"
     objecttolerance="10"
     gridtolerance="10"
     guidetolerance="10"
     inkscape:pageopacity="0"
     inkscape:pageshadow="2"
     inkscape:window-width="3000"
     inkscape:window-height="1859"
     id="namedview1384"
     showgrid="false"
     inkscape:zoom="0.36875"
     inkscape:cx="1199.5565"
     inkscape:cy="1620.7392"
     inkscape:window-x="-13"
     inkscape:window-y="-13"
     inkscape:window-maximized="1"
     inkscape:current-layer="svg1382" />
  <path
     style="fill:#553c9a;stroke-width:1.33333337;fill-opacity:1"
     d="m 1206,2300.0504 c -11,-0.5837 -25.4,-2.0029 -32,-3.1536 -6.6,-1.1508 -19.73,-2.7881 -29.1778,-3.6387 -9.4478,-0.8504 -19.0478,-2.0901 -21.3334,-2.7549 -2.2855,-0.6647 -12.2555,-2.4315 -22.1555,-3.9263 -9.9,-1.4946 -22.2,-3.8356 -27.3333,-5.2018 -5.1333,-1.3663 -12.8329,-2.8839 -17.1101,-3.3727 -4.2772,-0.4887 -11.0043,-1.9989 -14.9491,-3.3561 -3.9448,-1.3572 -10.0452,-2.8862 -13.5565,-3.3976 -3.5114,-0.5115 -9.3843,-2.0304 -13.051,-3.3754 -3.6666,-1.3449 -11.4666,-3.6256 -17.3333,-5.0681 -5.86667,-1.4425 -13.36667,-3.5081 -16.66667,-4.5903 -3.3,-1.082 -9.9,-3.2453 -14.66666,-4.8072 -4.76667,-1.562 -11.89924,-3.7578 -15.85016,-4.88 -3.95092,-1.122 -8.45092,-2.8606 -10,-3.8637 -1.54908,-1.0029 -5.81651,-2.5512 -9.48318,-3.4405 -3.66666,-0.8894 -8.78472,-2.6734 -11.37346,-3.9644 -2.58874,-1.2911 -8.12764,-3.3419 -12.30868,-4.5574 -4.18104,-1.2154 -7.92004,-2.7248 -8.3089,-3.3538 -0.38884,-0.6292 -3.84993,-2.1692 -7.6913,-3.4224 -3.84138,-1.2531 -7.64963,-2.8022 -8.46279,-3.4423 -0.81315,-0.6403 -4.86965,-2.3308 -9.01445,-3.7568 -4.1448,-1.426 -9.1795,-3.4736 -11.1882,-4.5501 -2.00872,-1.0767 -10.25222,-5.0946 -18.31888,-8.9288 -8.06667,-3.8342 -17.66667,-8.3986 -21.33334,-10.143 -3.66666,-1.7445 -10.26666,-5.2085 -14.66666,-7.6977 -4.4,-2.4892 -9.5,-5.1621 -11.33334,-5.9397 -1.83333,-0.7776 -5.13333,-2.4196 -7.33333,-3.649 -2.2,-1.2293 -6.1,-3.3734 -8.66667,-4.7646 -2.56666,-1.3912 -7.96666,-4.5682 -12,-7.06 -4.03333,-2.4918 -10.05284,-6.0038 -13.37668,-7.8042 -3.32384,-1.8005 -10.00213,-5.8797 -14.84065,-9.0648 -4.83853,-3.1852 -10.51903,-6.8376 -12.62332,-8.1164 -12.37521,-7.5209 -17.73245,-11.0813 -22.49268,-14.9484 -2.93333,-2.383 -7.13333,-5.3333 -9.33333,-6.5561 -2.2,-1.2229 -6.7,-4.2893 -10,-6.8144 -3.3,-2.5251 -8.25,-5.9236 -11,-7.5523 -2.75,-1.6286 -5,-3.4354 -5,-4.0149 0,-0.5795 -1.79544,-1.982 -3.98986,-3.1168 -2.19442,-1.1348 -9.99961,-7.0001 -17.34485,-13.0341 -7.34525,-6.0342 -17.99981,-14.7271 -23.67681,-19.3179 -5.677,-4.5907 -13.43628,-11.1907 -17.24284,-14.6667 -3.80658,-3.4758 -10.68979,-9.6198 -15.29606,-13.6532 -10.59569,-9.2778 -30.49021,-28.216 -37.64077,-35.8314 -3.01152,-3.2072 -10.45165,-11.0072 -16.53365,-17.3334 -11.7796,-12.2522 -12.25238,-12.7744 -25.5038,-28.1685 -4.73447,-5.5 -11.94486,-13.6807 -16.02307,-18.1793 -4.07823,-4.4986 -9.21496,-10.6434 -11.41496,-13.6548 -2.2,-3.0116 -5.2,-6.9083 -6.66667,-8.6595 -1.46666,-1.7512 -4.76666,-5.9823 -7.33333,-9.4024 -2.56667,-3.4201 -7.38608,-9.6427 -10.70981,-13.8279 -3.32374,-4.1852 -7.82374,-10.247 -10,-13.4706 -2.17627,-3.2238 -5.30523,-7.7238 -6.95326,-10 -1.64801,-2.2764 -4.34801,-6.0038 -6,-8.2831 -3.54148,-4.8864 -13.34341,-19.5831 -23.02473,-34.5224 -6.82616,-10.5335 -18.69997,-30.5253 -24.82683,-41.8008 -1.73361,-3.1904 -4.77538,-8.5904 -6.75946,-12 -1.98408,-3.4096 -4.60272,-8.2992 -5.81919,-10.8659 -1.21647,-2.5666 -3.36509,-6.2901 -4.77471,-8.2744 -1.40962,-1.9841 -3.22594,-5.5841 -4.03629,-8 -0.81033,-2.4157 -2.23092,-5.2922 -3.15685,-6.3922 -0.92594,-1.1 -4.18086,-7.7 -7.23315,-14.6667 -3.05229,-6.9667 -7.30975,-16.2009 -9.46101,-20.5207 -2.15126,-4.3196 -3.91138,-8.7724 -3.91138,-9.8949 0,-1.1227 -0.85,-2.9884 -1.88889,-4.1461 -1.03891,-1.1578 -3.197,-5.405 -4.79577,-9.4383 -1.59878,-4.0333 -4.7158,-11.8333 -6.92671,-17.3333 -4.64699,-11.5602 -11.04244,-28.6722 -13.95305,-37.3334 -1.10896,-3.3 -3.39407,-9.3 -5.078,-13.3333 -1.68395,-4.0333 -3.47972,-9.7127 -3.99062,-12.6205 -0.5109,-2.908 -1.7806,-6.9343 -2.82154,-8.9474 -1.04096,-2.0129 -2.81218,-7.7336 -3.93604,-12.7126 -1.12387,-4.9791 -2.94352,-11.3719 -4.04368,-14.2063 -1.10016,-2.8345 -2.87758,-9.3241 -3.94983,-14.4213 -1.07224,-5.0974 -2.56724,-10.422 -3.3222,-11.8327 -0.75496,-1.4107 -2.54211,-9.0595 -3.97144,-16.9972 -1.42933,-7.9379 -3.48169,-16.9349 -4.5608,-19.9935 -1.07911,-3.0585 -2.61828,-10.5201 -3.42037,-16.5813 -0.80211,-6.0613 -2.33774,-13.7427 -3.41252,-17.0699 -1.07479,-3.327 -2.80871,-12.927 -3.85316,-21.3333 -1.04446,-8.4061 -2.8058,-20.5095 -3.91411,-26.896 -1.10831,-6.3867 -2.6696,-20.4867 -3.46953,-31.3333 -0.79994,-10.8468 -2.31632,-29.0214 -3.36972,-40.388 -4.34883,-46.9252 -3.99591,-74.4964 1.94448,-151.9114 2.79369,-36.4073 2.98901,-38.1195 6.22856,-54.6004 1.06436,-5.4147 2.48594,-15.6147 3.1591,-22.6666 0.67315,-7.0519 2.12147,-15.3624 3.2185,-18.4678 1.09702,-3.1054 2.6558,-10.4753 3.46393,-16.3776 0.80813,-5.9023 2.651,-14.4304 4.09527,-18.9513 1.44425,-4.5209 3.23721,-12.451 3.98436,-17.6224 0.74713,-5.1714 2.5039,-12.7025 3.90393,-16.7359 1.40003,-4.0333 3.13604,-11.0438 3.8578,-15.5789 0.72176,-4.5351 2.19704,-9.6351 3.2784,-11.3333 1.08136,-1.6983 2.68265,-6.68777 3.55841,-11.08777 0.87576,-4.4 2.71594,-10.7 4.08927,-14 1.37335,-3.3 3.12584,-8.9015 3.89445,-12.44781 0.7686,-3.54629 2.49482,-8.64629 3.83603,-11.33333 1.34121,-2.68703 3.1498,-7.79123 4.01907,-11.34263 0.86926,-3.55141 2.38284,-7.75141 3.36348,-9.33333 0.98064,-1.58194 2.50324,-5.87623 3.38354,-9.5429 0.88031,-3.66666 2.67823,-8.46666 3.99538,-10.66666 1.31714,-2.2 2.82048,-5.8 3.34073,-8 0.52027,-2.2 2.69735,-7.59107 4.83795,-11.98015 C 338.2486,888.29744 340,883.72835 340,882.533 c 0,-1.19536 1.11747,-3.60429 2.48325,-5.35319 1.36579,-1.74889 2.91259,-4.67981 3.43734,-6.51314 0.97388,-3.40254 7.58144,-17.98626 10.87386,-24 1.00371,-1.83334 2.75071,-5.43334 3.88222,-8 1.13149,-2.56667 2.74868,-5.86667 3.59373,-7.33334 0.84507,-1.46666 2.32993,-4.31666 3.29971,-6.33333 3.2534,-6.76549 6.08221,-12.28427 10.0808,-19.66667 C 379.83551,801.3 382.48509,796.2 383.53889,794 c 1.0538,-2.2 2.76028,-5.5 3.79219,-7.33333 5.81023,-10.32266 9.17193,-15.96608 12.70799,-21.33334 2.1741,-3.3 4.89014,-8.0155 6.03565,-10.47892 1.14549,-2.4634 4.95467,-8.7634 8.46481,-14 6.14227,-9.16329 7.43892,-11.11097 14.7938,-22.22141 1.83334,-2.76947 5.73334,-8.44405 8.66667,-12.61017 2.93333,-4.16614 5.93333,-8.57362 6.66667,-9.79442 0.73333,-1.2208 2.83333,-4.11825 4.66666,-6.43878 1.83334,-2.32054 4.83334,-6.41791 6.66667,-9.1053 3.18623,-4.67052 11.08235,-14.84818 15.19336,-19.58341 1.06597,-1.22781 2.6806,-3.62781 3.58808,-5.33333 0.90748,-1.70551 2.99517,-4.60092 4.63932,-6.43426 1.64413,-1.83333 10.02661,-11.73333 18.62773,-22 8.60112,-10.26666 16.70934,-19.56666 18.01826,-20.66666 1.30893,-1.1 4.59664,-4.7 7.30602,-8 10.18763,-12.40838 58.81779,-60.70839 75.8483,-75.33334 4.26977,-3.66666 9.04176,-7.95536 10.60441,-9.53042 2.48432,-2.50408 20.61155,-17.73035 36.67155,-30.80291 2.928,-2.38333 5.74744,-4.33333 6.26542,-4.33333 0.518,0 4.60835,-3.17127 9.08968,-7.04727 4.48132,-3.876 9.64787,-8.05757 11.4812,-9.29237 1.83334,-1.2348 5.73334,-4.04203 8.66667,-6.23828 2.93333,-2.19626 7.43333,-5.23876 10,-6.76115 4.87904,-2.89395 12.12437,-7.791 16.66667,-11.26487 5.23793,-4.00588 12.07413,-8.66586 16.66666,-11.36105 C 727.9,425.1954 733.6,421.58368 738,418.67563 c 4.4,-2.90804 9.90897,-6.19063 12.24216,-7.29463 2.33319,-1.10399 4.66061,-2.68435 5.17207,-3.51188 0.51145,-0.82755 3.40248,-2.67576 6.4245,-4.10713 3.02203,-1.43139 9.0946,-4.73623 13.4946,-7.34411 8.9284,-5.29185 20.60072,-11.70425 26.66667,-14.6498 2.2,-1.06829 5.5,-2.80252 7.33333,-3.85385 4.3584,-2.49934 30.86058,-15.16816 47.33334,-22.62674 3.66666,-1.66021 10.56666,-4.84174 15.33333,-7.07009 10.63859,-4.97339 24.49853,-10.62139 30.43176,-12.40109 2.43748,-0.73115 7.17684,-2.78891 10.53192,-4.57283 3.35509,-1.78391 7.38393,-3.24348 8.95299,-3.24348 1.56905,0 5.22969,-1.21756 8.13474,-2.70569 2.90506,-1.48812 8.80831,-3.62435 13.11835,-4.74716 4.31003,-1.1228 9.11003,-2.83772 10.66667,-3.81091 1.55662,-0.9732 6.13024,-2.51749 10.16357,-3.43176 4.03333,-0.91428 9.02477,-2.51864 11.09209,-3.56527 2.06732,-1.04661 8.23586,-2.75954 13.70786,-3.80652 5.472,-1.04696 12.48055,-3.0366 15.57455,-4.42141 3.094,-1.38481 8.6247,-2.95049 12.2904,-3.47931 3.6657,-0.52881 9.6352,-2.09009 13.2655,-3.4695 3.6303,-1.37942 11.274,-3.14791 16.9859,-3.92998 5.7119,-0.78206 12.5162,-2.31232 15.1207,-3.40056 2.6046,-1.08824 11.0382,-2.86336 18.7414,-3.94469 7.7032,-1.08135 18.6294,-3.12499 24.2804,-4.54143 5.651,-1.41644 15.3745,-2.96581 21.6079,-3.44305 6.2333,-0.47724 16.7333,-2.02353 23.3333,-3.4362 15.0905,-3.23 77.8388,-6.58233 126.6667,-6.76717 46.1994,-0.1749 113.5062,3.41457 127.8865,6.8202 5.9291,1.40414 16.1801,2.95197 22.7801,3.43961 6.6,0.48763 16.5,1.99085 22,3.34048 5.5,1.34964 15.1,3.14108 21.3334,3.98099 6.2333,0.8399 16.4333,2.90902 22.6666,4.59804 6.2334,1.68902 14.9334,3.65405 19.3334,4.36673 4.4,0.71267 10.7,2.25764 14,3.43325 3.3,1.17562 9.6,3.0352 14,4.13242 26.0866,6.50513 31.2393,7.93556 36.6666,10.17906 3.3,1.36412 9.2922,3.13355 13.316,3.93206 4.0238,0.79849 8.6182,2.305 10.2096,3.34776 1.5915,1.04277 5.7992,2.62205 9.3507,3.50952 3.5513,0.88746 9.4571,3.00426 13.1237,4.70401 3.6667,1.69973 7.8667,3.09855 9.3334,3.10847 1.4666,0.009 6.2666,1.81353 10.6666,4.00801 4.4,2.19448 8.909,3.99223 10.0198,3.99499 1.1109,0.003 4.3998,1.28065 7.3088,2.83977 2.9089,1.55912 7.6785,3.6778 10.5988,4.70817 2.9204,1.03038 8.6314,3.39371 12.6912,5.25186 4.0598,1.85816 9.7814,4.46748 12.7148,5.79849 14.789,6.7106 27.7096,12.84447 37.3333,17.72344 5.8667,2.97424 13.0667,6.56751 16,7.98501 2.9333,1.41752 6.2333,3.14158 7.3333,3.83126 1.1,0.68968 3.8,2.09101 6,3.11406 5.2448,2.43902 19.0968,10.81228 21.8423,13.20327 1.1867,1.03356 4.3352,2.57765 6.9965,3.43131 2.6614,0.85365 5.9043,2.7295 7.2067,4.16857 1.3023,1.43905 2.9809,2.61647 3.7303,2.61647 0.7493,0 4.7064,2.21288 8.7933,4.9175 4.0871,2.70462 9.5309,6.20854 12.0976,7.78647 2.5667,1.57793 6.4085,4.01505 8.5373,5.41583 2.129,1.40077 5.8314,3.74686 8.2276,5.21353 2.3964,1.46667 7.7431,5.06667 11.8816,8 4.1386,2.93333 8.7047,5.99792 10.1471,6.8102 1.4423,0.81228 3.6537,2.47905 4.9144,3.70392 2.2237,2.16076 6.2572,5.10369 16.6253,12.13063 2.75,1.86378 5,3.88486 5,4.49129 0,0.60643 1.5772,1.82123 3.505,2.69956 2.9668,1.35176 18.4677,13.41975 25.9005,20.1644 1.2121,1.1 5.5919,4.63965 9.7325,7.86591 4.1408,3.22625 7.5287,6.33581 7.5287,6.91014 0,0.57434 1.05,1.39728 2.3333,1.82878 1.2834,0.43149 5.6334,3.82829 9.6667,7.54846 4.0333,3.72016 16.0333,14.7425 26.6667,24.49408 10.6333,9.75158 24.7333,23.63446 31.3333,30.85083 6.6,7.21637 14.1,15.30776 16.6667,17.98085 10.3753,10.8056 18.4996,19.687 26.6994,29.18762 4.7471,5.5 9.147,10.37581 9.7778,10.83513 0.6306,0.45933 2.4313,2.97475 4.0014,5.58981 1.57,2.61507 7.49,10.33926 13.1555,17.16486 20.3367,24.50128 23.8461,29.1005 25.2263,33.0595 0.7702,2.20955 1.9342,4.01736 2.5866,4.01736 0.6524,0 2.6748,2.25 4.4942,5 1.8193,2.75 5.4496,8 8.0672,11.66667 2.6176,3.66667 6.9121,9.96667 9.5436,14 2.6313,4.03333 6.5086,9.90088 8.6161,13.03899 2.1076,3.1381 3.8319,6.24206 3.8319,6.89769 0,0.65563 1.4156,2.88809 3.1457,4.96101 1.7301,2.07294 4.1616,5.56898 5.4033,7.76898 1.2416,2.2 4.3102,7.3 6.819,11.33333 2.5088,4.03333 5.7865,9.73333 7.2838,12.66667 1.4974,2.93333 4.799,8.93333 7.337,13.33333 2.538,4.4 6.0968,11.09484 7.9085,14.87741 1.8116,3.78258 3.8821,7.24094 4.6011,7.68524 0.7188,0.44431 2.0266,3.04947 2.9062,5.78926 0.8795,2.73978 2.4075,5.91121 3.3955,7.04762 0.988,1.1364 2.6993,4.62544 3.8029,7.75342 1.1036,3.12796 3.1779,7.17634 4.6096,8.99641 1.4316,1.82005 2.9956,5.09704 3.4756,7.28219 0.4799,2.18514 2.2587,6.50697 3.9528,9.60405 1.6942,3.09709 3.5216,7.13107 4.0612,8.9644 0.5395,1.83333 2.1023,4.92596 3.4727,6.87249 1.3704,1.94654 2.4917,4.40718 2.4917,5.46808 0,1.06091 1.4687,4.69118 3.2638,8.06727 1.7952,3.37609 4.1474,9.11379 5.2274,12.75045 1.08,3.63666 2.8363,8.01376 3.9028,9.72691 1.0667,1.71313 2.6144,5.93051 3.4394,9.37193 0.825,3.44143 2.6418,8.24143 4.0374,10.66667 1.3956,2.42524 2.9688,6.50953 3.496,9.0762 0.5274,2.56667 2.0875,6.89685 3.4672,9.62263 1.3798,2.72577 3.1752,8.12577 3.9899,12 0.8147,3.87422 2.6365,9.61389 4.0488,12.75482 1.4121,3.14094 3.1981,9.12191 3.9688,13.29104 0.7707,4.16914 2.5144,9.76223 3.8749,12.42911 1.3606,2.6669 2.8895,8.0859 3.3975,12.0423 0.5081,3.9564 1.9575,9.8934 3.2209,13.1934 1.2634,3.3 3.0516,10.2 3.9739,15.3334 0.9223,5.1333 3.1051,14.3504 4.8508,20.4825 1.7456,6.132 3.1739,12.7591 3.1739,14.7269 0,1.9677 1.4485,9.2506 3.2189,16.1841 1.7705,6.9336 3.6303,17.1065 4.1328,22.6065 0.5027,5.5 2.0145,15.7 3.3599,22.6666 1.3452,6.9667 3.1157,20.7667 3.9342,30.6667 0.8186,9.9 2.0843,23.4 2.8127,30 3.6888,33.4252 4.0472,43.032 3.5308,94.6427 -0.4015,40.136 -1.1124,58.7713 -2.6715,70.024 -1.1684,8.4333 -2.8032,23.9016 -3.6328,34.3738 -0.8296,10.4723 -2.973,27.2412 -4.7633,37.2644 -1.7903,10.0234 -3.2551,20.0791 -3.2551,22.3462 0,2.267 -0.969,7.698 -2.1534,12.0688 -1.1844,4.3708 -3.218,13.9468 -4.5192,21.2801 -2.3247,13.1021 -6.2175,30.1916 -10.1743,44.6667 -1.1027,4.0333 -3.1771,12.1333 -4.6101,18 -1.433,5.8666 -3.4067,12.1666 -4.3863,14 -0.9795,1.8333 -2.5236,7.2257 -3.4315,11.9829 -0.9077,4.7573 -2.4689,10.2323 -3.4692,12.1665 -1.0002,1.9344 -3.0093,7.642 -4.4645,12.6838 -5.5179,19.1164 -8.7647,28.0885 -17.31,47.8334 -2.2217,5.1334 -4.7128,11.9791 -5.5357,15.2128 -0.8231,3.2338 -2.3247,7.1435 -3.337,8.6886 -1.0124,1.5449 -2.6872,5.1992 -3.722,8.1205 -3.5421,10.0001 -35.77,76.0283 -44.6621,91.5035 -1.9569,3.4057 -5.5127,9.7057 -7.9017,14 -4.5984,8.2658 -5.5083,9.7825 -11.323,18.8748 -2.0166,3.1534 -3.6666,6.2209 -3.6666,6.8166 0,0.5958 -1.65,3.2084 -3.6667,5.8059 -2.0167,2.5973 -4.8667,6.7135 -6.3333,9.1468 -5.7847,9.5973 -8.512,13.6691 -26.678,39.8305 -1.7823,2.5667 -4.6088,6.6774 -6.2812,9.1347 -1.6724,2.4575 -4.0454,5.562 -5.2732,6.8991 -1.2279,1.337 -2.8996,3.6777 -3.7151,5.2014 -0.8155,1.5238 -5.024,7.1192 -9.3523,12.4343 -4.3281,5.3152 -9.0848,11.1639 -10.5702,12.9972 -31.604,39.0059 -49.043,58.3841 -81.5928,90.6667 -17.376,17.2333 -33.4655,32.8333 -35.7544,34.6666 -2.289,1.8334 -5.8964,4.8334 -8.0167,6.6667 -2.1203,1.8333 -6.3793,5.4333 -9.4648,8 -3.0853,2.5667 -9.3964,7.9667 -14.0244,12 -4.6281,4.0333 -11.0088,9.3036 -14.1792,11.7119 -3.1704,2.4081 -8.0851,6.3081 -10.9215,8.6666 -5.988,4.9791 -15.0238,11.576 -28.1762,20.5715 -5.1334,3.5108 -12.5067,8.9333 -16.3852,12.05 -3.8786,3.1167 -7.5718,5.6667 -8.2072,5.6667 -0.6355,0 -3.6688,2.1 -6.741,4.6666 -3.0721,2.5667 -6.1532,4.6667 -6.8468,4.6667 -0.6936,0 -2.8869,1.0969 -4.8738,2.4377 -1.987,1.3408 -6.9127,4.5356 -10.946,7.0995 -4.0334,2.5639 -11.9764,7.7243 -17.6514,11.4675 -5.6748,3.7432 -11.6748,7.2085 -13.3333,7.7006 -1.6584,0.4922 -5.1153,2.2482 -7.682,3.9023 -14.9017,9.6036 -64.4685,35.3625 -68.1613,35.422 -1.0112,0.016 -3.3387,1.2031 -5.172,2.6371 -1.8334,1.434 -3.8598,2.6206 -4.5031,2.637 -0.6433,0.016 -4.8433,1.766 -9.3333,3.8884 -20.3288,9.6091 -26.1139,12.1416 -27.7463,12.1463 -0.9628,0 -5.3507,1.8004 -9.7507,3.9949 -4.4,2.1946 -8.9232,3.9923 -10.0514,3.995 -1.1283,0 -4.4283,1.2198 -7.3334,2.7045 -2.905,1.4847 -7.6818,3.3055 -10.6152,4.0461 -2.9333,0.7408 -8.9333,2.7656 -13.3333,4.4999 -13.1455,5.1811 -37.4672,12.8813 -55.3333,17.5187 -4.0334,1.0468 -12.1334,3.3525 -18,5.1237 -13.1932,3.9832 -24.7959,6.8499 -38.6667,9.5536 -5.8667,1.1436 -16.9667,3.4935 -24.6667,5.222 -7.7,1.7284 -20.6,4.1257 -28.6666,5.3272 -8.0667,1.2013 -16.9504,2.7772 -19.7416,3.5017 -2.7912,0.7246 -13.8912,2.1731 -24.6667,3.219 -10.7755,1.0458 -25.5917,2.8349 -32.9251,3.9757 -15.5584,2.4204 -131.2158,3.8404 -165.3333,2.03 z m 348.7703,-227.3519 c 3.3569,-0.9181 7.5569,-2.6117 9.3333,-3.7637 1.7763,-1.1519 6.2297,-2.8141 9.8964,-3.6937 3.6667,-0.8798 8.4667,-2.6504 10.6667,-3.935 2.2,-1.2844 5.5,-2.7604 7.3333,-3.28 8.4263,-2.3877 27.2367,-11.0133 62.9733,-28.8766 32.0712,-16.0312 33.2935,-16.683 40.3362,-21.5102 2.9202,-2.0016 5.9773,-3.6393 6.7933,-3.6393 0.8161,0 2.5063,-1.1297 3.7559,-2.5104 1.2494,-1.3808 4.9425,-3.5304 8.2066,-4.7769 3.264,-1.2467 5.9347,-2.7455 5.9347,-3.331 0,-0.5853 5.25,-4.1742 11.6667,-7.9753 6.4166,-3.8012 14.3666,-8.9505 17.6666,-11.4431 3.3,-2.4924 8.25,-5.8644 11,-7.493 2.75,-1.6287 5,-3.4355 5,-4.015 0,-0.5794 1.95,-2.046 4.3334,-3.2589 2.3833,-1.2129 7.3333,-4.7353 11,-7.8276 3.6666,-3.0921 8.1666,-6.4045 10,-7.3609 1.8333,-0.9564 4.5333,-2.8652 6,-4.242 1.4666,-1.3768 7.1666,-6.1931 12.6666,-10.7028 5.5,-4.5099 13.6767,-11.544 18.1703,-15.6314 4.4937,-4.0874 11.9416,-10.7317 16.5508,-14.765 10.6936,-9.3576 41.2476,-40.05 49.9456,-50.1719 3.6667,-4.2669 12.2167,-13.8851 19,-21.3736 6.7833,-7.4887 12.3333,-13.9987 12.3333,-14.4668 0,-0.4683 3.15,-4.6815 7,-9.3629 3.85,-4.6815 8.8,-10.9515 11,-13.9334 2.2,-2.9818 5.8,-7.7713 8,-10.6433 2.2,-2.8719 5.5,-7.3897 7.3334,-10.0396 1.8333,-2.6497 5.0118,-7.0357 7.0633,-9.7465 2.0516,-2.7108 7.374,-10.6287 11.8277,-17.5954 4.4538,-6.9666 9.1459,-14.185 10.427,-16.0409 1.2812,-1.8559 3.641,-5.7559 5.2442,-8.6667 1.6031,-2.9108 6.4578,-11.2924 10.788,-18.6257 4.3302,-7.3333 9.3834,-16.3333 11.2291,-20 1.8459,-3.6667 3.9492,-7.5667 4.6741,-8.6667 0.725,-1.1 2.5395,-4.55 4.0323,-7.6666 1.4928,-3.1167 3.9607,-8.2167 5.484,-11.3334 7.9193,-16.2021 15.4175,-33.0674 17.1825,-38.6481 0.8666,-2.7397 2.0851,-5.2963 2.7078,-5.6811 0.6228,-0.3849 2.4714,-4.7432 4.1084,-9.6853 1.6369,-4.942 3.7086,-10.1855 4.604,-11.6521 0.8952,-1.4667 2.3253,-5.5724 3.178,-9.1238 0.8526,-3.5514 2.3972,-7.7514 3.4321,-9.3333 1.0351,-1.582 2.7684,-6.2836 3.852,-10.4481 1.0836,-4.1646 2.7259,-8.9646 3.6496,-10.6667 1.6156,-2.9769 5.1661,-14.7989 9.9395,-33.0948 1.2437,-4.7667 3.1378,-11.3667 4.2094,-14.6667 1.0716,-3.3 3.1008,-11.4 4.5095,-18 1.4087,-6.6 3.422,-14.7 4.4741,-18 1.052,-3.3 2.8938,-12.9 4.0926,-21.3333 1.1988,-8.4333 3.0306,-18.9333 4.0706,-23.3333 1.0402,-4.4 2.4958,-15.5 3.2347,-24.6667 0.7391,-9.1667 2.3808,-22.3667 3.6484,-29.3333 1.9847,-10.9082 2.3069,-22.0147 2.3208,-80 0.015,-58.418 -0.2923,-69.0105 -2.3139,-80 -1.2816,-6.9667 -2.9466,-20.4667 -3.7004,-30 -0.7536,-9.5334 -2.2485,-20.4036 -3.3222,-24.1561 -1.0736,-3.7525 -2.8563,-13.721 -3.9615,-22.1522 -1.1052,-8.4312 -2.9011,-17.8564 -3.9908,-20.945 -1.0897,-3.0886 -2.9275,-11.0687 -4.0839,-17.7335 -1.1562,-6.6649 -2.9325,-13.7232 -3.9472,-15.6853 -1.0146,-1.962 -2.5553,-7.7135 -3.4237,-12.781 -0.8685,-5.0675 -2.4972,-11.0136 -3.6195,-13.2136 -1.1222,-2.2 -3.1036,-7.9 -4.403,-12.6667 -3.1187,-11.4398 -7.4451,-24.2872 -11.2254,-33.3333 -1.6854,-4.03333 -3.4926,-9.382 -4.0158,-11.88593 -0.5232,-2.50394 -2.3819,-7.2433 -4.1306,-10.53192 -1.7485,-3.28863 -3.1792,-6.72259 -3.1792,-7.63104 0,-2.26315 -6.6281,-17.15991 -20.4904,-46.05226 -4.0729,-8.48897 -8.6374,-18.08897 -10.1433,-21.33333 -1.506,-3.24437 -4.7537,-9.49885 -7.2173,-13.89885 -4.0623,-7.25527 -7.7284,-14.04732 -13.6742,-25.33334 -2.3573,-4.47486 -4.7338,-8.27365 -15.4314,-24.66666 -4.0676,-6.23334 -8.392,-13.13334 -9.6096,-15.33334 -2.8203,-5.09589 -7.972,-12.64134 -10.7326,-15.71932 -1.1769,-1.31229 -5.1054,-6.71229 -8.7301,-12 -3.6247,-5.2877 -8.3839,-12.01401 -10.576,-14.94734 -2.192,-2.93334 -5.0289,-6.83334 -6.3041,-8.66667 -1.2752,-1.83333 -5.787,-7.53333 -10.0262,-12.66667 -4.239,-5.13333 -9.0628,-10.99044 -10.7194,-13.0158 -22.1042,-27.0243 -79.6708,-84.64288 -103.6787,-103.77214 -4.7667,-3.79804 -13.1667,-10.5974 -18.6667,-15.10968 -5.5,-4.5123 -11.2913,-9.08126 -12.8697,-10.15327 -1.5783,-1.07201 -6.3783,-4.65468 -10.6667,-7.96151 -7.964,-6.14122 -11.6454,-8.77758 -20.4636,-14.65426 -11.0709,-7.37803 -12.8485,-8.54034 -17.3333,-11.33334 -2.5667,-1.59845 -6.3835,-4.05236 -8.4817,-5.45313 -9.4586,-6.31425 -34.073,-20.88344 -48.8516,-28.9152 -4.0334,-2.19199 -10.3334,-5.63867 -14,-7.65931 -16.3267,-8.9973 -44.8558,-22.63902 -47.3452,-22.63902 -0.8323,0 -4.0202,-1.43343 -7.084,-3.18538 -3.064,-1.75196 -7.9708,-3.94294 -10.9042,-4.86884 -2.9333,-0.92589 -6.5333,-2.42109 -8,-3.32266 -1.4666,-0.90156 -4.4666,-2.03916 -6.6666,-2.528 -2.2,-0.48884 -7,-2.31658 -10.6667,-4.06163 -6.486,-3.08685 -13.3879,-5.52828 -34,-12.02696 -5.5,-1.73407 -13,-4.13121 -16.6667,-5.32701 -19.6709,-6.41523 -27.484,-8.63584 -35.3333,-10.04239 -4.7667,-0.85415 -12.2667,-2.66031 -16.6667,-4.01367 -4.4,-1.35336 -12.4198,-3.11357 -17.8218,-3.91157 -5.4022,-0.79801 -10.8022,-1.95795 -12,-2.57765 -1.198,-0.6197 -5.1782,-1.53931 -8.8448,-2.04359 C 1429,460.25305 1415.2,458.11157 1402,455.99848 c -13.2,-2.11309 -33,-4.46345 -44,-5.22301 -11,-0.75956 -30.2,-2.06754 -42.6667,-2.90662 -41.3071,-2.78017 -118.9637,1.32036 -167.0955,8.82322 -16.6308,2.59244 -32.0378,5.28276 -34.2378,5.97849 -2.2,0.69573 -9.9496,2.21169 -17.2214,3.36879 -7.2718,1.1571 -14.2979,2.67996 -15.6137,3.3841 -1.3157,0.70415 -7.066,2.22254 -12.7785,3.3742 -9.611,1.9376 -19.3156,4.72668 -39.7197,11.4153 -4.4,1.44234 -11.6,3.74238 -16,5.1112 -4.4,1.3688 -14.00003,4.69802 -21.33337,7.39826 -7.33333,2.70024 -16.33333,5.99655 -20,7.32512 -3.66666,1.32858 -11.76666,4.62007 -18,7.31443 -6.23333,2.69436 -13.73333,5.85367 -16.66666,7.02068 -2.93334,1.16701 -6.92596,3.20833 -8.8725,4.53627 -1.94653,1.32793 -4.04122,2.41442 -4.65485,2.41442 -1.10319,0 -18.65121,8.12434 -23.80599,11.02162 -1.46666,0.82436 -6.56666,3.54345 -11.33333,6.04242 -15.27637,8.00883 -20.52075,10.86066 -27.33333,14.86351 -3.66667,2.15443 -8.88172,5.14644 -11.589,6.64893 -5.06882,2.81311 -12.07058,7.26326 -19.07767,12.12534 -2.2,1.52653 -7.3,4.81072 -11.33333,7.29818 -4.03334,2.48747 -9.13334,5.77343 -11.33334,7.30214 -2.2,1.52869 -5.93486,4.1111 -8.29972,5.73866 -12.54272,8.63232 -21.48337,15.06268 -25.24837,18.15931 -2.31812,1.90661 -6.45552,4.96656 -9.19424,6.79989 -2.73871,1.83334 -8.34207,6.3676 -12.45191,10.07616 -4.10984,3.70855 -10.77242,9.27564 -14.80576,12.37132 -12.58993,9.66306 -20.83896,17.32934 -50.53197,46.9622 -29.41273,29.35315 -31.80991,31.94784 -54.12988,58.59032 -7.06511,8.43334 -13.87575,16.53334 -15.13477,18 -1.25903,1.46667 -3.32524,4.16667 -4.59158,6 -1.26634,1.83334 -4.38509,6.03334 -6.93056,9.33334 -2.54546,3.3 -5.62432,7.8 -6.84188,10 -1.21757,2.2 -3.39034,5.2 -4.82838,6.66666 -2.35898,2.40595 -12.10083,16.67888 -19.01098,27.8533 -1.46666,2.37174 -4.01666,6.00593 -5.66666,8.07596 -1.65,2.07004 -3,4.50932 -3,5.42062 0,0.91132 -0.90699,2.40967 -2.01552,3.32967 -1.10855,0.92001 -3.20638,4.14348 -4.66186,7.16327 -1.45546,3.01978 -4.5594,8.49052 -6.89761,12.15718 -5.23928,8.21598 -10.71201,17.88434 -15.09455,26.66667 -1.82973,3.66667 -3.89814,7.56667 -4.59649,8.66667 -0.69835,1.1 -3.74685,7.4 -6.77444,14 -3.0276,6.6 -6.06141,12.9 -6.74181,14 -0.68039,1.1 -1.92067,3.5 -2.75616,5.33333 -0.8355,1.83333 -3.172,6.93333 -5.19223,11.33333 -2.02024,4.4 -4.3366,10.48011 -5.14748,13.51135 -0.81088,3.03124 -2.35415,6.24153 -3.42947,7.13397 -1.07533,0.89246 -2.35214,3.81235 -2.83737,6.48866 -0.48523,2.67632 -2.05044,7.18884 -3.47827,10.02784 -2.81293,5.59305 -7.6892,19.15585 -11.7521,32.68725 -1.40631,4.6836 -3.39628,9.7967 -4.42219,11.3624 -1.02589,1.5657 -2.31141,5.5337 -2.85669,8.8177 -0.5453,3.2839 -2.35938,9.6281 -4.0313,14.0981 -1.67192,4.47 -3.74013,11.67 -4.59601,16 -0.85588,4.33 -2.66484,11.4727 -4.01992,15.8727 -1.35507,4.4 -2.83095,10.7 -3.27972,14 -0.44876,3.3 -1.98031,9.9 -3.40343,14.6667 -1.42312,4.7667 -3.52133,15.5273 -4.66268,23.9125 -1.14134,8.3853 -2.99176,19.1853 -4.11204,24 -1.12028,4.8148 -2.60645,16.8542 -3.3026,26.7542 -0.69616,9.9 -2.30364,24.6 -3.5722,32.6666 -3.29986,20.9838 -3.29965,115.046 3.1e-4,134.0283 1.21381,6.9823 2.82352,21.8784 3.57711,33.1025 0.7536,11.2242 2.26092,23.8451 3.3496,28.0464 1.08868,4.2014 3.15637,15.7052 4.59486,25.5642 1.43851,9.8589 3.49999,20.4026 4.58108,23.4305 1.08108,3.0279 2.39338,9.0279 2.9162,13.3333 0.52282,4.3055 2.2844,11.4282 3.91463,15.8282 1.63021,4.4 3.39421,11.3 3.92,15.3333 0.52577,4.0333 2.06612,9.8459 3.42299,12.9167 1.35688,3.0709 3.18681,9.0709 4.06652,13.3333 0.87972,4.2625 2.64148,9.85 3.91504,12.4167 1.27354,2.5666 3.03305,7.5973 3.90998,11.1792 0.87695,3.5818 2.71542,8.7097 4.08548,11.3953 1.37007,2.6856 2.92279,7.2549 3.45048,10.1541 0.5277,2.8992 2.37779,7.9666 4.11131,11.2607 1.73353,3.2943 3.15188,6.6031 3.15188,7.3532 0,0.75 1.27564,3.7437 2.83476,6.6527 1.55912,2.9089 3.6778,7.6785 4.70817,10.5988 1.03038,2.9204 3.41604,8.6314 5.30147,12.6912 4.1466,8.9286 17.66785,36.9986 19.61213,40.7148 4.05964,7.7592 9.65982,18.0906 13.00914,24 2.07822,3.6666 5.07048,9.3666 6.64948,12.6666 1.579,3.3 3.9214,7.2 5.20533,8.6667 1.28393,1.4667 3.16208,4.2777 4.17364,6.2469 1.01157,1.9691 5.73921,9.6462 10.50588,17.0599 4.76667,7.4139 9.86667,15.452 11.33333,17.8624 2.37839,3.9088 8.13594,11.9537 18.72499,26.1641 1.9126,2.5667 5.68189,7.6696 8.37623,11.3398 2.69433,3.6701 8.04878,10.4513 11.89878,15.0692 3.85,4.6178 7.00926,8.815 7.02058,9.3269 0.0201,0.9081 6.42792,8.1393 18.74509,21.1533 3.35444,3.5443 10.96316,11.9728 16.90827,18.73 19.26718,21.8994 65.14361,64.9246 85.39209,80.0852 1.68632,1.2626 5.00296,3.8907 7.37031,5.8402 2.36736,1.9496 7.58764,5.9634 11.60064,8.92 4.013,2.9564 8.35044,6.4206 9.63874,7.6982 1.28832,1.2776 4.3686,3.5636 6.84507,5.08 8.61257,5.2739 14.86273,9.7412 16.66204,11.9092 0.99571,1.1998 2.34368,2.1814 2.99551,2.1814 0.65184,0 4.79826,2.55 9.21428,5.6666 4.41601,3.1167 9.85065,6.6612 12.07697,7.8767 2.22633,1.2155 5.05644,3.0691 6.28915,4.1191 2.22949,1.899 10.12433,6.4961 21.5746,12.5626 3.3,1.7484 8.7,4.9271 12,7.0636 3.3,2.1366 11.7,6.7343 18.66666,10.2172 6.96667,3.483 13.59646,7.1031 14.73287,8.045 1.1364,0.9417 4.70661,2.6438 7.9338,3.7825 3.22719,1.1387 6.7974,2.9044 7.9338,3.924 1.13641,1.0196 5.0662,3.0411 8.73287,4.4923 3.66666,1.4512 11.76666,4.8488 18,7.5501 6.23333,2.7013 14.60124,6.0723 18.59534,7.4909 3.99411,1.4187 8.50291,3.3924 10.01956,4.3862 1.51664,0.9937 4.78638,2.2524 7.26604,2.797 2.47968,0.5447 8.08423,2.6812 12.45454,4.7482 9.77475,4.6226 17.68665,6.1394 20.37735,3.9064 1.6588,-1.3768 1.9511,-9.9008 1.9356,-56.4583 -0.011,-30.1603 -0.3691,-56.1453 -0.798,-57.7445 -1.1342,-4.229 -2.9173,-4.44 -14.39995,-1.7043 -23.99188,5.716 -100.15355,6.1852 -118.78382,0.7317 -3.66666,-1.0732 -10.40822,-2.6141 -14.98125,-3.4241 -8.83507,-1.5651 -36.03439,-10.1496 -38.46719,-12.1409 -0.79665,-0.6522 -3.79665,-2.0254 -6.66666,-3.0518 -2.87003,-1.0264 -9.11823,-4.3266 -13.8849,-7.334 -4.76666,-3.0073 -10.46666,-6.4588 -12.66666,-7.67 -2.2,-1.211 -6.1,-3.9085 -8.66667,-5.9942 -2.56667,-2.0858 -5.60027,-4.5526 -6.74133,-5.4818 -7.47496,-6.0876 -16.41991,-15.0104 -23.72059,-23.662 -4.65405,-5.5152 -9.15405,-10.6276 -10,-11.3609 -4.76451,-4.1303 -23.42297,-38.7904 -26.867,-49.9083 -0.55228,-1.7829 -2.12697,-5.0829 -3.49931,-7.3333 -1.37232,-2.2504 -2.49738,-5.0261 -2.50012,-6.1681 -0.003,-1.1422 -2.04545,-6.132 -4.53937,-11.0888 -2.49391,-4.9568 -4.875,-10.0224 -5.29132,-11.257 -0.41632,-1.2345 -3.15307,-6.1445 -6.08165,-10.9112 -2.92859,-4.7666 -6.58642,-11.1589 -8.1285,-14.2049 -1.54209,-3.0461 -3.96488,-6.5891 -5.38397,-7.8733 -1.41909,-1.2843 -2.58017,-2.9098 -2.58017,-3.612 0,-4.2398 -30.90691,-35.5454 -42.80868,-43.361 -25.04995,-16.4496 -35.73736,-25.4428 -44.14356,-37.1457 -4.11463,-5.7284 -4.3811,-6.7756 -4.3811,-17.2168 v -11.1176 l 5.29904,-5.4301 c 3.24462,-3.3248 7.38008,-5.9823 10.66667,-6.8544 2.9522,-0.7834 8.79869,-2.5702 12.99223,-3.9708 8.34114,-2.786 27.4026,-3.4498 35.70873,-1.2435 2.56667,0.6817 9.76667,2.4585 16,3.9484 6.23333,1.4899 14.03333,3.9877 17.33333,5.5507 12.72364,6.0261 24.80532,12.4144 28,14.805 1.83334,1.3719 7.23011,5.3215 11.99283,8.7768 7.17484,5.2055 33.94845,30.986 42.52643,40.9492 2.98096,3.4623 20.19458,28.9379 25.15253,37.2248 8.09948,13.5379 44.09604,49.9584 51.66155,52.2699 1.46666,0.4481 4.50792,2.1928 6.75834,3.8769 2.25043,1.6842 6.45043,3.6998 9.33334,4.479 2.8829,0.7792 6.44341,2.2617 7.91224,3.2946 2.84684,2.0019 33.33854,8.1811 46.66274,9.4563 4.4,0.4212 12.2,0.1917 17.33334,-0.5097 26.35385,-3.6014 45.13461,-6.9276 48.37776,-8.5683 1.99222,-1.0077 6.91656,-2.6073 10.94294,-3.5545 4.02639,-0.9471 10.32643,-3.1218 14.00003,-4.8326 3.6736,-1.7106 7.7208,-3.1162 8.9937,-3.1233 3.047,-0.017 8.4785,-8.3759 11.0337,-16.9804 1.8733,-6.308 6.9191,-16.2668 13.3587,-26.366 1.4028,-2.2 5.7176,-7.2152 9.5885,-11.1449 3.8709,-3.9298 7.038,-7.932 7.038,-8.894 0,-1.9848 -3.3425,-2.8015 -16.6667,-4.0726 -5.1333,-0.4896 -10.8895,-1.6817 -12.7915,-2.6492 -1.9019,-0.9673 -6.7019,-2.147 -10.6666,-2.6217 -8.5669,-1.0255 -49.7716,-10.6975 -54.54187,-12.8025 -1.83333,-0.8091 -6.63333,-2.2324 -10.66666,-3.163 -4.03334,-0.9305 -10.93334,-2.9145 -15.33334,-4.409 -4.4,-1.4944 -10.7,-3.596 -14,-4.6703 -3.3,-1.0743 -10.8,-3.8812 -16.66666,-6.2377 -5.86667,-2.3564 -13.82892,-5.3942 -17.6939,-6.7506 -3.86498,-1.3562 -8.66498,-3.366 -10.66666,-4.4661 -2.0017,-1.1001 -9.54166,-4.8768 -16.75547,-8.3927 -7.21381,-3.5157 -15.31381,-7.5924 -18,-9.059 -8.78265,-4.7954 -38.98515,-24.8986 -42.99592,-28.6186 -1.21447,-1.1265 -5.32724,-4.1481 -9.13949,-6.7148 -8.56002,-5.7632 -52.15003,-48.7897 -57.11806,-56.3797 -1.99677,-3.0505 -4.5305,-6.5731 -5.6305,-7.8276 -3.40962,-3.8887 -9.29348,-12.1593 -13.60642,-19.126 -2.26998,-3.6667 -5.44108,-8.7667 -7.04689,-11.3333 -1.6058,-2.5667 -4.0384,-6.4667 -5.4058,-8.6667 -4.29219,-6.9057 -20.40781,-39.3531 -22.08055,-44.4572 -0.8789,-2.6819 -2.33905,-6.0761 -3.24478,-7.5428 -0.90572,-1.4667 -2.69414,-5.9667 -3.97426,-10 -1.28012,-4.0333 -2.84593,-7.9923 -3.47958,-8.7975 -0.63366,-0.8053 -2.40619,-6.5053 -3.93898,-12.6666 -1.53278,-6.1615 -3.32105,-11.8474 -3.97394,-12.6354 -0.65288,-0.788 -2.0648,-5.588 -3.13758,-10.6666 -1.07278,-5.0787 -2.82412,-11.3339 -3.89185,-13.9006 -1.06772,-2.5666 -2.62945,-9.1666 -3.47052,-14.6666 -0.84105,-5.5 -2.63288,-13.6 -3.98184,-18 -1.34895,-4.4 -3.20163,-14.6 -4.11705,-22.6667 -0.91543,-8.0667 -2.50556,-17.6667 -3.53364,-21.3333 -5.14362,-18.345 -5.4281,-115.6875 -0.4111,-140.6667 1.39923,-6.9667 3.20327,-18.0667 4.00896,-24.6667 0.8057,-6.6 2.60568,-15.6 3.99998,-20 1.39428,-4.4 3.17753,-12.1253 3.96278,-17.1674 0.78524,-5.042 2.25576,-10.7687 3.26783,-12.7258 1.01205,-1.9571 2.83268,-7.4317 4.04583,-12.1659 1.21316,-4.7341 2.98286,-9.8163 3.9327,-11.2938 0.94984,-1.4774 2.1645,-4.7774 2.69923,-7.3333 0.53473,-2.5559 2.41341,-7.1539 4.17485,-10.2179 1.76144,-3.0639 3.20262,-6.3983 3.20262,-7.4097 0,-1.0115 2.09814,-6.0047 4.66256,-11.0959 2.5644,-5.0913 4.6644,-9.6342 4.66666,-10.0954 0.005,-1.1149 8.74779,-15.5961 11.07007,-18.3371 1.00551,-1.1868 2.58183,-4.0644 3.50295,-6.3947 0.92112,-2.3303 2.81993,-5.2733 4.2196,-6.54 1.39965,-1.2667 2.54556,-2.96 2.54645,-3.7631 8.9e-4,-0.803 1.35089,-3.0563 3,-5.0073 1.64911,-1.95104 5.54772,-7.05104 8.66357,-11.33333 3.11587,-4.28231 8.66587,-11.0548 12.33334,-15.04999 7.44476,-8.11001 8.02584,-10.84759 3.98414,-18.76997 -1.4762,-2.89359 -4.21658,-12.61968 -6.08976,-21.61355 -1.87317,-8.99387 -3.9262,-18.75249 -4.56228,-21.68583 -0.63608,-2.93333 -1.88877,-17.49729 -2.78376,-32.36436 -1.79721,-29.85437 -0.15856,-71.93489 3.43858,-88.3023 1.0476,-4.76667 2.88577,-13.76667 4.08485,-20 1.19907,-6.23334 3.30709,-14.63334 4.68449,-18.66667 1.37739,-4.03333 3.39203,-11.23333 4.47696,-16 1.08494,-4.76667 3.20163,-11.04353 4.70376,-13.94859 1.50214,-2.90505 2.74912,-6.20505 2.77111,-7.33333 0.022,-1.12828 2.05288,-5.64583 4.51313,-10.03899 3.34366,-5.97064 5.94284,-8.77801 10.29338,-11.11788 5.68724,-3.0588 6.44461,-3.1166 33.15353,-2.53029 23.10115,0.50711 28.4688,1.01644 34.66667,3.28951 4.03333,1.47922 11.83333,3.59621 17.33333,4.70441 5.5,1.1082 12.7,2.96539 16,4.12708 3.3,1.16171 9,3.08844 12.66667,4.28167 15.09353,4.91176 24.4375,8.43841 29.38826,11.09185 2.8814,1.54435 6.18123,2.80789 7.33295,2.80789 1.15172,0 4.12717,1.5 6.61212,3.33334 2.48495,1.83333 5.40409,3.33333 6.487,3.33333 1.92304,0 16.206,6.26317 22.84633,10.01827 1.83334,1.03674 6.33334,3.43182 10,5.3224 C 955,745.23124 961.6,748.81005 966,751.29357 c 4.4,2.48352 10.4,5.74976 13.33333,7.2583 4.76483,2.45042 11.87407,6.92193 33.47177,21.05273 3.5905,2.3492 7.4282,5.09352 8.5282,6.09849 6.5419,5.97675 16.9028,6.07472 34,0.32152 5.1334,-1.72736 13.8334,-3.8313 19.3334,-4.67544 5.5,-0.84414 13.6,-2.65914 18,-4.03336 4.4,-1.37421 12.2,-2.88973 17.3333,-3.36781 5.1333,-0.47807 14.7333,-2.03743 21.3333,-3.46524 6.6,-1.4278 21,-3.17157 32,-3.87505 11,-0.70347 32.1325,-2.17799 46.9611,-3.27671 34.4425,-2.552 90.7899,-2.55691 126.5036,-0.0107 15.3277,1.09267 37.4687,2.55876 49.202,3.25799 11.7333,0.69924 27.0333,2.43735 34,3.86247 6.9667,1.42512 17.6717,3.00506 23.7889,3.51097 6.1174,0.50592 13.6152,1.79939 16.6622,2.87439 3.0468,1.07498 10.9417,2.86652 17.5442,3.98118 6.6026,1.11467 16.5047,3.56816 22.0047,5.45219 12.68,4.34355 23.3417,4.74471 28.5487,1.07416 10.862,-7.65696 39.7944,-25.85773 47.6888,-30 3.494,-1.83333 12.6333,-6.48123 20.3094,-10.32865 7.6762,-3.84743 14.2876,-7.53096 14.6923,-8.18563 0.4045,-0.65467 2.3913,-1.59329 4.4149,-2.08584 2.0235,-0.49253 5.8807,-2.33539 8.5714,-4.09523 2.6906,-1.75982 6.5906,-3.613 8.6666,-4.11817 2.076,-0.50516 7.009,-2.62877 10.9623,-4.71915 3.9532,-2.09036 8.0343,-3.80066 9.0692,-3.80066 1.0348,0 4.1003,-1.19086 6.8123,-2.64634 7.5065,-4.02873 21.3734,-9.32032 29.9969,-11.44674 4.2531,-1.04875 9.3531,-2.72398 11.3333,-3.72274 1.9803,-0.99874 8.4006,-2.76638 14.2672,-3.92808 5.8667,-1.16169 12.9892,-3.0829 15.8279,-4.26936 10.6893,-4.46784 54.4283,-5.67365 64.7276,-1.78444 4.0949,1.5463 10.7779,7.653 10.7779,9.84856 0,0.85359 1.4672,4.31138 3.2604,7.68399 1.7932,3.37261 3.6697,8.41197 4.17,11.19859 0.5002,2.78661 2.2534,8.36656 3.8961,12.39989 1.6427,4.03333 3.3615,10.69884 3.8196,14.81223 0.4581,4.11338 1.7941,9.77906 2.9688,12.59041 1.1747,2.81133 3.2736,12.94583 4.6643,22.52111 1.3906,9.57526 3.1314,19.80958 3.8684,22.74292 4.1544,16.53704 4.6033,83.7841 0.69,103.33333 -0.9543,4.76667 -2.9475,14.66667 -4.4295,22 -1.4819,7.33333 -3.9293,16.03333 -5.4387,19.33333 -1.5093,3.3 -2.7574,8.58815 -2.7734,11.75143 -0.027,5.29609 0.8464,6.77392 11.032,18.66667 6.0838,7.10338 12.0653,14.41524 13.2924,16.24857 1.227,1.83333 4.0289,5.73335 6.2264,8.66665 2.1973,2.9334 5.5352,8.0334 7.4173,11.3334 1.8821,3.3 5.2032,8.7 7.38,12 2.1769,3.3 5.4256,9.0948 7.2193,12.8774 1.7936,3.7826 3.8775,7.2583 4.6308,7.7239 0.7535,0.4656 2.2123,3.6708 3.2422,7.1226 1.0297,3.4519 3.0872,8.3761 4.5721,10.9427 1.4848,2.5667 3.1247,6.7667 3.644,9.3334 0.5193,2.5666 1.8169,5.6574 2.8835,6.8684 1.0665,1.2109 2.7997,5.8907 3.8514,10.3994 1.0519,4.5088 2.7491,9.818 3.7716,11.7983 1.0226,1.9803 2.8336,8.8066 4.0248,15.1696 1.1911,6.3629 3.0498,14.075 4.1304,17.1379 1.0806,3.0629 2.5882,11.0568 3.3499,17.7643 0.7619,6.7075 2.4165,16.6954 3.6772,22.1954 3.3767,14.7325 3.3845,113.6423 0.013,135.3333 -1.2546,8.0667 -2.9114,21.3123 -3.6816,29.4347 -0.7701,8.1225 -2.8888,21.9225 -4.7081,30.6667 -1.8193,8.7442 -3.3253,17.3986 -3.3467,19.232 -0.021,1.8333 -1.5052,7.4896 -3.2976,12.5694 -1.7924,5.08 -3.6444,11.98 -4.1154,15.3334 -0.4711,3.3534 -1.9362,8.4972 -3.2556,11.4305 -1.3196,2.9333 -3.5942,8.9333 -5.0546,13.3333 -5.2818,15.9132 -8.0636,22.9198 -14.8221,37.3334 -3.7825,8.0666 -7.864,16.4666 -9.07,18.6666 -1.206,2.2 -3.6093,6.7 -5.3409,10 -1.7316,3.3 -4.9232,8.7 -7.0924,12 -2.1692,3.3 -4.9916,7.7074 -6.2722,9.794 -1.2805,2.0868 -3.8282,5.8122 -5.6616,8.2786 -1.8333,2.4664 -4.8333,6.6813 -6.6666,9.3662 -1.8334,2.6851 -5.1334,6.9128 -7.3334,9.395 -2.2,2.4821 -5.5,6.3782 -7.3333,8.658 -11.4979,14.2977 -29.4451,32.174 -46.6667,46.482 -4.7666,3.9601 -9.8666,8.2826 -11.3333,9.6054 -6.2047,5.5962 -14.3785,11.43 -26.7436,19.0875 -4.4839,2.7768 -9.508,6.0676 -15.3548,10.0575 -2.8987,1.9778 -14.0193,8.035 -32.5683,17.7389 -17.9868,9.4099 -63.0082,27.2095 -78.6666,31.1015 -4.4,1.0937 -11.4308,3.1642 -15.624,4.6014 -4.1934,1.4371 -12.1754,3.4836 -17.7379,4.5479 -5.5627,1.0644 -11.2225,2.5285 -12.5777,3.2539 -1.3552,0.7252 -8.3732,2.2504 -15.5956,3.3893 -7.2223,1.1388 -16.1315,2.9171 -19.7982,3.9515 -7.847,2.214 -26.6217,4.6914 -35.5529,4.6914 -3.4593,0 -6.6543,0.59 -7.0999,1.311 -0.7129,1.1536 2.8754,6.8385 13.7192,21.7348 1.6866,2.3166 3.5382,4.5292 4.1147,4.9165 1.4315,0.9619 10.8189,15.8321 10.8189,17.1379 0,0.5766 1.4686,3.0389 3.2635,5.4718 1.7949,2.433 3.6539,6.2995 4.1309,8.5924 0.4771,2.293 1.7754,5.6 2.8852,7.3491 3.1356,4.9416 11.9295,34.5735 12.9055,43.4865 0.4819,4.4 1.8815,11.3 3.1104,15.3334 1.9812,6.5022 2.3177,19.346 2.9695,113.3333 0.4042,58.3 1.2457,106.7909 1.87,107.7576 0.6505,1.0076 2.0728,1.3705 3.3333,0.8505 1.2091,-0.4989 4.9449,-1.6582 8.302,-2.5762 z"
     id="path1935"
     inkscape:connector-curvature="0" />
</svg>
