<?xml version="1.0" encoding="UTF-8" standalone="no"?>
<!-- Created with Inkscape (http://www.inkscape.org/) -->

<svg
   xmlns:dc="http://purl.org/dc/elements/1.1/"
   xmlns:cc="http://creativecommons.org/ns#"
   xmlns:rdf="http://www.w3.org/1999/02/22-rdf-syntax-ns#"
   xmlns:svg="http://www.w3.org/2000/svg"
   xmlns="http://www.w3.org/2000/svg"
   xmlns:sodipodi="http://sodipodi.sourceforge.net/DTD/sodipodi-0.dtd"
   xmlns:inkscape="http://www.inkscape.org/namespaces/inkscape"
   version="1.1"
   id="svg815"
   width="1600"
   height="1600"
   viewBox="0 0 1600 1600"
   sodipodi:docname="ThermoFlyAI.svg"
   inkscape:version="0.92.5 (2060ec1f9f, 2020-04-08)">
  <metadata
     id="metadata821">
    <rdf:RDF>
      <cc:Work
         rdf:about="">
        <dc:format>image/svg+xml</dc:format>
        <dc:type
           rdf:resource="http://purl.org/dc/dcmitype/StillImage" />
        <dc:title></dc:title>
      </cc:Work>
    </rdf:RDF>
  </metadata>
  <defs
     id="defs819" />
  <sodipodi:namedview
     pagecolor="#ffffff"
     bordercolor="#666666"
     borderopacity="1"
     objecttolerance="10"
     gridtolerance="10"
     guidetolerance="10"
     inkscape:pageopacity="0"
     inkscape:pageshadow="2"
     inkscape:window-width="3000"
     inkscape:window-height="1859"
     id="namedview817"
     showgrid="false"
     inkscape:zoom="0.68589358"
     inkscape:cx="829.46468"
     inkscape:cy="762.84889"
     inkscape:window-x="-13"
     inkscape:window-y="-13"
     inkscape:window-maximized="1"
     inkscape:current-layer="svg815" />
  <path
     style="fill:#ffffff;stroke-width:1.33333337"
     d="m 758.5056,1099.4303 c -9.49155,-3.6138 -22.53732,-13.0918 -32.29097,-23.46 -11.68799,-12.4244 -20.4067,-28.6834 -25.26299,-47.1114 l -3.11168,-11.8077 -1.50101,5.1411 c -0.82556,2.8276 -1.88494,7.541 -2.35418,10.4744 -1.37046,8.5671 -3.43777,12.66 -7.43969,14.7295 -9.29679,4.8076 -14.88148,1.0846 -22.66041,-15.1062 C 652.73987,1009.0935 648,990.36387 648,969.52152 v -13.25759 l -4.50443,0.12774 c -8.95161,0.25373 -14.65652,-7.0218 -21.73973,-27.72496 -4.78877,-13.99687 -5.95781,-19.96804 -6.91757,-35.33334 l -0.87448,-14 -4.45515,7.68907 c -2.45033,4.22899 -5.72568,8.57899 -7.27856,9.66667 -4.70573,3.29601 -11.25241,2.49373 -15.66597,-1.91984 -3.51758,-3.5176 -3.89744,-4.75218 -3.89744,-12.66671 0,-4.82307 -0.21138,-8.76923 -0.46971,-8.76923 -0.25835,0 -6.75412,2.63294 -14.43505,5.85096 -26.2384,10.99292 -72.22411,24.78915 -82.68756,24.8072 -3.22898,0.005 -6.15568,-1.04953 -8.49662,-3.0631 -3.16205,-2.7199 -4.07513,-5.6307 -7.97389,-25.41996 -16.25727,-82.5185 -16.67493,-148.34782 -1.31971,-208.00034 23.45042,-91.10093 86.1751,-158.3348 182.71587,-195.85102 10.3186,-4.00986 45.84129,-15.06384 56.95865,-17.72446 l 3.62532,-0.86761 -2.46162,-4.86583 c -1.3539,-2.67621 -4.02818,-9.23188 -5.94286,-14.56816 -3.61474,-10.07445 -7.2119,-17.81453 -8.81357,-18.96434 -0.51076,-0.36667 -3.09537,-3.96667 -5.74359,-8 -11.98988,-18.26106 -15.62689,-22.97198 -24.04585,-31.14592 -9.88191,-9.59434 -31.85397,-26.57256 -38.61059,-29.83514 -2.36457,-1.14177 -5.19922,-2.83068 -6.29922,-3.75312 -1.1,-0.92242 -7.7,-4.25041 -14.66667,-7.39552 -11.88261,-5.36441 -13.42461,-5.72308 -24.91149,-5.79434 -11.7032,-0.0727 -12.42699,-0.25044 -16.3631,-4.02059 -10.92137,-10.46092 -6.91196,-28.04005 7.47854,-32.78935 6.75248,-2.22852 13.2373,-0.48916 19.58241,5.25238 3.05084,2.76061 9.14697,6.4246 13.54697,8.14218 50.73139,19.8035 92.77012,56.71243 116.96964,102.69638 3.28719,6.24632 7.94455,16.53748 10.3497,22.86922 4.91238,12.93231 5.17936,13.10715 20.014,13.10715 14.83464,0 15.10161,-0.17484 20.014,-13.10715 10.66734,-28.08276 26.18881,-51.79784 48.6263,-74.29558 22.4331,-22.49335 47.75799,-38.97523 78.88686,-51.34094 5.91198,-2.34849 11.31924,-5.48692 12.88665,-7.47957 5.1768,-6.58124 16.10264,-8.97999 23.49357,-5.15799 8.99619,4.65211 13.73888,15.01962 10.86055,23.74107 -3.34316,10.12985 -13.82597,15.39752 -25.35749,12.74227 -5.73396,-1.32031 -6.83862,-1.06396 -19.56323,4.53981 -37.16348,16.36639 -66.53872,41.16353 -87.45147,73.82229 -6.90421,10.78208 -21.05896,40.90228 -21.06174,44.81774 -3.6e-4,0.52173 2.54933,1.59298 5.666,2.38057 12.98974,3.28252 45.32268,13.99621 58.67044,19.44077 18.03997,7.35852 46.79053,21.7906 58.99622,29.61466 24.36023,15.61532 55.49555,43.88758 71.52587,64.94872 57.042,74.94356 72.3855,178.14057 45.7859,307.9465 -6.0987,29.76122 -7.521,30.75156 -34.40347,23.95447 -29.85539,-7.54879 -63.39994,-19.75955 -87.41388,-31.82007 -6.65928,-3.3445 -12.26979,-6.08073 -12.46778,-6.0805 -0.19798,2.1e-4 -0.44236,7.95021 -0.54305,17.66666 -0.45825,44.21819 -16.63793,84.14315 -50.7876,125.32347 -13.36348,16.1147 -30.40949,32.8031 -34.57353,33.8482 -4.89295,1.2281 -11.156,-1.0429 -14.22948,-5.1595 -2.51984,-3.375 -2.60263,-4.3178 -1.16982,-13.3223 0.85571,-5.3777 3.95052,-15.2347 6.95403,-22.1486 4.40057,-10.12989 9.20537,-25.48528 9.30311,-29.73127 0.0107,-0.47094 -2.18034,0.26538 -4.86927,1.63627 -7.44157,3.79393 -15.07451,0.93773 -18.00877,-6.73879 -1.21516,-3.17906 -1.39726,-3.04169 -5.30199,4 C 771.27112,993.04047 764,1016.8563 764,1037.2623 c 0,15.2318 2.12072,23.5425 9.4438,37.0082 3.24379,5.9647 5.22287,11.3678 5.22287,14.259 0,9.6384 -9.70082,14.8835 -20.16107,10.9008 z m -18.6146,-88.097 c 4.55221,-19.88193 15.39237,-45.51438 28.63053,-67.69921 4.04463,-6.77808 9.25276,-16.51172 11.57364,-21.63029 10.01531,-22.08828 14.47356,-53.76892 11.97319,-85.08215 -1.95839,-24.5256 -9.73183,-67.03237 -12.002,-65.62933 -0.55048,0.34021 -1.38164,4.98861 -1.84703,10.32979 -1.8627,21.37773 -11.032,47.08777 -23.51042,65.92149 -10.25714,15.48112 -19.20599,25.28419 -32.69898,35.82028 -35.41858,27.65684 -51.72701,60.69191 -47.3501,95.91441 0.7753,6.23914 1.90786,12.69068 2.5168,14.33679 1.06345,2.87481 1.19965,2.80992 3.45144,-1.64441 1.28936,-2.55054 5.4255,-8.7433 9.19144,-13.76168 10.53829,-14.04304 17.24262,-16.21486 25.81202,-8.36158 l 4.92572,4.51408 1.65778,18.48592 c 1.8668,20.81679 5.0559,34.74309 10.64608,46.48949 l 3.80556,7.9964 0.84896,-14.6666 c 0.46692,-8.0667 1.53584,-17.6667 2.37537,-21.3334 z m 106.54792,-49.66663 c 22.18945,-36.90352 29.37991,-71.19564 22.82327,-108.8467 -1.55456,-8.92694 -1.6468,-9.06925 -9.65686,-14.89774 -4.44802,-3.23659 -8.22553,-5.74315 -8.39448,-5.57014 -0.16894,0.17302 -0.98456,8.41458 -1.81246,18.31458 -2.42254,28.96825 -10.31154,61.81528 -20.52646,85.46498 -2.05442,4.75643 -2.03836,4.82359 1.8391,7.69031 5.32612,3.93779 7.83282,9.27849 8.8292,18.81127 0.46181,4.41838 0.98534,8.03344 1.1634,8.03344 0.17806,0 2.75894,-4.05 5.73529,-9 z M 670.24384,898.61039 c 6.31064,-9.16591 25.56892,-29.71012 33.08949,-35.299 19.07724,-14.17715 34.33924,-34.1547 41.41603,-54.21243 l 1.79623,-5.09104 -9.60614,8.36264 C 731.65609,816.97001 722.23333,824.598 716,829.32165 c -15.22977,11.54118 -22.93665,18.81834 -32.15563,30.36268 -13.21488,16.54816 -22.41144,36.04375 -24.51578,51.97042 L 658.49021,918 l 3.79198,-6.66667 c 2.08558,-3.66666 5.66833,-9.39198 7.96165,-12.72294 z m 148.00031,-17.52706 c -0.42563,-1.06364 -0.74158,-0.7477 -0.80555,0.80556 -0.0579,1.40555 0.25724,2.19306 0.70029,1.75 0.44306,-0.44305 0.49042,-1.59306 0.1052,-2.55556 z m -160.34546,-31.1511 c 8.17419,-11.63102 30.32715,-33.7028 43.90486,-43.74399 13.50962,-9.99084 34.55734,-31.36948 46.41205,-47.14175 9.92747,-13.20816 13.52276,-15.72873 20.7844,-14.57142 2.38333,0.37984 4.33333,0.36402 4.33333,-0.0351 0,-0.39916 -2.22485,-4.79401 -4.94413,-9.76635 l -4.94412,-9.04061 -12.05588,-0.64487 c -9.14911,-0.48938 -12.37735,-0.21213 -13.3892,1.14994 -0.73333,0.98714 -5.08749,8.25992 -9.67592,16.16172 -13.99757,24.10542 -28.0946,41.89758 -51.78612,65.36032 -12.02921,11.91305 -21.87177,22.71305 -21.87235,24 -5.7e-4,1.28694 -1.83154,6.20926 -4.06882,10.93849 -4.69052,9.91496 -9.27942,25.51625 -9.22838,31.37461 0.0309,3.54682 0.63008,2.9062 5.0268,-5.3743 2.74544,-5.17062 7.92202,-13.57062 11.50348,-18.66667 z m 164.86519,2.45908 c 0.94925,-9.88386 1.18893,-22.26367 0.61032,-31.52396 -0.93192,-14.91491 -1.04717,-15.3401 -5.26697,-19.4301 l -4.31422,-4.18149 1.82806,10.37212 c 1.00542,5.70467 2.20441,23.87212 2.6644,40.37212 0.89225,32.00485 1.74598,32.84199 4.47841,4.39131 z M 552,860.87407 l 8.66667,-2.89316 -0.44258,-8.65712 c -0.3872,-7.57372 -5.71542,-44.8301 -7.56822,-52.91898 -0.65916,-2.87774 -0.84816,-2.83782 -10.89879,2.30212 -5.6254,2.87686 -10.68785,5.6947 -11.24991,6.26186 -0.56205,0.56717 0.98642,13.63121 3.44106,29.03121 2.45464,15.4 4.18504,28.45 3.84534,29 -1.1087,1.79513 5.36062,0.82703 14.20643,-2.12593 z m 411.60301,-0.54339 c 0.14834,-2.0152 2.08142,-15.02291 4.29576,-28.90601 2.47038,-15.48838 3.558,-25.80598 2.81472,-26.70158 -2.3293,-2.80665 -20.03648,-10.60338 -21.1598,-9.31697 -0.60541,0.69329 -3.08285,14.05892 -5.50545,29.70136 -3.74189,24.16115 -4.12709,28.70375 -2.5598,30.18815 1.01469,0.96102 6.34489,3.29792 11.84489,5.19309 5.5,1.89517 10,3.45932 10,3.47588 0,0.0165 0.12134,-1.61871 0.26968,-3.63392 z m 54.23059,-51.16673 c 1.4211,-15.29044 0.2351,-17.13986 -15.7354,-24.53879 -39.02461,-18.07961 -95.43153,-46.70235 -95.43153,-48.42511 0,-4.14522 -6.25348,-14.10124 -10.71094,-17.05261 -2.59101,-1.71557 -7.46602,-3.49684 -10.83337,-3.95839 -21.04959,-2.88517 -35.22997,21.42094 -23.14827,39.67763 6.35099,9.59697 21.30295,13.37649 31.43498,7.94604 4.50209,-2.41297 4.89978,-2.4218 9.31358,-0.20659 51.39308,25.7933 112.27685,55.83706 113.41925,55.96791 0.4447,0.0509 1.2059,-4.1836 1.6917,-9.41009 z M 873.23077,749.43589 c -2.88548,-2.88546 -3.89744,-5.16238 -3.89744,-8.76922 0,-10.70848 14.08404,-17.04986 21.15372,-9.52454 1.62354,1.72819 3.30404,5.31227 3.73447,7.96463 0.68859,4.24332 0.21788,5.38717 -3.91947,9.52452 -6.08118,6.08119 -11.53754,6.33836 -17.07128,0.80461 z m -354.88633,52.76899 c 16.67723,-8.32065 37.22223,-18.28417 45.65556,-22.14117 8.43333,-3.85699 16.23333,-7.54544 17.33333,-8.19655 1.1,-0.65111 6.56672,-3.55241 12.14827,-6.44733 9.41944,-4.88548 10.35556,-5.1183 13.03471,-3.24174 4.95584,3.4712 16.16188,3.86474 23.06742,0.81008 19.7489,-8.73588 19.76598,-37.2329 0.0276,-45.96414 -14.25409,-6.30527 -30.86778,2.11624 -34.21194,17.34206 -0.88851,4.04535 -2.47047,5.04234 -27.17139,17.12403 -14.42537,7.05573 -39.41084,19.08977 -55.52325,26.74232 -16.11242,7.65253 -29.40619,14.03083 -29.54171,14.17397 -0.13552,0.14314 0.57608,5.66026 1.58135,12.26026 1.00525,6.6 1.84902,12.15 1.87502,12.33333 0.12294,0.8662 3.36932,-0.64779 31.72507,-14.79512 z m 94.18704,-53.40673 c -4.46088,-4.46088 -4.80883,-5.34811 -4.11783,-10.49996 0.9101,-6.78526 5.82408,-11.63152 11.79403,-11.63152 5.97124,0 13.12565,7.5178 13.12565,13.79232 0,6.28122 -4.51348,11.39438 -10.96461,12.42141 -4.42896,0.70508 -5.49036,0.26463 -9.83724,-4.08225 z m -81.19815,13.28806 c 1.46667,-0.2269 3.39598,-0.48912 4.28736,-0.58272 0.89139,-0.0936 3.53723,-2.04362 5.87966,-4.33341 l 4.25894,-4.16327 -2.6687,-17.47744 c -2.63307,-17.24398 -2.6347,-17.55436 -0.12147,-23.23585 7.81115,-17.6584 -14.61739,-33.91743 -28.73264,-20.82904 -7.22659,6.70088 -8.25425,15.88056 -2.6886,24.01612 2.68912,3.93081 4.31112,9.38148 6.70127,22.5194 1.73436,9.53333 3.52402,19.33077 3.97702,21.77208 0.69715,3.75704 1.25498,4.30728 3.63208,3.58272 1.54464,-0.47083 4.00844,-1.04168 5.47511,-1.26859 z m -8.66666,-45.66678 c -8.28398,-3.1431 -10.81004,-13.73059 -4.72727,-19.81336 7.34839,-7.3484 19.39393,-2.1099 19.39393,8.43424 0,7.60502 -8.08374,13.8768 -14.66666,11.37912 z M 979.84519,755 c 0.78069,-4.95 1.67006,-10.8 1.97638,-13 2.11826,-15.21376 3.93606,-21.56567 7.13672,-24.93767 4.87862,-5.13978 5.74362,-15.19985 1.8488,-21.50178 -6.95265,-11.24964 -24.08734,-11.60643 -30.77292,-0.64079 -3.18606,5.22579 -3.54106,14.25452 -0.77106,19.61109 1.70972,3.30624 1.63646,5.54126 -0.64242,19.60046 -1.41469,8.72778 -2.58308,16.83422 -2.59642,18.01432 -0.0156,1.38448 3.64141,3.84769 10.30906,6.94365 5.68334,2.63892 10.72912,4.82339 11.21287,4.85437 0.48375,0.0309 1.51828,-3.99365 2.29899,-8.94365 z m -11.61278,-43.41927 c -8.99906,-9.57908 3.15504,-23.69034 13.43794,-15.60182 4.41553,3.47325 5.56118,8.39453 3.07392,13.20436 -3.3006,6.38265 -11.63158,7.59228 -16.51186,2.39746 z M 767.33333,701.11947 c 6.6,-1.51256 18,-4.45079 25.33334,-6.52939 16.86494,-4.78028 56.12757,-15.21113 84.66666,-22.49328 12.1,-3.08748 26.5,-7.09967 32,-8.91599 26.3984,-8.71777 44.71802,-13.445 47.75347,-12.3224 4.92297,1.82066 14.05896,1.32432 17.29081,-0.93934 7.06262,-4.94686 8.77159,-14.65939 4.23012,-24.04082 -5.53341,-11.4305 -18.5608,-13.04528 -27.6767,-3.4306 -2.78907,2.94168 -7.1558,4.79411 -19.42823,8.24168 -8.70679,2.44592 -16.80679,4.55468 -18,4.68614 -3.38635,0.37305 -43.7524,11.24562 -78.83613,21.23445 C 815.22243,662.14597 765.03117,676 764.41907,676 764.18857,676 764,650.8 764,620 c 0,-30.8 0.45,-56.00136 1,-56.00303 0.55,-10e-4 17.8,3.25792 38.33333,7.24355 20.53334,3.98561 48.73334,9.43708 62.66667,12.11437 43.2546,8.31138 45.26173,8.78162 48,11.24563 9.01627,8.11323 23.04537,6.73093 29.13,-2.8702 5.11915,-8.07765 2.64845,-20.75629 -5.02452,-25.78381 -5.45313,-3.57303 -13.91045,-3.90334 -19.90276,-0.7773 l -5.13061,2.67651 -20.86939,-4.00263 c -11.47816,-2.20144 -28.36939,-5.55021 -37.53605,-7.4417 C 845.5,554.50989 821.5,549.55421 801.33333,545.38876 l -36.66666,-7.57356 -0.37346,-17.77804 c -0.36016,-17.14528 -0.25338,-17.95129 3,-22.64593 6.40347,-9.24022 3.41134,-22.54519 -6.1863,-27.50832 -8.84368,-4.57324 -20.09867,-1.66803 -25.2401,6.51516 -3.40942,5.42649 -2.83382,14.89598 1.25443,20.63741 2.61005,3.66548 2.87876,5.73488 2.87876,22.17035 0,9.97013 -0.19703,18.1275 -0.43783,18.1275 -1.88994,0 -75.09166,15.38658 -85.56217,17.98467 -7.33333,1.81965 -16.03333,3.57539 -19.33333,3.90161 -3.3,0.32624 -14.96924,2.47875 -25.93166,4.78336 l -19.93164,4.19022 -4.91656,-2.76327 c -12.87228,-7.23463 -27.86925,1.17576 -27.88182,15.63629 -0.0149,17.22564 18.24696,25.13979 31.32834,13.57674 1.85076,-1.63595 13.68144,-4.45503 38.66667,-9.2137 19.8,-3.7711 52.8,-10.14064 73.33333,-14.15454 20.53334,-4.0139 38.08334,-7.29276 39,-7.28635 C 739.64003,563.99769 740,576.09511 740,620 c 0,43.91392 -0.35971,55.99887 -1.66667,55.99473 -1.75268,-0.005 -43.33933,-11.28318 -71.66666,-19.43488 C 652.46192,652.47219 606.77728,639.96417 594,636.66443 c -2.2,-0.56815 -5.31496,-1.2054 -6.92215,-1.41612 -1.60717,-0.21072 -9.70717,-2.28122 -18,-4.60112 -11.41804,-3.19418 -15.67781,-5.00734 -17.54958,-7.46992 C 548.46561,619.14789 542.56125,616 538.06621,616 c -1.86974,0 -3.39954,-0.63392 -3.39954,-1.40872 0,-0.77479 -1.85684,-0.32479 -4.12632,1 -14.74399,8.60671 -17.30816,23.87644 -5.5215,32.88063 4.69888,3.58962 5.51704,3.76158 14.43812,3.03473 8.39143,-0.68369 11.47112,-0.17929 27.33334,4.4768 9.832,2.88603 22.07636,6.47503 27.20969,7.97555 5.13333,1.50053 30.33333,8.40362 56,15.34021 25.66667,6.93659 57.16667,15.61749 70,19.29091 25.71356,7.36022 26.15192,7.38365 47.33333,2.52936 z M 527.10465,643.47484 c -2.96628,-2.55148 -3.71072,-4.31856 -3.71072,-8.80817 0,-9.72602 8.84094,-14.705 17.84404,-10.04932 4.34019,2.24441 5.4287,4.42708 5.4287,10.88564 0,9.99852 -11.67476,14.75618 -19.56202,7.97185 z m 428.79279,-0.70561 c -9.62751,-9.62751 1.28232,-24.38742 13.39585,-18.12327 7.55938,3.90911 8.48115,14.04925 1.75786,19.33779 -4.94283,3.88804 -10.49624,3.44294 -15.15371,-1.21452 z M 567.22816,592.80504 c -7.46792,-3.3068 -9.1638,-13.53607 -3.22816,-19.47171 5.76093,-5.76093 15.71523,-4.32997 19.39621,2.78826 2.82146,5.4561 2.39859,8.6696 -1.72954,13.14312 -4.46578,4.83941 -8.99608,5.95024 -14.43851,3.54033 z m 355.91451,0.53952 c -7.3722,-2.97505 -9.52171,-13.7534 -3.86994,-19.40516 5.9302,-5.93021 15.5006,-3.86757 18.81047,4.05408 2.42668,5.80784 0.38971,12.01541 -4.82821,14.71369 -4.24766,2.19656 -5.97836,2.30564 -10.11232,0.63739 z M 745.17801,493.47568 c -2.37501,-1.92317 -3.11741,-3.86223 -3.11741,-8.14235 0,-6.81848 3.90148,-10.66666 10.81439,-10.66666 9.43657,0 14.2723,10.30592 8.36157,17.82018 -3.42819,4.35824 -11.29897,4.8429 -16.05855,0.98883 z m -64.30666,151.17948 c 7.60878,-4.98547 10.68126,-16.49599 6.54058,-24.50317 -1.05677,-2.04358 -3.9729,-5.28035 -6.4803,-7.19283 -3.08852,-2.35573 -5.9885,-6.73025 -8.99138,-13.56327 -3.23536,-7.36198 -4.9962,-9.93008 -6.5197,-9.50858 -1.14796,0.31758 -6.58722,1.32096 -12.08722,2.2297 -5.5,0.90875 -10.20156,1.80574 -10.4479,1.99332 -0.24636,0.18758 2.04054,5.6395 5.082,12.11536 5.03185,10.7138 5.4574,12.43483 4.72473,19.10764 -1.04352,9.50382 1.96861,15.37902 10.11496,19.72932 6.46055,3.45007 12.38067,3.31652 18.06423,-0.40749 z m -17.59862,-7.92789 c -5.39521,-5.3952 -4.32,-14.0944 2.15596,-17.44326 5.30336,-2.74246 8.52364,-2.43721 12.76363,1.20987 2.79812,2.40684 3.67435,4.35583 3.67435,8.17279 0,9.85297 -11.72062,14.93393 -18.59394,8.0606 z m 178.95234,6.50849 c 5.22836,-3.96769 7.6636,-10.88496 6.51905,-18.51732 -0.73969,-4.93265 -0.0969,-7.40429 4.53028,-17.41981 2.96575,-6.41936 5.39227,-12.38394 5.39227,-13.25463 0,-0.90349 -3.86347,-2.28727 -9,-3.22351 -4.95,-0.90224 -10.3033,-1.95926 -11.89622,-2.34896 -2.5466,-0.623 -3.56694,0.73508 -8.4525,11.25026 -3.79356,8.16486 -6.57695,12.42381 -8.77351,13.42464 -4.50305,2.05172 -8.53355,9.25097 -8.53945,15.25312 -0.0159,16.10993 17.32405,24.62276 30.22008,14.83621 z m -18.71192,-5.9992 C 820.8142,635.11356 820,633.29375 820,629.38427 c 0,-7.44972 3.64917,-11.32367 10.66667,-11.32367 7.01749,0 10.66666,3.87395 10.66666,11.32367 0,5.9519 -4.68621,10.61573 -10.66666,10.61573 -2.00222,0 -5.2213,-1.24355 -7.15352,-2.76344 z m 64.97136,-102.02463 c 4.2998,-8.49361 7.2998,-15.90072 6.66666,-16.46024 -0.63314,-0.55953 -6.41113,-3.77681 -12.83996,-7.14953 l -11.68878,-6.13223 -6.66803,13.2876 c -6.63247,13.21674 -11.29389,25.0141 -10.28307,26.02491 0.29127,0.29127 6.18438,1.66477 13.09579,3.05224 6.91141,1.38745 12.86621,2.58959 13.23288,2.67141 0.36667,0.0819 4.18469,-6.80054 8.48451,-15.29416 z m -253.15118,10.82315 c 5.86667,-1.2064 11.42819,-2.4434 12.35892,-2.74891 1.16047,-0.3809 -1.04226,-6.01249 -7.00953,-17.92081 C 635.89673,515.81441 631.66811,508 631.28577,508 c -0.89668,0 -14.44153,7.21792 -21.09405,11.24081 -2.82788,1.71008 -4.57519,3.33047 -3.88291,3.60087 0.69228,0.27041 4.03958,6.38731 7.43843,13.59309 4.95259,10.49982 6.65032,12.9716 8.54957,12.4476 1.30343,-0.35962 7.16986,-1.6409 13.03652,-2.84729 z M 582.56436,319.21481 c 10.61989,-8.93605 -0.118,-25.49517 -12.31868,-18.99702 -10.88407,5.79689 -6.57749,21.88846 5.98535,22.36436 1.22708,0.0465 4.07708,-1.46882 6.33333,-3.36734 z m 351.66432,0.26003 c 2.93667,-2.52601 3.71072,-4.33247 3.71072,-8.65993 0,-6.69167 -3.41735,-10.5733 -10.29059,-11.68867 -4.18202,-0.67864 -5.42393,-0.22291 -8.92029,3.27344 -5.40987,5.40987 -5.46669,11.06728 -0.16441,16.36955 4.87482,4.87482 10.52185,5.1292 15.66457,0.70561 z"
     id="path825"
     inkscape:connector-curvature="0"
     inkscape:export-filename="C:\Users\pverl\Documents\GitHub\website\public\ThermoFlyAI.png"
     inkscape:export-xdpi="96"
     inkscape:export-ydpi="96" />
</svg>
