<?xml version="1.0" encoding="UTF-8" standalone="no"?>
<!-- Created with Inkscape (http://www.inkscape.org/) -->

<svg
   xmlns:dc="http://purl.org/dc/elements/1.1/"
   xmlns:cc="http://creativecommons.org/ns#"
   xmlns:rdf="http://www.w3.org/1999/02/22-rdf-syntax-ns#"
   xmlns:svg="http://www.w3.org/2000/svg"
   xmlns="http://www.w3.org/2000/svg"
   xmlns:sodipodi="http://sodipodi.sourceforge.net/DTD/sodipodi-0.dtd"
   xmlns:inkscape="http://www.inkscape.org/namespaces/inkscape"
   version="1.1"
   id="svg827"
   width="307.20001"
   height="307.20001"
   viewBox="0 0 307.20001 307.20001"
   sodipodi:docname="twitter.svg"
   inkscape:version="0.92.5 (2060ec1f9f, 2020-04-08)">
  <metadata
     id="metadata833">
    <rdf:RDF>
      <cc:Work
         rdf:about="">
        <dc:format>image/svg+xml</dc:format>
        <dc:type
           rdf:resource="http://purl.org/dc/dcmitype/StillImage" />
        <dc:title></dc:title>
      </cc:Work>
    </rdf:RDF>
  </metadata>
  <defs
     id="defs831" />
  <sodipodi:namedview
     pagecolor="#ffffff"
     bordercolor="#666666"
     borderopacity="1"
     objecttolerance="10"
     gridtolerance="10"
     guidetolerance="10"
     inkscape:pageopacity="0"
     inkscape:pageshadow="2"
     inkscape:window-width="3000"
     inkscape:window-height="1859"
     id="namedview829"
     showgrid="false"
     inkscape:zoom="0.76822914"
     inkscape:cx="153.60001"
     inkscape:cy="153.60001"
     inkscape:window-x="-13"
     inkscape:window-y="-13"
     inkscape:window-maximized="1"
     inkscape:current-layer="svg827" />
  <path
     style="fill:#ffffff;stroke-width:0.16000001"
     d="m 149.68,275.57127 c -0.792,-0.0236 -2.628,-0.12003 -4.08,-0.21425 C 116.0902,273.44178 88.481817,260.95929 67.590252,240.0867 61.28993,233.7921 56.901594,228.48447 52.213342,221.48857 41.224749,205.09117 34.44012,186.52449 32.322668,167.0561 c -0.550358,-5.06014 -0.694464,-7.85236 -0.694464,-13.45609 0,-8.7274 0.660487,-15.60069 2.2909,-23.84001 4.189571,-21.17207 13.734499,-40.406899 28.305044,-57.039998 2.189732,-2.499704 8.052563,-8.364814 10.495854,-10.499936 10.563318,-9.230979 21.61582,-16.147303 34.134008,-21.360037 20.05392,-8.350706 42.34004,-11.150668 64.07782,-8.050546 18.34813,2.616707 35.57082,9.259979 50.90818,19.636701 26.74005,18.091389 45.19766,45.816434 51.43005,77.252696 2.66905,13.46274 3.07014,27.10084 1.19699,40.70113 -2.80903,20.39529 -10.73458,39.67889 -23.12343,56.26136 -5.82825,7.80115 -13.01292,15.26438 -21.02361,21.83873 -6.57008,5.39207 -15.79292,11.25063 -23.57551,14.97575 -18.06366,8.64611 -37.13944,12.68942 -57.0645,12.09542 z m -12.64,-66.84728 c 13.80406,-1.47613 25.70034,-5.73568 36.32001,-13.00464 19.55529,-13.38525 32.54644,-36.2733 34.4772,-60.74258 0.0895,-1.13478 0.1628,-3.6668 0.1628,-5.62672 v -3.56348 l 1.4,-1.09121 c 4.40128,-3.43051 8.14384,-7.30446 11.31182,-11.70896 0.59087,-0.82148 1.04496,-1.52294 1.00911,-1.5588 -0.0359,-0.0358 -0.8101,0.22511 -1.72055,0.57992 -2.51504,0.98014 -4.7008,1.68308 -7.14528,2.29793 -2.36461,0.59475 -5.99451,1.26785 -6.38942,1.18481 -0.13399,-0.0282 0.41416,-0.50509 1.24768,-1.08555 1.90961,-1.32986 5.18144,-4.60227 6.5635,-6.56471 0.58877,-0.836 1.46368,-2.276 1.94426,-3.2 0.90353,-1.73723 1.90689,-4.11164 1.82537,-4.31969 -0.0256,-0.0653 -0.62249,0.20631 -1.32649,0.60351 -4.14903,2.3409 -9.99847,4.56512 -14.85212,5.64745 l -1.41211,0.31488 -1.06789,-0.98231 c -4.71464,-4.33683 -9.71873,-6.739408 -15.81974,-7.595422 -2.6571,-0.37281 -6.60422,-0.237128 -9.25926,0.318284 -10.74544,2.247858 -19.0815,10.295068 -21.64325,20.893298 -0.90137,3.72909 -1.04772,7.70827 -0.4168,11.33235 0.14289,0.82079 0.22407,1.52809 0.18038,1.57177 -0.13413,0.13413 -4.35474,-0.2578 -7.30922,-0.67874 -17.0268,-2.42591 -32.80391,-10.32297 -45.0422,-22.54538 -1.233597,-1.232 -2.938523,-3.04725 -3.788722,-4.0339 l -1.545817,-1.7939 -0.403976,0.68933 c -0.222188,0.37914 -0.687933,1.33461 -1.034992,2.12328 -2.779248,6.31564 -3.081388,13.50311 -0.848383,20.18184 1.815371,5.42961 5.311733,10.24547 9.85611,13.5757 0.90586,0.66383 0.92913,0.69763 0.48,0.6972 -0.87459,-8e-4 -3.342049,-0.34521 -4.712017,-0.65765 -2.039406,-0.46511 -3.727885,-1.04735 -5.641112,-1.94526 -0.946613,-0.44426 -1.758344,-0.77051 -1.803851,-0.72501 -0.04551,0.0455 -0.01101,1.02532 0.07667,2.17737 0.298888,3.92751 1.12477,6.92393 2.897077,10.511 3.537926,7.16062 9.724833,12.299 17.498943,14.5333 l 1.90774,0.54829 -0.86774,0.18634 c -2.68829,0.57724 -4.03467,0.68852 -7.1716,0.5927 -1.72487,-0.0527 -3.44335,-0.14056 -3.81884,-0.19528 l -0.68272,-0.0995 0.42304,1.17705 c 0.90722,2.52421 2.88313,5.9472 4.65092,8.05708 0.96662,1.15366 2.99787,3.14107 4.21711,4.12609 4.15837,3.35952 9.75682,5.54607 15.34476,5.99307 l 1.5104,0.12084 -1.3504,0.97411 c -7.69814,5.55307 -16.03691,8.96665 -25.16022,10.29968 -4.397899,0.64257 -9.999046,0.78376 -13.670174,0.34457 -0.55,-0.0658 -1,-0.0765 -1,-0.0238 0,0.18896 4.292534,2.66419 6.96,4.01341 9.496924,4.80352 19.628064,7.5567 30.799994,8.37003 2.0949,0.15249 11.54113,-0.0481 13.84,-0.29397 z"
     id="path1380"
     inkscape:connector-curvature="0" />
</svg>
