<?xml version="1.0" encoding="UTF-8" standalone="no"?>
<!-- Created with Inkscape (http://www.inkscape.org/) -->

<svg
   xmlns:dc="http://purl.org/dc/elements/1.1/"
   xmlns:cc="http://creativecommons.org/ns#"
   xmlns:rdf="http://www.w3.org/1999/02/22-rdf-syntax-ns#"
   xmlns:svg="http://www.w3.org/2000/svg"
   xmlns="http://www.w3.org/2000/svg"
   xmlns:sodipodi="http://sodipodi.sourceforge.net/DTD/sodipodi-0.dtd"
   xmlns:inkscape="http://www.inkscape.org/namespaces/inkscape"
   version="1.1"
   id="svg815"
   width="8000"
   height="8000"
   viewBox="0 0 8000 8000"
   sodipodi:docname="Logo.svg"
   inkscape:version="0.92.5 (2060ec1f9f, 2020-04-08)">
  <metadata
     id="metadata821">
    <rdf:RDF>
      <cc:Work
         rdf:about="">
        <dc:format>image/svg+xml</dc:format>
        <dc:type
           rdf:resource="http://purl.org/dc/dcmitype/StillImage" />
        <dc:title></dc:title>
      </cc:Work>
    </rdf:RDF>
  </metadata>
  <defs
     id="defs819" />
  <sodipodi:namedview
     pagecolor="#ffffff"
     bordercolor="#666666"
     borderopacity="1"
     objecttolerance="10"
     gridtolerance="10"
     guidetolerance="10"
     inkscape:pageopacity="0"
     inkscape:pageshadow="2"
     inkscape:window-width="3000"
     inkscape:window-height="1859"
     id="namedview817"
     showgrid="false"
     inkscape:zoom="0.13717872"
     inkscape:cx="4115.2966"
     inkscape:cy="3192.6314"
     inkscape:window-x="-13"
     inkscape:window-y="-13"
     inkscape:window-maximized="1"
     inkscape:current-layer="svg815" />
  <path
     style="fill:#ffffff;stroke-width:1.33333337"
     d="m 4791.2292,5580.3372 -20.1043,-0.4041 -3.4125,-7.6332 c -4.6264,-10.3487 -7.7403,-17.9076 -15.7775,-38.2999 -3.7573,-9.5333 -7.6337,-19.1333 -8.6142,-21.3333 -0.9806,-2.2 -2.666,-6.4 -3.7454,-9.3334 -3.5842,-9.7405 -7.0918,-18.6108 -9.2269,-23.3333 -1.1603,-2.5667 -3.9613,-9.5921 -6.2245,-15.612 -2.2632,-6.02 -4.95,-12.92 -5.9706,-15.3333 -4.0273,-9.5231 -7.6853,-18.6431 -16.1996,-40.388 -4.8813,-12.4667 -10.3178,-25.8331 -12.0812,-29.7031 -1.7632,-3.8701 -3.2078,-7.4701 -3.2104,-8 0,-0.9439 -6.8358,-18.3673 -9.265,-23.6303 -0.677,-1.4666 -8.207,-20.3666 -16.7332,-42 -8.5264,-21.6333 -16.9639,-42.7084 -18.7499,-46.8333 -1.786,-4.1251 -3.2473,-7.8816 -3.2473,-8.3479 0,-0.4664 -1.1196,-3.3913 -2.4882,-6.5 -1.3684,-3.1086 -4.1268,-9.8521 -6.1296,-14.9854 -2.0029,-5.1334 -4.1745,-10.5334 -4.8258,-12 -2.7972,-6.2984 -9.2143,-22.7476 -9.2186,-23.6303 0,-0.5299 -1.4474,-4.1299 -3.211,-8 -1.7635,-3.87 -5.4242,-12.7364 -8.1346,-19.7031 -4.6936,-12.0637 -6.3482,-16.2441 -12.7986,-32.3333 -1.5435,-3.85 -3.6895,-9.4 -4.769,-12.3333 -1.0793,-2.9334 -2.7745,-7.1334 -3.7669,-9.3334 -0.9924,-2.2 -3.3825,-8.2 -5.3113,-13.3333 -3.844,-10.2307 -6.7123,-17.2457 -11.9232,-29.1611 -1.8827,-4.3053 -3.4232,-8.3618 -3.4232,-9.0145 0,-0.6528 -1.1571,-3.7303 -2.5714,-6.8389 -2.3912,-5.2558 -8.2545,-19.8268 -13.0052,-32.3188 -1.1156,-2.9334 -3.4338,-8.6334 -5.1518,-12.6667 -1.718,-4.0333 -4.6784,-11.5333 -6.5786,-16.6667 -1.9002,-5.1333 -4.3496,-11.3374 -5.443,-13.7869 -1.0935,-2.4495 -4.1258,-9.9495 -6.7384,-16.6667 -2.6126,-6.7172 -5.5168,-14.013 -6.4538,-16.213 -0.937,-2.2 -3.3522,-8.2 -5.3672,-13.3334 -2.015,-5.1333 -4.7946,-11.8768 -6.1772,-14.9854 -1.3824,-3.1087 -2.5134,-6.2427 -2.5134,-6.9644 0,-0.7216 -1.132,-3.8782 -2.5155,-7.0144 -5.3233,-12.0672 -9.4852,-22.1459 -13.9173,-33.7024 -2.5311,-6.6 -6.4116,-16.5 -8.6235,-22 -2.2117,-5.5 -5.6453,-14.2 -7.6303,-19.3334 -1.9848,-5.1333 -4.6497,-11.7333 -5.922,-14.6666 -1.2721,-2.9334 -3.6538,-8.9334 -5.2928,-13.3334 -2.9502,-7.9212 -7.3876,-18.6804 -12.2498,-29.7024 -1.3835,-3.1362 -2.5155,-6.2928 -2.5155,-7.0144 0,-0.7217 -1.1571,-3.8557 -2.5713,-6.9644 -1.4144,-3.1086 -4.3572,-10.1521 -6.5399,-15.6521 -2.1825,-5.5 -5.8945,-14.8 -8.2489,-20.6667 -4.5806,-11.4144 -7.6659,-19.2482 -12.6027,-32 -1.7035,-4.4 -4.7195,-11.9 -6.7023,-16.6666 -4.9933,-12.004 -10.4604,-25.7188 -15.9452,-40 -1.2674,-3.3 -2.8398,-7.2 -3.4944,-8.6667 -2.74,-6.1404 -9.2198,-22.7404 -9.2241,-23.6303 0,-0.5298 -1.4472,-4.1298 -3.2104,-8 -1.7633,-3.87 -7.1999,-17.2364 -12.0812,-29.703 -9.506,-24.2779 -12.142,-30.8696 -16.5292,-41.3334 -2.4849,-5.9269 -9.1492,-22.6241 -16.3639,-41 -4.1041,-10.4534 -7.2242,-18.3029 -12.8521,-32.3333 -2.9415,-7.3333 -6.9804,-17.5052 -8.9753,-22.6043 -1.995,-5.0989 -4.4119,-11.0989 -5.371,-13.3333 -0.959,-2.2343 -3.3709,-8.2624 -5.3597,-13.3957 -1.9887,-5.1334 -4.3872,-11.1334 -5.33,-13.3334 -0.9427,-2.2 -3.0163,-7.3 -4.6077,-11.3333 -1.5916,-4.0333 -4.0407,-10.1833 -5.4423,-13.6667 -1.4016,-3.4833 -3.6453,-9.1833 -4.986,-12.6666 -1.3407,-3.4834 -3.3755,-8.4334 -4.5217,-11 -1.1463,-2.5667 -4.5802,-11.2667 -7.6308,-19.3334 -3.0508,-8.0666 -6.9855,-17.9666 -8.744,-22 -1.7584,-4.0333 -7.1651,-17.5333 -12.0148,-30 -4.8498,-12.4666 -9.9802,-25.2101 -11.4011,-28.3188 -1.4208,-3.1086 -2.602,-6.7086 -2.6249,-8 -0.023,-1.2913 -1.5199,-4.7478 -3.3266,-7.6812 -5.2652,-8.5485 -4.4898,-12.7812 4.3682,-23.8444 4.2166,-5.2665 10.6666,-13.6262 14.3333,-18.5772 3.6667,-4.951 9.5113,-12.4316 12.9881,-16.6234 3.4768,-4.1919 6.3268,-8.2787 6.3334,-9.0816 0,-0.8031 1.2118,-2.546 2.6785,-3.8734 1.4667,-1.3273 2.6667,-3.1702 2.6667,-4.0956 0,-0.9252 0.45,-1.8821 1,-2.1266 1.3137,-0.5839 11,-12.6547 11,-13.708 0,-0.4482 2.25,-3.722 5,-7.2754 2.75,-3.5532 6.1937,-8.4856 7.6526,-10.9606 2.546,-4.3196 5.584,-9.1007 10.1428,-15.9627 8.1162,-12.2164 21.8526,-34.9244 32.1844,-53.2044 1.4507,-2.5667 3.122,-5.2667 3.714,-6 2.475,-3.0657 11.7554,-20.0545 22.0652,-40.3931 6.0575,-11.9494 11.6176,-22.4541 12.3559,-23.3437 0.7383,-0.8897 2.226,-4.0128 3.3059,-6.9404 1.0798,-2.9275 6.7922,-15.8228 12.6941,-28.6561 14.7332,-32.0364 15.7447,-34.3199 18.9004,-42.6667 1.5249,-4.0333 3.5964,-9.1333 4.6031,-11.3333 5.1577,-11.2706 16.522,-42.6928 26.7632,-74 3.9582,-12.1 8.4584,-25.6 10.0004,-30 7.0288,-20.0558 28.9034,-105.0151 34.5012,-134 0.7789,-4.0334 2.9806,-15.4334 4.8928,-25.3334 1.912,-9.9 4.1896,-23.6566 5.0612,-30.5702 0.8716,-6.9138 2.1648,-12.7483 2.8737,-12.9658 0.7089,-0.2173 2.7312,2.7392 4.4939,6.5704 5.7956,12.5966 9.5908,21.551 11.4292,26.9656 0.9958,2.9334 3.2976,9.2334 5.1149,14 8.122,21.304 10.4577,27.5607 11.5115,30.8375 0.6197,1.9272 2.0629,5.5272 3.2069,8 1.1441,2.4727 2.9593,6.8959 4.034,9.8292 1.0745,2.9333 3.5419,9.5333 5.4828,14.6667 1.9411,5.1333 4.0056,10.8333 4.5877,12.6666 0.5823,1.8334 2.2836,6.3334 3.7808,10 2.835,6.9431 12.041,30.7596 15.4615,40 2.9677,8.0172 10.6957,28.2688 18.8253,49.3334 1.9812,5.1333 4.0935,10.8333 4.6939,12.6666 0.6004,1.8334 2.7127,7.5334 4.6939,12.6667 3.4385,8.9095 5.876,15.2715 13.285,34.674 7.7942,20.4113 10.2206,26.8512 11.3003,29.9927 0.6303,1.8333 2.7668,7.5333 4.748,12.6666 1.9811,5.1334 5.0295,13.2334 6.7739,18 1.7445,4.7667 3.5696,9.5667 4.0556,10.6667 1.0434,2.3613 5.005,12.6333 8.4846,22 1.3622,3.6667 4.09,10.8667 6.0619,16 1.972,5.1333 4.4292,11.7333 5.4605,14.6667 1.0314,2.9333 2.4547,6.5333 3.1631,8 0.7084,1.4666 2.2605,5.3666 3.4492,8.6666 2.5891,7.1876 7.4703,20.1332 12.0659,32 1.846,4.7667 4.4621,11.6667 5.8137,15.3334 1.3516,3.6666 3.7443,9.9666 5.3171,14 4.5848,11.7574 9.3201,24.1536 11.9693,31.3333 1.3529,3.6667 3.956,10.5667 5.7848,15.3333 3.6273,9.4552 9.3957,24.6292 12.1648,32 0.9641,2.5667 3.3665,8.8667 5.3385,14 1.9719,5.1334 4.6923,12.3334 6.0452,16 1.353,3.6667 3.956,10.5667 5.7848,15.3334 3.6274,9.4552 9.3958,24.6292 12.1648,32 0.9642,2.5666 3.3666,8.8666 5.3386,14 1.9718,5.1333 4.6922,12.3333 6.0452,16 1.3529,3.6666 4.012,10.7166 5.9089,15.6666 1.8969,4.95 4.886,12.75 6.6423,17.3334 1.7562,4.5833 4.8065,12.5333 6.7785,17.6666 1.972,5.1334 5.3503,14.3575 7.5072,20.498 2.1571,6.1406 5.0561,13.9406 6.4425,17.3334 1.3863,3.3928 5.3216,13.6686 8.7452,22.8353 3.4236,9.1667 7.4574,19.6667 8.9638,23.3333 1.5065,3.6667 3.2016,8.1667 3.7668,10 0.5653,1.8334 2.6232,7.5334 4.573,12.6667 1.9499,5.1333 4.6274,12.3333 5.9502,16 1.3226,3.6667 4.0376,10.8667 6.033,16 5.6392,14.5064 10.0506,26.0503 12.7379,33.3333 1.3529,3.6667 3.9572,10.5667 5.7873,15.3334 7.1802,18.7016 10.4752,27.4721 11.5214,30.6666 0.6004,1.8334 2.598,7.2334 4.439,12 1.8411,4.7667 5.5616,14.6667 8.2679,22 2.7061,7.3334 5.6997,15.1334 6.6521,17.3334 0.9526,2.2 3.625,9.1 5.9386,15.3333 4.2588,11.4737 7.9942,21.2223 13.9254,36.3423 1.796,4.5784 4.8922,12.8244 6.8804,18.3244 3.4551,9.558 5.884,16.0334 13.251,35.326 7.409,19.4025 9.8465,25.7645 13.285,34.674 1.9812,5.1333 4.1178,10.8333 4.748,12.6666 1.46,4.2478 6.6167,17.992 11.2554,30 6.6605,17.2414 10.2398,26.6248 12.7152,33.3334 2.9221,7.9196 7.993,21.1638 11.9969,31.3333 1.5879,4.0333 3.6697,9.7333 4.6264,12.6667 0.9567,2.9333 4.5233,12.5333 7.926,21.3333 7.6196,19.7064 9.0365,23.4101 12.4972,32.6667 1.5079,4.0333 4.2347,11.2333 6.0597,16 1.825,4.7666 4.9051,12.8666 6.8448,18 1.9396,5.1333 4.9903,12.9333 6.7792,17.3333 1.7891,4.4 3.2511,8.3767 3.249,8.8372 0,0.4604 1.0022,3.1604 2.2318,6 1.2296,2.8395 2.3698,5.8657 2.5334,6.7249 0.3058,1.6052 5.4433,15.126 9.7922,25.7712 1.3482,3.3 3.7703,9.6 5.3826,14 1.6122,4.4 4.3205,11.6 6.0185,16 1.6979,4.4 4.4188,11.6 6.0465,16 6.3119,17.0626 8.6198,22.7592 10.2107,25.2046 1.8831,2.894 1.5787,3.4021 7.1099,-11.8712 1.5934,-4.4 4.0214,-10.7 5.3954,-14 1.374,-3.3 4.0723,-10.2 5.996,-15.3334 1.9238,-5.1333 5.0235,-13.2333 6.8884,-18 4.3366,-11.0842 9.5398,-24.6942 11.724,-30.6666 0.9387,-2.5667 3.2171,-8.5667 5.063,-13.3334 1.846,-4.7666 6.4314,-16.7666 10.1901,-26.6666 3.7585,-9.9 7.9633,-20.7 9.3437,-24 1.3804,-3.3 3.8248,-9.6 5.4318,-14 1.607,-4.4 4.3201,-11.6 6.0289,-16 7.066,-18.1944 10.5072,-27.1896 14.0269,-36.6667 2.0427,-5.5 5.0164,-13.3 6.6082,-17.3333 1.5918,-4.0334 4.2705,-10.9334 5.9528,-15.3334 1.6822,-4.4 4.6797,-12.2 6.6608,-17.3333 1.9812,-5.1333 4.1177,-10.8333 4.748,-12.6667 1.699,-4.9432 7.2876,-19.6413 10.6461,-28 1.6207,-4.0333 4.3665,-11.0868 6.102,-15.6742 1.7355,-4.5876 4.7209,-12.3876 6.6341,-17.3334 1.9134,-4.9458 4.9134,-12.7457 6.6667,-17.333 1.7535,-4.5875 4.7452,-12.3875 6.6483,-17.3334 1.9032,-4.946 4.317,-11.3926 5.3642,-14.326 1.0472,-2.9333 2.4996,-6.3752 3.2276,-7.6485 0.7279,-1.2735 1.3235,-2.9984 1.3235,-3.8333 0,-0.835 1.458,-4.8931 3.2401,-9.0182 3.1867,-7.3766 18.7424,-47.7493 34.8668,-90.4924 1.869,-4.9541 4.2012,-11.1076 5.1828,-13.6742 0.9816,-2.5667 3.2752,-8.5667 5.0971,-13.3334 1.8217,-4.7666 4.6235,-11.9666 6.2261,-16 1.6026,-4.0333 3.5371,-9.1333 4.2988,-11.3333 0.7618,-2.2 4.0704,-10.9 7.3528,-19.3333 3.2824,-8.4334 7.1795,-18.6334 8.6603,-22.6667 3.1139,-8.4816 8.3007,-22.028 11.7419,-30.6667 3.654,-9.1728 8.7301,-22.4588 11.9714,-31.3333 1.607,-4.4 4.0539,-10.7 5.4374,-14 3.0448,-7.2623 10.8508,-27.7355 13.7261,-36 1.1481,-3.3 5.7637,-15.3 10.2569,-26.6667 4.4932,-11.3666 8.7806,-22.7666 9.5274,-25.3333 0.7469,-2.5667 1.8304,-5.2667 2.4076,-6 0.5773,-0.7333 1.9992,-4.0333 3.1598,-7.3333 2.5888,-7.361 7.482,-20.4546 11.9588,-32 1.8483,-4.7667 4.8336,-12.5667 6.6342,-17.3334 1.8004,-4.7666 4.6098,-11.9666 6.243,-16 1.6332,-4.0333 4.0628,-10.3333 5.3991,-14 2.7165,-7.4544 7.6151,-20.2809 11.9665,-31.3333 1.5879,-4.0333 3.6644,-9.7333 4.6146,-12.6667 0.9501,-2.9333 2.6481,-7.4333 3.7734,-10 2.1355,-4.8709 6.3832,-15.7101 12.1514,-31.0085 8.8288,-23.4152 11.7957,-31.1496 24.1629,-62.9915 1.7089,-4.4 4.6739,-12.2 6.5888,-17.3333 1.9149,-5.1333 4.2984,-11.4333 5.2965,-14 8.4806,-21.8081 20.213,-52.316 23.3304,-60.6667 7.2563,-19.4372 10.9035,-28.9968 12.5694,-32.9453 1.0182,-2.4135 3.1784,-7.988 4.8002,-12.388 1.622,-4.4 4.3442,-11.6 6.0491,-16 1.7049,-4.4 4.4364,-11.6 6.0699,-16 1.6336,-4.4 3.7258,-9.8 4.6497,-12 1.5747,-3.7496 6.6411,-17.1359 12.8683,-34 1.4894,-4.0333 3.811,-10.0333 5.1592,-13.3333 4.4392,-10.8663 9.228,-23.5275 9.228,-24.3984 0,-0.4708 1.5,-4.1352 3.3333,-8.1434 1.8333,-4.008 3.3333,-7.9097 3.3333,-8.6705 0,-0.7607 1.1442,-3.9491 2.5426,-7.0853 2.5508,-5.7208 3.7724,-8.8592 15.4537,-39.7024 11.624,-30.6923 12.8724,-33.9603 16.2977,-42.6667 1.8754,-4.7667 5.0811,-13.1667 7.1238,-18.6667 2.0426,-5.5 4.9593,-13.15 6.4814,-17 7.1535,-18.094 8.4462,-21.4393 10.6903,-27.6666 1.3213,-3.6667 3.8916,-10.5667 5.7116,-15.3334 1.8201,-4.7666 6.7445,-17.6666 10.9432,-28.6666 7.7881,-20.4035 12.514,-32.6415 16.7336,-43.3334 1.3024,-3.3 3.6871,-9.6 5.2993,-14 3.3752,-9.2114 8.5367,-22.6541 12.0307,-31.3333 2.6268,-6.5248 4.9003,-12.3684 17.3775,-44.6667 4.5328,-11.7333 8.8644,-23.1333 9.6258,-25.3333 0.7615,-2.2 2.4578,-6.7 3.7698,-10 1.3118,-3.3 3.7104,-9.6 5.3302,-14 1.6198,-4.4 4.3648,-11.3751 6.1003,-15.5 1.7353,-4.1251 3.1552,-8.1591 3.1552,-8.9644 0,-0.8053 1.1441,-4.0303 2.5425,-7.1665 2.6055,-5.8435 5.0524,-12.1043 14.7347,-37.7024 3.0512,-8.0667 6.9481,-18.2667 8.66,-22.6667 1.7117,-4.4 4.4353,-11.6 6.0523,-16 1.6169,-4.4 4.3808,-11.3751 6.1418,-15.5 1.7611,-4.1251 3.202,-8.1591 3.202,-8.9644 0,-0.8053 1.1442,-4.0303 2.5426,-7.1665 2.3893,-5.3587 5.4412,-13.0998 11.9726,-30.3691 3.9375,-10.4107 13.2344,-34.6759 22.2219,-58 4.2387,-11 9.0497,-23.6 10.6913,-28 1.6418,-4.4 4.2867,-11.3 5.8778,-15.3333 3.794,-9.6179 8.9386,-23.0208 12.0272,-31.3334 1.3624,-3.6666 4.0848,-10.8666 6.05,-16 1.965,-5.1333 4.9372,-12.9333 6.6046,-17.3333 1.6675,-4.4 4.3682,-11.3 6.0014,-15.3333 1.6332,-4.0334 4.0617,-10.3334 5.3965,-14 1.3349,-3.6667 3.7113,-9.9667 5.2808,-14 1.5695,-4.0334 3.9671,-10.3334 5.3279,-14 3.4404,-9.2704 7.2868,-19.2616 9.2393,-24 0.9065,-2.2 2.4351,-6.1 3.3967,-8.6667 4.815,-12.8513 7.635,-20.2653 11.4105,-30 2.2753,-5.8667 5.2531,-13.6667 6.6173,-17.3333 1.3642,-3.6667 3.7812,-9.9667 5.371,-14 3.4001,-8.6256 8.7041,-22.4747 11.4898,-30 1.0859,-2.9334 4.3007,-11.3334 7.144,-18.6667 5.0486,-13.0207 14.6014,-37.9832 20.155,-52.6667 1.5254,-4.0333 4.1773,-10.9333 5.8932,-15.3333 1.7158,-4.4 4.6825,-12.2 6.5925,-17.3333 1.9101,-5.1334 4.5972,-12.0334 5.9712,-15.3334 1.374,-3.3 3.8132,-9.6 5.4201,-14 1.6071,-4.4 4.3112,-11.6 6.0091,-16 1.698,-4.4 4.4237,-11.6 6.0572,-16 1.6336,-4.4 3.7344,-9.8 4.6687,-12 0.9342,-2.2 2.5722,-6.4 3.64,-9.3333 1.0676,-2.9333 3.5696,-9.5333 5.5597,-14.6667 5.4308,-14.0076 10.0175,-26.036 12.2021,-32 1.0747,-2.9333 2.8271,-7.224 3.8943,-9.5348 1.0672,-2.3109 1.9404,-4.6593 1.9404,-5.2189 0,-0.5596 2.6812,-7.6689 5.9583,-15.7985 3.2772,-8.1296 7.709,-19.5811 9.8488,-25.4478 3.7764,-10.3542 7.4672,-20.0842 14.4141,-38 1.8483,-4.7666 4.7369,-12.2666 6.4192,-16.6666 1.6823,-4.4 4.3684,-11.3 5.9693,-15.3334 2.9172,-7.35 5.9428,-15.4553 9.9544,-26.6666 1.1807,-3.3 3.2859,-8.7 4.678,-12 1.3922,-3.3 3.7363,-9.3 5.2092,-13.3334 1.473,-4.0333 5.4679,-14.5333 8.8779,-23.3333 11.4673,-29.5937 12.378,-31.9752 15.2947,-40 1.5992,-4.4 4.0629,-10.566 5.4752,-13.7024 1.4121,-3.1363 2.5676,-6.3612 2.5676,-7.1665 0,-0.8054 1.4409,-4.8394 3.202,-8.9644 1.761,-4.125 4.5121,-11.1 6.1133,-15.5 1.6012,-4.4 4.0356,-10.7 5.4096,-14 1.374,-3.3 3.9515,-9.9 5.7277,-14.6667 1.7762,-4.7667 5.6763,-14.9667 8.667,-22.6667 2.9906,-7.7 6.4306,-16.7 7.6442,-20 1.2138,-3.3 3.686,-9.9 5.4939,-14.6666 1.808,-4.7667 4.1664,-11.0667 5.2409,-14 1.0747,-2.9334 2.7791,-7.1334 3.7878,-9.3334 1.0088,-2.2 3.6806,-9.3424 5.9377,-15.8721 5.8825,-17.0184 7.8332,-19.9132 14.1772,-21.0395 6.5883,-1.1696 509.9655,-1.381 522.2653,-0.2194 l 9,0.85 v 5.0294 c 0,2.7662 -0.45,5.2294 -1,5.4739 -1.4178,0.6301 -8.3333,15.4315 -8.3333,17.8361 0,1.0996 -2.4,7.1459 -5.3333,13.4362 -2.9334,6.2902 -5.3334,11.9609 -5.3334,12.6014 0,0.6404 -1.413,4.3308 -3.1401,8.201 -1.7269,3.87 -4.3679,10.0364 -5.8685,13.703 -1.5007,3.6667 -4.2876,10.3418 -6.1932,14.8334 -1.9056,4.4917 -3.4648,8.5482 -3.4648,9.0145 0,0.4664 -1.1311,3.3913 -2.5135,6.5 -1.3825,3.1087 -4.1621,9.8521 -6.1772,14.9855 -2.0149,5.1333 -4.4309,11.1333 -5.3688,13.3333 -0.938,2.2 -6.9253,16.9 -13.3055,32.6667 -6.3801,15.7666 -14.2962,35.2666 -17.5916,43.3333 -3.2953,8.0667 -7.0649,17.3667 -8.3768,20.6667 -1.3118,3.3 -5.22,12.9 -8.6845,21.3333 -3.4647,8.4333 -7.1525,17.6631 -8.1952,20.5105 -1.0428,2.8474 -3.0713,7.6102 -4.5081,10.5838 -1.4367,2.9736 -2.6122,5.9229 -2.6122,6.5538 0,0.6311 -1.2,3.6311 -2.6666,6.6667 -1.4667,3.0357 -2.6667,6.0096 -2.6667,6.6088 0,0.5992 -1.5,4.1988 -3.3333,7.9992 -1.8334,3.8003 -3.3334,7.4039 -3.3334,8.008 0,0.604 -1.1401,3.6417 -2.5334,6.7504 -1.3935,3.1087 -5.6287,13.4521 -9.4116,22.9855 -3.7828,9.5333 -7.7428,19.224 -8.7998,21.5348 -1.057,2.3109 -1.9218,4.6358 -1.9218,5.1666 0,0.5308 -1.5592,4.6402 -3.4648,9.1319 -1.9056,4.4916 -4.6731,11.1667 -6.15,14.8333 -1.4768,3.6667 -4.0502,9.9667 -5.7186,14 -3.5646,8.6178 -7.9222,19.351 -11.6382,28.6667 -1.4627,3.6667 -3.5775,8.7667 -4.6996,11.3333 -1.1222,2.5667 -3.0846,7.3667 -4.361,10.6667 -1.2764,3.3 -6.3789,15.9 -11.339,28 -4.96,12.1 -9.8767,24.4 -10.9258,27.3333 -1.0492,2.9334 -2.724,7.1334 -3.722,9.3334 -0.998,2.2 -2.8017,6.4 -4.0085,9.3333 -5.7072,13.8733 -27.9571,68.7144 -30.1583,74.3333 -1.3645,3.4834 -3.6809,9.3334 -5.1476,13 -1.4666,3.6667 -3.7816,9.5167 -5.1442,13 -1.3627,3.4834 -3.3958,8.4334 -4.5179,11 -1.1221,2.5667 -3.3747,7.9667 -5.0057,12 -1.631,4.0334 -4.3304,10.6334 -5.9988,14.6667 -1.6684,4.0333 -4.3684,10.6333 -6,14.6667 -1.6316,4.0333 -4.3628,10.6333 -6.0692,14.6666 -2.8419,6.7172 -7.9211,19.3616 -13.9252,34.6667 -1.2947,3.3 -4.2674,10.5 -6.6062,16 -2.3388,5.5 -4.7474,11.5768 -5.3528,13.5041 -0.6053,1.9272 -2.0428,5.5272 -3.1944,8 -1.9272,4.1383 -27.488,67.3408 -32.8242,81.1626 -1.2742,3.3 -3.2347,8.1 -4.3568,10.6666 -1.1222,2.5667 -3.3747,7.9667 -5.0058,12 -1.6309,4.0334 -4.3304,10.6334 -5.9988,14.6667 -1.6684,4.0333 -4.2306,10.3333 -5.6938,14 -3.7538,9.4059 -7.514,18.7076 -11.3194,28 -1.8017,4.4 -4.057,10.1 -5.0117,12.6667 -0.9547,2.5666 -2.2396,5.2366 -2.8555,5.9333 -0.6157,0.6967 -1.1196,2.0289 -1.1196,2.9605 0,0.9316 -1.4064,4.8616 -3.1252,8.7334 -1.7189,3.8717 -3.915,9.1394 -4.8804,11.7061 -0.9653,2.5667 -2.2589,5.2367 -2.8748,5.9333 -0.6157,0.6967 -1.1196,2.0532 -1.1196,3.0146 0,0.9613 -1.1688,4.2913 -2.5973,7.4 -2.2205,4.832 -13.6047,32.9534 -21.4495,52.9854 -1.2924,3.3 -3.9713,9.9 -5.9532,14.6667 -1.9818,4.7667 -4.6793,11.3667 -5.9944,14.6667 -1.3149,3.3 -5.2174,12.9 -8.6722,21.3333 -3.4548,8.4333 -7.3574,18.0333 -8.6723,21.3333 -1.3151,3.3 -4.0125,9.9 -5.9944,14.6667 -1.9819,4.7667 -4.6721,11.3667 -5.9781,14.6667 -7.3462,18.5613 -20.4731,50.5381 -22.115,53.8714 -1.0488,2.1294 -1.9069,4.4084 -1.9069,5.0644 0,0.6562 -1.2,3.6767 -2.6667,6.7123 -1.4666,3.0357 -2.6666,6.0969 -2.6666,6.8028 0,0.7057 -1.4415,4.3431 -3.2034,8.0828 -1.7618,3.7397 -5.4225,12.4996 -8.1346,19.4663 -6.2978,16.1766 -8.8714,22.613 -13.3287,33.3333 -3.5316,8.4939 -6.1521,14.9821 -11.1741,27.6667 -1.3791,3.4833 -4.421,10.8333 -6.7598,16.3333 -2.3388,5.5 -4.7617,11.5 -5.3844,13.3333 -0.6226,1.8334 -3.3294,8.4334 -6.015,14.6667 -2.6856,6.2333 -5.3547,12.8333 -5.9314,14.6667 -0.5765,1.8333 -2.2744,6.0333 -3.773,9.3333 -1.4986,3.3 -3.945,9.3 -5.4363,13.3333 -1.4915,4.0334 -6.0969,15.4334 -10.2344,25.3334 -4.1375,9.9 -8.3749,20.4 -9.4165,23.3333 -1.0415,2.9333 -2.4895,6.5333 -3.2176,8 -1.15,2.3167 -8.3462,20.0317 -15.9779,39.3333 -7.8724,19.9107 -11.1831,28.1415 -13.9437,34.6667 -1.7064,4.0333 -4.4371,10.6333 -6.068,14.6667 -1.6311,4.0333 -3.8836,9.4333 -5.0058,12 -1.1221,2.5666 -3.1552,7.5166 -4.5178,11 -4.2895,10.9648 -7.3407,18.5402 -13.8288,34.3333 -3.4647,8.4333 -7.174,17.7333 -8.243,20.6667 -1.069,2.9333 -2.7681,7.1333 -3.7757,9.3333 -1.0076,2.2 -2.9945,7 -4.4152,10.6667 -1.4207,3.6666 -5.4136,13.5666 -8.8731,22 -3.4594,8.4333 -7.4265,18.1833 -8.8158,21.6666 -1.3894,3.4834 -3.726,9.3334 -5.1927,13 -3.6827,9.2066 -7.2192,18.2316 -9.9272,25.3334 -2.3948,6.2804 -5.6416,14.3422 -10.7395,26.6666 -2.9328,7.0903 -6.3472,15.4768 -11.3994,28 -1.3315,3.3 -3.9612,9.5226 -5.844,13.8278 -1.8827,4.3053 -3.4232,8.3618 -3.4232,9.0145 0,0.6528 -1.1114,3.7303 -2.4696,6.8389 -5.1212,11.721 -8.4442,19.7782 -19.652,47.6522 -6.3396,15.7666 -12.6558,31.5166 -14.0359,35 -1.38,3.4833 -3.6379,9.1833 -5.0173,12.6666 -6.1314,15.4822 -19.2468,48.029 -20.8203,51.6667 -0.9516,2.2 -3.6539,8.8 -6.0051,14.6667 -2.3512,5.8666 -5.0593,12.4666 -6.0181,14.6666 -0.9588,2.2 -3.8808,9.4959 -6.4933,16.2131 -2.6127,6.7172 -5.5994,14.2172 -6.6372,16.6667 -1.0379,2.4494 -3.2214,7.7536 -4.8524,11.7869 -1.631,4.0333 -4.3304,10.6333 -5.9988,14.6667 -1.6684,4.0333 -4.3626,10.6333 -5.9871,14.6666 -1.6245,4.0334 -4.392,10.4967 -6.15,14.363 -1.7579,3.8661 -3.1963,7.6226 -3.1963,8.3478 0,0.7251 -1.1346,3.8618 -2.5216,6.9704 -2.4386,5.4662 -8.7989,21.2436 -28.3473,70.3188 -5.112,12.8334 -10.7107,26.6334 -12.4416,30.6667 -1.7309,4.0333 -5.562,13.3333 -8.5136,20.6667 -2.9515,7.3333 -8.3221,20.5333 -11.9348,29.3333 -3.6125,8.8 -10.5788,26.2 -15.4805,38.6667 -4.9018,12.4666 -10.3106,25.9666 -12.0198,30 -1.709,4.0333 -4.442,10.6333 -6.0729,14.6666 -1.6311,4.0334 -3.8836,9.4334 -5.0057,12 -1.1222,2.5667 -3.1552,7.5167 -4.5179,11 -4.1767,10.6766 -7.2689,18.3636 -13.8109,34.3334 -3.4548,8.4333 -7.3427,18.0333 -8.6399,21.3333 -1.2971,3.3 -9.4117,23.4 -18.0325,44.6667 -8.6207,21.2666 -16.7354,41.3666 -18.0324,44.6666 -1.2971,3.3 -3.98,9.9 -5.9619,14.6667 -1.9819,4.7667 -4.6819,11.3667 -6,14.6667 -1.3181,3.3 -4.0181,9.9 -6,14.6666 -4.4532,10.7104 -7.0248,17.1412 -13.3293,33.3334 -2.7126,6.9666 -5.9732,15.0666 -7.246,18 -1.2728,2.9333 -3.9936,9.5333 -6.0464,14.6666 -2.0528,5.1334 -4.5038,11.1334 -5.4466,13.3334 -0.9426,2.2 -3.0162,7.3 -4.6077,11.3333 -4.366,11.0643 -7.3459,18.4323 -11.324,28 -1.9819,4.7667 -4.7427,11.5167 -6.1351,15 -1.3924,3.4833 -3.7945,9.4833 -5.338,13.3333 -1.5434,3.85 -3.6653,9.3222 -4.7153,12.1604 -1.05,2.8382 -2.7652,6.816 -3.8116,8.8396 -1.0464,2.0236 -2.7616,6.0015 -3.8116,8.8396 -1.05,2.8383 -3.1008,8.1604 -4.5573,11.8271 -9.3528,23.5436 -13.9522,35.0027 -14.9843,37.3333 -0.6496,1.4667 -3.3424,8.0667 -5.9843,14.6667 -2.6417,6.6 -5.6714,13.8907 -6.7328,16.2015 -1.0613,2.3109 -1.9297,4.6102 -1.9297,5.1098 0,0.4996 -1.8283,5.209 -4.0628,10.4652 -3.9705,9.3396 -5.8816,13.9671 -11.9311,28.8902 -1.6349,4.0333 -4.3377,10.6333 -6.0061,14.6666 -1.6684,4.0334 -4.3647,10.6334 -5.9919,14.6667 -1.627,4.0333 -4.0945,9.8993 -5.4833,13.0357 -1.3887,3.1363 -2.5248,6.2699 -2.5248,6.9635 0,0.6937 -1.4417,4.4276 -3.204,8.2977 -1.7621,3.87 -6.2973,14.8364 -10.0781,24.3698 -3.7808,9.5333 -7.7391,19.224 -8.796,21.5348 -1.0571,2.3109 -1.9219,4.6102 -1.9219,5.1098 0,0.7652 -5.0441,13.0166 -9.3416,22.6887 -0.6516,1.4667 -2.7696,6.8667 -4.7068,12 -1.9371,5.1333 -4.4717,11.4333 -5.6325,14 -2.0882,4.6172 -5.4886,13.1997 -9.1616,23.124 -1.0431,2.8181 -3.0802,7.4443 -4.527,10.2801 -1.4468,2.836 -2.6305,5.7639 -2.6305,6.5063 0,0.7425 -1.4167,4.5164 -3.1483,8.3865 -4.4428,9.9298 -6.3397,14.5343 -7.568,18.3698 -0.587,1.8333 -3.2357,8.4333 -5.8858,14.6666 -2.6502,6.2334 -9.3354,22.7334 -14.856,36.6667 -5.5206,13.9333 -11.7103,29.2333 -13.7548,34 -2.0447,4.7667 -4.772,11.3667 -6.0608,14.6667 -4.0355,10.3324 -7.6136,19.1572 -9.7308,24 -1.1222,2.5666 -3.1552,7.5166 -4.5179,11 -4.1449,10.5956 -7.2577,18.3365 -13.538,33.6666 -3.3045,8.0667 -8.768,21.5667 -12.1408,30 -3.3729,8.4334 -6.6655,16.5334 -7.3168,18 -5.1304,11.552 -8.1487,19.2934 -8.1487,20.9 0,1.0451 -0.5038,2.47 -1.1196,3.1667 -0.6158,0.6967 -1.9008,3.3667 -2.8554,5.9333 -1.9962,5.3668 -6.879,17.3743 -11.386,28 -5.5326,13.0438 -12.848,31.2626 -13.6519,34 -0.4308,1.4667 -1.7291,3.3976 -2.8851,4.291 -1.6382,1.2658 -58.5852,1.5682 -258.102,1.3708 -140.8,-0.1395 -265.0469,-0.4355 -276.1041,-0.6579 z M 1496.2937,5283 c 0.1912,-162.6167 -0.2466,-425.4536 -0.973,-584.0821 -0.7264,-158.6286 -0.878,-289.6112 -0.3368,-291.0726 0.541,-1.4613 2.8821,-4.2542 5.2021,-6.2065 2.3201,-1.9521 5.7775,-5.1365 7.6828,-7.0761 1.9055,-1.9398 7.3856,-7.0599 12.1781,-11.378 4.7924,-4.3183 14.6924,-13.3406 22,-20.0496 17.8316,-16.3712 18.7111,-17.1655 30.0466,-27.1351 5.4196,-4.7667 13.4657,-11.9124 17.8801,-15.8795 17.0365,-15.31 20.4197,-18.2889 26.6359,-23.4538 3.5302,-2.9334 7.6874,-6.575 9.238,-8.0926 1.5505,-1.5176 7.0192,-6.3176 12.1525,-10.6666 5.1333,-4.3491 9.9333,-8.5527 10.6667,-9.3414 0.7333,-0.7886 4.9333,-4.3886 9.3333,-8 4.4,-3.6113 8.6,-7.27 9.3333,-8.1304 0.7334,-0.8602 5.5528,-5.0602 10.71,-9.3333 12.7787,-10.5879 13.7638,-11.4195 16.7964,-14.1799 1.4568,-1.326 8.4638,-7.282 15.5711,-13.2354 7.1075,-5.9535 13.8989,-11.7687 15.0923,-12.9226 1.1934,-1.1538 3.2934,-3.0049 4.6666,-4.1136 8.8526,-7.1466 56.9586,-48.0918 65.0035,-55.3274 0.8215,-0.7387 6.5935,-5.4891 12.8268,-10.5563 6.2333,-5.0672 12.28,-10.1628 13.4371,-11.3235 1.157,-1.1606 8.207,-7.1978 15.6666,-13.4157 7.4596,-6.218 13.563,-11.768 13.563,-12.3333 0,-0.5655 0.8701,-1.028 1.9337,-1.028 1.0636,0 2.4136,-0.8006 3,-1.779 0.5864,-0.9785 8.2663,-7.9148 17.0663,-15.4141 8.8,-7.4993 19.6,-16.8391 24,-20.7548 4.4,-3.9159 16.4,-14.4689 26.6666,-23.4515 10.2667,-8.9824 19.8667,-17.431 21.3334,-18.7748 3.293,-3.0169 7.5485,-6.86 22.6917,-20.4925 6.5167,-5.8667 16.2627,-14.7167 21.6576,-19.6667 8.7236,-8.004 10.4273,-9.0136 15.3965,-9.1224 36.5278,-0.7997 933.9798,0.65 972.2542,1.5707 28.6,0.6879 67.6,1.6135 86.6666,2.0567 60.2686,1.4013 132.303,-3.7491 190,-13.5846 30.5422,-5.2064 60.8048,-11.7157 77.4475,-16.6585 4.8295,-1.4343 13.2295,-3.8393 18.6667,-5.3447 5.4372,-1.5053 11.6858,-3.2457 13.8858,-3.8676 5.925,-1.6746 40.6011,-14.0536 46,-16.4214 2.5667,-1.1256 8.5667,-3.6446 13.3334,-5.5975 12.6369,-5.1773 12.414,-5.0759 32,-14.5728 9.9,-4.8004 24.9,-12.7097 33.3333,-17.5763 8.4333,-4.8664 16.5333,-9.5412 18,-10.3884 7.9488,-4.5913 38.7216,-25.7477 42.8523,-29.461 0.8353,-0.7511 3.1918,-2.5655 5.2365,-4.0322 4.816,-3.4545 13.9781,-11.0133 16.7399,-13.8104 1.189,-1.2042 4.7205,-4.2629 7.8477,-6.797 5.7211,-4.636 29.302,-27.9379 39.444,-38.977 10.1932,-11.0949 29.8796,-35.4208 29.8796,-36.9213 0,-0.8219 0.45,-1.4972 1,-1.5009 0.55,0 3.6864,-4.0536 6.9697,-9 3.2835,-4.9463 6.3438,-9.2934 6.8008,-9.66 1.8791,-1.5078 15.6302,-24.1874 25.0612,-41.3334 0.605,-1.1 2.101,-3.8 3.3243,-6 4.7639,-8.5673 19.9349,-40.8084 22.632,-48.097 1.0656,-2.88 3.5459,-9.4363 5.5115,-14.5696 5.5898,-14.598 10.1326,-27.5858 11.3618,-32.4826 0.6188,-2.4654 2.3019,-7.8654 3.7402,-12 4.8073,-13.8196 12.3297,-44.9537 17.4406,-72.1841 13.5791,-72.3468 17.8987,-160.6364 11.4487,-234 -1.0315,-11.7333 -2.1939,-25.2333 -2.5828,-30 -1.9391,-23.7588 -8.3744,-64.062 -14.7963,-92.6667 -5.3564,-23.8586 -8.3621,-34.9709 -16.7704,-62 -3.0584,-9.8317 -14.7429,-40.9698 -19.4894,-51.9376 -3.0878,-7.1348 -13.6722,-29.6957 -15.3547,-32.729 -0.8136,-1.4667 -3.8412,-7.1667 -6.728,-12.6667 -2.8869,-5.5 -6.0709,-10.9472 -7.0757,-12.1049 -1.0047,-1.1578 -1.8268,-2.6012 -1.8268,-3.2075 0,-0.6064 -1.5,-3.0692 -3.3334,-5.4728 -1.8333,-2.4036 -3.3333,-4.7147 -3.3333,-5.1356 0,-1.0157 -13.7907,-21.1095 -19.8631,-28.9417 -2.642,-3.4076 -5.9661,-7.7956 -7.387,-9.7511 -11.0075,-15.148 -43.0698,-48.8609 -60.3583,-63.4659 -5.5907,-4.7229 -11.6536,-9.9372 -13.4729,-11.5872 -1.8195,-1.65 -3.6766,-3 -4.127,-3 -0.4504,0 -2.3128,-1.3662 -4.1386,-3.0362 -11.3408,-10.3723 -47.6944,-33.9316 -71.9864,-46.6515 -20.298,-10.6285 -21.6646,-11.2863 -40.6667,-19.5748 -23.9983,-10.4679 -28.3279,-12.1627 -54.6667,-21.3988 -71.111,-24.9363 -182.7701,-44.8765 -284,-50.7172 -13.9333,-0.8039 -32.2333,-2.0016 -40.6666,-2.6616 -33.733,-2.6401 -357.0594,-4.502 -1310.2144,-7.5447 l -268.2143,-0.8561 -0.688,-4.1128 c -0.3784,-2.2621 -0.7353,-105.8436 -0.7932,-230.1812 -0.085,-184.3672 0.2169,-226.5087 1.6409,-228.4561 1.6762,-2.2923 21.4354,-2.3302 492.341,-0.9446 754.6216,2.2203 1156.1984,4.0536 1197.928,5.4688 20.9,0.7088 44,2.2188 51.3333,3.3556 7.3333,1.1368 21.1333,2.6247 30.6667,3.3066 27.1098,1.9389 86.5132,10.4706 112.6666,16.1818 29.6783,6.4808 36.1464,7.9544 51.3334,11.6951 38.1102,9.3869 86.515,24.0861 113.3333,34.4161 2.9333,1.1299 7.1333,2.5402 9.3333,3.1339 2.2,0.5937 8.0467,2.6261 12.9927,4.5164 4.9459,1.8903 12.7459,4.8704 17.3333,6.6224 14.4432,5.5163 21.526,8.3287 26.3407,10.4591 2.5667,1.1357 8.5667,3.6982 13.3333,5.6944 4.7667,1.9962 11.9667,5.119 16,6.9397 4.0334,1.8207 9.7334,4.38 12.6667,5.6873 20.9109,9.3202 31.6033,14.4436 58.6667,28.111 28.8557,14.5725 39.2909,20.0553 52,27.3218 2.9333,1.6772 7.4333,4.1878 10,5.5791 6.2256,3.3747 11.6744,6.5399 26,15.1032 6.6,3.9453 13.0442,7.7816 14.3206,8.5249 1.2764,0.7435 7.4974,4.6518 13.8243,8.6851 6.3269,4.0333 12.4827,7.9381 13.6793,8.6773 14.5002,8.9568 57.8579,39.274 58.6202,40.9894 0.2445,0.55 1.0488,1 1.7873,1 1.4033,0 11.7192,8.3142 23.1088,18.625 3.6707,3.3228 11.0957,9.9416 16.5004,14.7083 9.7784,8.6243 45.7277,44.148 66.2632,65.4787 5.924,6.1534 16.3897,18.088 23.2572,26.5213 6.8675,8.4333 13.4205,16.3545 14.5625,17.6027 2.8986,3.1681 4.3392,5.0369 8.0158,10.3973 1.7604,2.5667 4.1441,5.6271 5.2972,6.8008 1.153,1.1737 3.8965,4.4245 6.0965,7.224 10.8891,13.8557 20.2023,26.0007 22,28.6888 1.1,1.6449 3.2653,4.5572 4.8117,6.4719 4.0236,4.9813 22.649,32.7361 26.8475,40.0069 1.9504,3.3775 3.9017,6.4409 4.3363,6.8076 0.7357,0.6207 3.475,5.1292 9.519,15.6667 1.3671,2.3833 3.7864,6.5833 5.3766,9.3333 7.9274,13.7104 18.2498,33.0887 24.6806,46.3333 2.4926,5.1334 5.3452,10.8334 6.3395,12.6667 2.5289,4.6633 19.2747,41.9993 22.2761,49.6667 1.3636,3.4833 3.7242,9.4833 5.2455,13.3333 12.8707,32.5704 32.7333,90.5248 37.8145,110.3333 0.4703,1.8334 1.9894,7.5334 3.3758,12.6667 17.5725,65.0651 31.5177,137.4415 36.7369,190.6667 0.4315,4.4 1.952,19.3625 3.3789,33.25 4.3898,42.7232 3.4667,170.9385 -1.4933,207.4166 -0.7479,5.5 -1.9092,16.3 -2.5808,24 -1.6377,18.7786 -4.9983,45.2906 -8.1125,64.0008 -1.4038,8.4338 -2.5523,17.2987 -2.5523,19.7 0,2.4012 -1.1987,7.7764 -2.6639,11.945 -1.465,4.1685 -3.2786,12.4036 -4.03,18.3 -0.7514,5.8965 -1.9956,13.1209 -2.7648,16.0542 -0.7692,2.9334 -1.934,8.2746 -2.5882,11.8695 -5.6036,30.7835 -27.9946,109.0359 -39.906,139.4639 -1.2918,3.3 -3.6732,9.6 -5.292,14 -1.6187,4.4 -4.3676,11.3 -6.1086,15.3333 -1.7409,4.0333 -4.7606,11.4909 -6.7106,16.5725 -1.9499,5.0815 -4.0246,10.1815 -4.6104,11.3334 -0.5859,1.1517 -2.8558,5.9941 -5.0444,10.7608 -14.2184,30.9672 -33.3672,68.1568 -45.1276,87.644 -3.2011,5.3041 -5.8202,9.9941 -5.8202,10.4222 0,0.4282 -1.3514,2.6883 -3.0033,5.0227 -1.6519,2.3344 -3.7341,5.4444 -4.6272,6.9111 -9.5881,15.7457 -26.3247,40.563 -32.9203,48.8145 -1.5304,1.9147 -3.6825,4.8233 -4.7825,6.4636 -1.8649,2.7811 -12.1224,15.9981 -17.1255,22.0667 -13.1378,15.9358 -22.082,26.1342 -46.135,52.6046 -10.4827,11.5364 -56.1964,56.8251 -65.9972,65.3839 -15.9184,13.9011 -19.2258,16.7612 -22.4983,19.456 -1.6991,1.3992 -4.9955,4.2281 -7.3252,6.2867 -4.8187,4.2574 -43.9623,34.2268 -47.3567,36.2573 -1.2258,0.7333 -5.6532,3.8833 -9.8385,7 -4.1853,3.1167 -8.0381,5.6667 -8.5617,5.6667 -0.5235,0 -2.0534,0.9966 -3.3994,2.2149 -1.3461,1.2183 -3.5702,2.8683 -4.9424,3.6667 -1.3721,0.7984 -7.6625,4.9017 -13.9788,9.1184 -6.3161,4.2166 -11.8921,7.6666 -12.3909,7.6666 -0.4989,0 -1.8544,0.8391 -3.0121,1.8647 -1.8616,1.6491 -6.9736,4.7396 -15.4571,9.3444 -1.4769,0.8016 -4.5696,2.8076 -6.8724,4.4576 -2.3029,1.65 -4.4908,3 -4.8619,3 -0.3712,0 -4.7785,2.3152 -9.7942,5.1448 -31.3658,17.6955 -62.8988,33.3175 -95.786,47.4541 -8.0667,3.4675 -16.7667,7.2363 -19.3334,8.3752 -2.5666,1.1388 -7.5166,3.1856 -11,4.5483 -3.4833,1.3627 -9.4833,3.7229 -13.3333,5.2451 -11.1669,4.4149 -27.5151,10.4133 -38.3333,14.0653 -5.5,1.8567 -13.9,4.7681 -18.6667,6.47 -9.9083,3.5375 -42.2005,13.5543 -58,17.9909 -5.8667,1.6475 -15.4667,4.3695 -21.3333,6.049 -52.0391,14.8969 -163.9938,37.1922 -217.3334,43.281 -5.1333,0.5859 -18.3333,2.3192 -29.3333,3.8516 -58.9391,8.211 -146.7285,15.5968 -239.3333,20.1356 -93.3307,4.5743 -284.3187,5.6431 -468,2.619 -86.7971,-1.4291 -549.8575,-1.1503 -551.3396,0.332 -0.2522,0.2521 -0.8863,262.6538 -1.4091,583.1149 -0.9344,572.7492 -0.9943,582.7189 -3.5251,586.3232 l -2.5745,3.6667 h -249.9361 -249.9362 z"
     id="path825"
     inkscape:connector-curvature="0" />
</svg>
