<?xml version="1.0" encoding="UTF-8" standalone="no"?>
<!-- Created with Inkscape (http://www.inkscape.org/) -->

<svg
   xmlns:dc="http://purl.org/dc/elements/1.1/"
   xmlns:cc="http://creativecommons.org/ns#"
   xmlns:rdf="http://www.w3.org/1999/02/22-rdf-syntax-ns#"
   xmlns:svg="http://www.w3.org/2000/svg"
   xmlns="http://www.w3.org/2000/svg"
   xmlns:sodipodi="http://sodipodi.sourceforge.net/DTD/sodipodi-0.dtd"
   xmlns:inkscape="http://www.inkscape.org/namespaces/inkscape"
   version="1.1"
   id="svg815"
   width="762"
   height="371"
   viewBox="0 0 762 371"
   sodipodi:docname="VirginiaTech.svg"
   inkscape:version="0.92.5 (2060ec1f9f, 2020-04-08)">
  <metadata
     id="metadata821">
    <rdf:RDF>
      <cc:Work
         rdf:about="">
        <dc:format>image/svg+xml</dc:format>
        <dc:type
           rdf:resource="http://purl.org/dc/dcmitype/StillImage" />
        <dc:title></dc:title>
      </cc:Work>
    </rdf:RDF>
  </metadata>
  <defs
     id="defs819" />
  <sodipodi:namedview
     pagecolor="#ffffff"
     bordercolor="#666666"
     borderopacity="1"
     objecttolerance="10"
     gridtolerance="10"
     guidetolerance="10"
     inkscape:pageopacity="0"
     inkscape:pageshadow="2"
     inkscape:window-width="3000"
     inkscape:window-height="1859"
     id="namedview817"
     showgrid="false"
     inkscape:zoom="2.1899895"
     inkscape:cx="360.5375"
     inkscape:cy="221.01039"
     inkscape:window-x="-13"
     inkscape:window-y="-13"
     inkscape:window-maximized="1"
     inkscape:current-layer="svg815" />
  <path
     style="fill:#ffffff"
     d="m 190.64542,244.85879 c -8.65349,-20.87027 -8.54332,-20.44788 -5.33348,-20.44788 3.7323,0 4.87814,1.62541 10.19196,14.45767 2.64756,6.39357 5.12385,11.26865 5.50286,10.8335 0.379,-0.43514 2.67003,-5.68997 5.09117,-11.67739 4.479,-11.07646 6.88873,-14.07746 10.79273,-13.44091 1.84722,0.30119 1.40078,1.77404 -5.63094,18.57713 -7.54937,18.04005 -7.67245,18.24988 -10.69847,18.23979 -3.01324,-0.01 -3.16875,-0.26948 -9.91583,-16.54191 z M 224,242.91091 v -18.5 h 3.5 3.5 v 18.5 18.5 h -3.5 -3.5 z m 17,-0.0995 v -18.5995 l 8.92075,0.3495 c 7.76817,0.30434 9.25024,0.6592 11.47098,2.74655 5.32821,5.00817 5.52187,12.37266 0.46685,17.75349 l -2.10115,2.23657 5.13242,7.05644 5.13243,7.05645 h -3.07688 c -4.44417,0 -6.17293,-1.23204 -10.45713,-7.4525 -2.79201,-4.05388 -4.44906,-5.5475 -6.15449,-5.5475 -2.20568,0 -2.33378,0.35679 -2.33378,6.5 v 6.5 h -3.5 -3.5 z m 16.17126,-3.05549 c 4.01626,-3.63466 1.05702,-8.34501 -5.24269,-8.34501 H 248 v 5 5 h 3.67126 c 2.01919,0 4.49419,-0.74474 5.5,-1.65499 z m 23.34912,19.42412 c -11.6318,-6.75146 -11.47396,-25.93069 0.26772,-32.52988 6.40527,-3.59996 14.89036,-2.74912 19.9619,2.00168 2.81776,2.63955 2.81084,3.1825 -0.0572,4.48929 -1.70646,0.77751 -3.1685,0.68911 -5.61481,-0.33949 -6.67311,-2.80583 -12.67905,-0.9966 -15.62907,4.70811 -4.50307,8.70798 3.28667,18.91836 12.93989,16.96091 2.39924,-0.48651 3.18093,-1.22411 3.41586,-3.2232 0.24284,-2.06642 -0.21361,-2.72238 -2.25,-3.23348 C 291.52984,247.50579 291,246.75455 291,244.39186 c 0,-2.97672 0.009,-2.98095 6,-2.98095 h 6 v 7.97695 c 0,7.54134 -0.14585,8.07251 -2.67087,9.72696 -1.67491,1.09745 -5.1242,1.86657 -9.25,2.06257 -5.42247,0.2576 -7.27877,-0.0935 -10.55875,-1.99735 z M 313,242.91091 v -18.5 h 3.5 3.5 v 18.5 18.5 h -3.5 -3.5 z m 17,-0.0575 v -18.5575 l 4.25,0.3075 c 4.21603,0.30504 4.31394,0.40141 12.25,12.05712 l 8,11.74963 0.28078,-11.99963 0.28078,-11.99962 H 358.03078 361 v 18.5 18.5 h -2.90154 c -2.59959,0 -3.82234,-1.35307 -11.75,-13.0023 l -8.84846,-13.0023 -0.27903,13.0023 -0.27902,13.0023 H 333.47097 330 Z m 42,0.0575 v -18.5 h 3 3 v 18.5 18.5 h -3 -3 z m 12.51663,16.4476 c 0.35827,-1.12881 3.7255,-9.34131 7.48272,-18.25 6.49545,-15.40122 6.97671,-16.21254 9.78834,-16.50144 1.73523,-0.1783 3.1826,0.23488 3.503,1 0.30029,0.71711 3.73273,8.88438 7.62765,18.14948 3.89491,9.2651 7.08166,17.05611 7.08166,17.31336 0,0.25724 -1.4625,0.32671 -3.25,0.15436 -2.58705,-0.24944 -3.65797,-1.07775 -5.25,-4.06066 -1.95486,-3.66273 -2.12977,-3.74736 -7.75,-3.75 -3.1625,-0.001 -5.75,-0.35257 -5.75,-0.78019 0,-1.88361 3.32617,-5.25361 5.87807,-5.95553 l 2.78844,-0.76698 -2.41664,-5.48475 -2.41665,-5.48475 -4.92713,11.89496 c -2.70992,6.54223 -5.4275,12.49787 -6.03905,13.23475 -0.61156,0.73689 -2.43715,1.33979 -4.05687,1.33979 -2.51493,0 -2.84983,-0.29969 -2.29354,-2.0524 z M 446,246.41091 v -15 h -5.5 -5.5 v -3.5 -3.5 h 13.5 13.5 v 3.5 3.5 h -5 -5 v 15 15 h -3 -3 z m 22,-3.5 v -18.5 h 11 11 v 3.5 3.5 h -8 -8 v 4 4 h 6.5 6.5 v 3.5 3.5 h -6.5 -6.5 v 4 4 h 8 8 v 3.5 3.5 h -11 -11 z m 35.50284,16.20333 c -11.71208,-6.63308 -11.54352,-25.81593 0.28526,-32.46408 6.40527,-3.59996 14.89036,-2.74912 19.9619,2.00168 2.81776,2.63955 2.81084,3.1825 -0.0572,4.48929 -1.70646,0.77751 -3.1685,0.68911 -5.61481,-0.33949 -6.67311,-2.80583 -12.67905,-0.9966 -15.62907,4.70811 -1.98257,3.83386 -1.8112,7.7947 0.50134,11.58734 3.34133,5.4799 8.22241,6.82727 15.36989,4.24271 2.68267,-0.97007 4.24287,-1.06353 5.4147,-0.32437 2.93104,1.84886 2.4654,3.19383 -2.01472,5.81936 -5.71959,3.3519 -12.60569,3.45753 -18.21726,0.27945 z M 533,242.91091 v -18.5 h 3.5 3.5 v 7.5 7.5 h 8.5 8.5 v -7.5 -7.5 h 3 3 v 18.5 18.5 h -3 -3 v -7.5 -7.5 h -8.5 -8.5 v 7.5 7.5 h -3.5 -3.5 z m 40.07029,15.75 c -0.0752,-3.47588 1.25631,-4.27571 2.73103,-1.64054 0.82784,1.47928 0.95065,1.47928 1.5183,0 1.06433,-2.77359 2.68355,-1.75586 2.61009,1.64054 -0.0557,2.57459 -0.22925,2.84358 -0.83522,1.29435 -0.75915,-1.94086 -0.77323,-1.94086 -1.86246,0 -1.08002,1.92445 -1.10937,1.92491 -1.83965,0.0288 -0.73273,-1.90251 -0.75166,-1.90251 -1.49696,0 -0.58885,1.50316 -0.77031,1.21219 -0.82513,-1.32311 z M 568.75,255.74863 c 0.6875,-0.27741 1.8125,-0.27741 2.5,0 0.6875,0.27741 0.125,0.50439 -1.25,0.50439 -1.375,0 -1.9375,-0.22698 -1.25,-0.50439 z M 310.70518,171.59552 C 302.6223,155.81898 289.93433,131.0889 282.5097,116.63979 l -13.49934,-26.271121 19.64184,0.27112 19.64185,0.27112 8.18449,15.748181 c 4.50147,8.66151 8.43519,15.99888 8.74158,16.30528 0.3064,0.30639 4.51642,-6.89279 9.35561,-15.99819 l 8.79851,-16.555271 h 14.8648 14.86479 l -6.00811,5 c -5.79954,4.826431 -6.22659,5.000571 -12.30191,5.016501 l -6.29381,0.0165 -11.45355,21.47994 c -6.29946,11.81398 -11.77426,21.14405 -12.16623,20.73351 -0.39197,-0.41055 -5.51343,-10.08395 -11.38102,-21.49645 l -10.66836,-20.75 h -8.91542 c -4.90348,0 -8.91542,0.13605 -8.91542,0.30232 0,1.24586 40.06821,78.16655 40.66018,78.05713 0.4182,-0.0773 9.15041,-16.2773 19.40492,-36 20.86604,-40.13207 22.9993,-43.127131 34.64745,-48.644461 l 6.78745,-3.21499 53.3027,-0.2913 53.30269,-0.29131 -9.01167,17.291311 -9.01167,17.2913 -19.16162,0.5 -19.16162,0.5 -18.35306,35.92365 c -10.09418,19.75801 -18.73491,36.30551 -19.20162,36.77222 -0.46671,0.46671 -9.46029,0.72606 -19.98573,0.57635 l -19.13717,-0.27222 18.45938,-35.71684 C 388.69328,143.54981 397,127.01231 397,126.44407 c 0,-0.6582 -4.7452,-1.03316 -13.07492,-1.03316 h -13.07493 l 2.34346,-4.25 2.34346,-4.25 18.75705,-0.27216 18.75704,-0.27216 -3.15128,6.27216 c -1.7332,3.44969 -10.06971,19.62886 -18.52558,35.95371 -8.45586,16.32485 -15.3743,29.93735 -15.3743,30.25 0,0.31265 4.0168,0.56845 8.92623,0.56845 h 8.92623 l 18.49962,-36.25 18.49961,-36.25 18.99879,-0.27133 18.9988,-0.27133 4.07536,-7.55545 C 475.16609,104.6573 477,101.06689 477,100.83413 c 0,-0.23277 -19.49484,-0.42322 -43.32186,-0.42322 -49.04266,0 -49.13913,0.0126 -57.47755,7.50956 -4.24787,3.8192 -7.31394,9.16351 -26.19432,45.65797 -11.76082,22.73286 -22.10818,42.54054 -22.99413,44.01708 l -1.61082,2.68461 z"
     id="path825"
     inkscape:connector-curvature="0"
     inkscape:export-filename="C:\Users\pverl\Documents\GitHub\website\src\VirginiaTech.png"
     inkscape:export-xdpi="96"
     inkscape:export-ydpi="96" />
</svg>
